{
.appVersion = "1342";
DisplayStrings = (
"!\"#$%&'()*+,-.//0123456789:;<=>?@ABCDEFGHIJKLMNOPQRSTUVWXYZ[/backslash ]^`abcdefghijklmnopqrstuvwxyz{|}~/dagger o354°120¢/euro £§/bullet ¶ß®©Nhung/trademark ´¨ÆØ±2012¥/mu ªºæ¿¡¬/ellipsis/endash/emdash/quotedblleft/quotedblright/quoteleft/quoteright/daggerdbl/quotesinglbase/quotedblbase/perthousand/circumflex/tilde ¯¸¦/minus ×¹²³½¼¾/RS/US/notequal/infinity/lessequal/greaterequal/partialdiff/pi/approxequal/lozenge/fraction/apple",
"/Ocircumflexacute",
"¥",
"¤"
);
classes = (
{
automatic = 1;
code = "A B C D E F G H I J K L M N O P Q R S T U V W X Y Z AE Oslash Adieresis Aring Ccedilla Eacute Ntilde Odieresis Udieresis Agrave Atilde Otilde OE Ydieresis Acircumflex Ecircumflex Aacute Edieresis Egrave Iacute Icircumflex Idieresis Igrave Oacute Ocircumflex Ograve Uacute Ugrave Ucircumflex Abreve Abreveacute Abrevedotbelow Abrevegrave Abrevehookabove Abrevetilde Acircumflexacute Acircumflexdotbelow Acircumflexgrave Acircumflexhookabove Acircumflextilde Adotbelow Ahookabove Amacron Aogonek Cacute Ccaron Eth Dcaron Dcroat Ecaron Ecircumflexacute Ecircumflexdotbelow Ecircumflexgrave Ecircumflexhookabove Ecircumflextilde Edotaccent Edotbelow Ehookabove Emacron Eogonek Etilde Gcommaaccent IJ Idotbelow Ihookabove Imacron Iogonek Itilde Jcircumflex Kcommaaccent Lacute Lcaron Lcommaaccent Ldotaccent Lslash Nacute Ncaron Ncommaaccent Eng Ocircumflexacute Ocircumflexdotbelow Ocircumflexgrave Ocircumflexhookabove Ocircumflextilde Odotbelow Ohookabove Ohorn Ohornacute Ohorndotbelow Ohorngrave Ohornhookabove Ohorntilde Ohungarumlaut Omacron Thorn Racute Rcaron Rcommaaccent Sacute Scaron Scedilla Germandbls Tbar Tcaron Tcedilla Udotbelow Uhookabove Uhorn Uhornacute Uhorndotbelow Uhorngrave Uhornhookabove Uhorntilde Uhungarumlaut Umacron Uogonek Uring Utilde Wacute Wcircumflex Wdieresis Wgrave Yacute Ycircumflex Ydotbelow Ygrave Yhookabove Ytilde Zacute Zcaron Zdotaccent Omega";
name = Uppercase;
}
);

glyphs = (
{
glyphname = .notdef;
lastChange = "2021-05-18 10:18:34 +0000";
layers = (
{
layerId = "0B90A97B-D71D-49C5-8F31-ED3EF6E28084";
paths = (
{
closed = 1;
nodes = (
"438 0 LINE",
"438 600 LINE",
"63 600 LINE",
"63 0 LINE"
);
},
{
closed = 1;
nodes = (
"125 538 LINE",
"375 538 LINE",
"375 63 LINE",
"125 63 LINE"
);
}
);
userData = {
assembly = "NPUSHB[ ]	/* 32 values pushed */\0121 8 8 64 9 2 7 4 4 1 0 6 5 4 3 2 5 4 7 0 7 6 7 1 2 1 3 0 0 1 0 70 \012SROUND[ ]	/* SuperRound */\012MDAP[1]	/* MoveDirectAbsPt */\012SHZ[1]	/* ShiftZoneByLastPoint */\012RTG[ ]	/* RoundToGrid */\012SVTCA[0]	/* SetFreedomAndProjectionVectorToAxis */\012MIAP[1]	/* MoveIndirectAbsPt */\012ALIGNRP[ ]	/* AlignRelativePt */\012MDAP[1]	/* MoveDirectAbsPt */\012ALIGNRP[ ]	/* AlignRelativePt */\012SRP0[ ]	/* SetRefPoint0 */\012MIRP[11101]	/* MoveIndirectRelPt */\012ALIGNRP[ ]	/* AlignRelativePt */\012SRP0[ ]	/* SetRefPoint0 */\012MIRP[11101]	/* MoveIndirectRelPt */\012ALIGNRP[ ]	/* AlignRelativePt */\012SVTCA[1]	/* SetFreedomAndProjectionVectorToAxis */\012MDAP[1]	/* MoveDirectAbsPt */\012ALIGNRP[ ]	/* AlignRelativePt */\012MIRP[11101]	/* MoveIndirectRelPt */\012ALIGNRP[ ]	/* AlignRelativePt */\012MDAP[1]	/* MoveDirectAbsPt */\012ALIGNRP[ ]	/* AlignRelativePt */\012MIRP[11101]	/* MoveIndirectRelPt */\012ALIGNRP[ ]	/* AlignRelativePt */\012SVTCA[0]	/* SetFreedomAndProjectionVectorToAxis */\012IUP[1]	/* InterpolateUntPts */\012IUP[0]	/* InterpolateUntPts */\012SVTCA[1]	/* SetFreedomAndProjectionVectorToAxis */\012MD[0]	/* MeasureDistance */\012ROUND[00]	/* Round */\012PUSHW[ ]	/* 2 values pushed */\0120 8 \012MD[0]	/* MeasureDistance */\012ROUND[00]	/* Round */\012SUB[ ]	/* Subtract */\012PUSHB[ ]	/* 1 value pushed */\01264 \012GT[ ]	/* GreaterThan */\012IF[ ]	/* If */\012SHPIX[ ]	/* ShiftZoneByPixel */\012SRP1[ ]	/* SetRefPoint1 */\012SHZ[1]	/* ShiftZoneByLastPoint */\012PUSHW[ ]	/* 2 values pushed */\0128 -64 \012SHPIX[ ]	/* ShiftZoneByPixel */\012EIF[ ]	/* EndIf */";
};
width = 500;
}
);
note = .notdef;
},
{
glyphname = exclam;
lastChange = "2021-05-11 10:01:37 +0000";
layers = (
{
layerId = "0B90A97B-D71D-49C5-8F31-ED3EF6E28084";
paths = (
{
closed = 1;
nodes = (
"147.667 103 OFFCURVE",
"154.667 109 OFFCURVE",
"160 121 CURVE SMOOTH",
"182.667 181.667 OFFCURVE",
"259 312.333 OFFCURVE",
"389 513 CURVE SMOOTH",
"393 518.333 OFFCURVE",
"387 526 OFFCURVE",
"371 536 CURVE",
"363.667 542.667 OFFCURVE",
"356 546 OFFCURVE",
"348 546 CURVE SMOOTH",
"346 546 OFFCURVE",
"344.333 545.333 OFFCURVE",
"343 544 CURVE",
"247 384 OFFCURVE",
"175.667 246.333 OFFCURVE",
"129 125 CURVE SMOOTH",
"127.667 121 OFFCURVE",
"127 118 OFFCURVE",
"127 116 CURVE SMOOTH",
"127 107.333 OFFCURVE",
"131 103 OFFCURVE",
"139 103 CURVE SMOOTH"
);
},
{
closed = 1;
nodes = (
"114.333 -20 OFFCURVE",
"125 -10.333 OFFCURVE",
"125 9 CURVE SMOOTH",
"125 29.667 OFFCURVE",
"114.333 40 OFFCURVE",
"93 40 CURVE SMOOTH",
"71.667 40 OFFCURVE",
"61 29.667 OFFCURVE",
"61 9 CURVE SMOOTH",
"61 -10.333 OFFCURVE",
"71.667 -20 OFFCURVE",
"93 -20 CURVE SMOOTH"
);
}
);
userData = {
assembly = "PUSHW[ ]	/* 1 value pushed */\01210 \012CALL[ ]	/* CallFunction */\012PUSHW[ ]	/* 4 values pushed */\01217 952 21 14 \012CALL[ ]	/* CallFunction */\012NPUSHW[ ]	/* 21 values pushed */\012102 17 118 17 134 17 150 17 166 17 182 17 198 17 214 17 230 17 246 17 10 \012DELTAP1[ ]	/* DeltaExceptionP1 */\012NPUSHW[ ]	/* 7 values pushed */\0126 17 22 17 38 17 3 \012DELTAP2[ ]	/* DeltaExceptionP2 */\012NPUSHW[ ]	/* 5 values pushed */\01253 17 69 17 2 \012DELTAP2[ ]	/* DeltaExceptionP2 */\012PUSHW[ ]	/* 1 value pushed */\01217 \012SRP0[ ]	/* SetRefPoint0 */\012PUSHW[ ]	/* 1 value pushed */\0126 \012MDRP[10000]	/* MoveDirectRelPt */\012PUSHW[ ]	/* 1 value pushed */\0126 \012MDAP[1]	/* MoveDirectAbsPt */\012SVTCA[0]	/* SetFreedomAndProjectionVectorToAxis */\012PUSHW[ ]	/* 1 value pushed */\01211 \012MDAP[1]	/* MoveDirectAbsPt */\012PUSHW[ ]	/* 1 value pushed */\01213 \012MDAP[1]	/* MoveDirectAbsPt */\012PUSHW[ ]	/* 3 values pushed */\01223 19 13 \012CALL[ ]	/* CallFunction */\012IUP[0]	/* InterpolateUntPts */\012IUP[1]	/* InterpolateUntPts */";
};
width = 277;
}
);
note = exclam;
unicode = 0021;
},
{
glyphname = quotedbl;
lastChange = "2021-05-11 10:01:37 +0000";
layers = (
{
layerId = "0B90A97B-D71D-49C5-8F31-ED3EF6E28084";
paths = (
{
closed = 1;
nodes = (
"139 277 LINE",
"159 326 LINE SMOOTH",
"165 340 OFFCURVE",
"170 352.333 OFFCURVE",
"174 363 CURVE SMOOTH",
"192 407.667 OFFCURVE",
"201 435.667 OFFCURVE",
"201 447 CURVE SMOOTH",
"201 460.333 OFFCURVE",
"194.667 467 OFFCURVE",
"182 467 CURVE SMOOTH",
"162 467 OFFCURVE",
"150.667 456.667 OFFCURVE",
"148 436 CURVE SMOOTH",
"129 277 LINE"
);
},
{
closed = 1;
nodes = (
"36 277 LINE",
"43.333 294.333 OFFCURVE",
"49.833 310.167 OFFCURVE",
"55.5 324.5 CURVE SMOOTH",
"71 363 LINE SMOOTH",
"88.333 407.667 OFFCURVE",
"97 436 OFFCURVE",
"97 448 CURVE SMOOTH",
"97 460.667 OFFCURVE",
"91 467 OFFCURVE",
"79 467 CURVE SMOOTH",
"63 467 OFFCURVE",
"46.333 451 OFFCURVE",
"45 435 CURVE SMOOTH",
"27 277 LINE"
);
}
);
userData = {
assembly = "PUSHW[ ]	/* 1 value pushed */\01210 \012CALL[ ]	/* CallFunction */\012SVTCA[0]	/* SetFreedomAndProjectionVectorToAxis */\012PUSHW[ ]	/* 1 value pushed */\0129 \012MDAP[1]	/* MoveDirectAbsPt */\012PUSHW[ ]	/* 1 value pushed */\01221 \012MDAP[1]	/* MoveDirectAbsPt */\012PUSHW[ ]	/* 1 value pushed */\0125 \012MDAP[1]	/* MoveDirectAbsPt */\012PUSHW[ ]	/* 1 value pushed */\01216 \012MDAP[1]	/* MoveDirectAbsPt */\012IUP[0]	/* InterpolateUntPts */\012IUP[1]	/* InterpolateUntPts */";
};
width = 212;
}
);
note = quotedbl;
unicode = 0022;
},
{
glyphname = numbersign;
lastChange = "2021-05-11 10:01:37 +0000";
layers = (
{
layerId = "0B90A97B-D71D-49C5-8F31-ED3EF6E28084";
paths = (
{
closed = 1;
nodes = (
"65 0 LINE",
"158 153 LINE",
"250 153 LINE",
"159 0 LINE",
"194 0 LINE",
"287 153 LINE",
"394 153 LINE",
"413 184 LINE",
"306 184 LINE",
"361 278 LINE",
"461 278 LINE",
"479 310 LINE",
"381 310 LINE",
"473 464 LINE",
"437 464 LINE",
"345 310 LINE",
"251 310 LINE",
"345 464 LINE",
"308 464 LINE",
"216 310 LINE",
"103 310 LINE",
"83 278 LINE",
"197 278 LINE",
"141 184 LINE",
"37 184 LINE",
"17 153 LINE",
"122 153 LINE",
"30 0 LINE"
);
},
{
closed = 1;
nodes = (
"233 278 LINE",
"325 278 LINE",
"269 184 LINE",
"176 184 LINE"
);
}
);
userData = {
assembly = "NPUSHB[ ]	/* 197 values pushed */\0121 32 32 64 33 0 30 28 27 26 23 22 18 17 14 13 12 9 8 4 3 0 31 30 31 28 28 29 24 23 24 9 9 10 8 25 11 5 5 6 4 4 5 30 30 31 29 28 29 10 9 10 22 11 10 15 15 16 14 14 15 30 30 31 29 28 29 10 9 10 22 11 11 19 19 20 18 18 19 31 30 31 28 28 29 24 23 24 9 9 10 8 25 9 27 27 0 2 1 2 3 3 4 26 26 3 31 30 31 28 28 29 24 23 24 9 9 10 8 25 9 7 6 6 7 30 30 31 29 28 29 10 9 10 22 11 9 20 19 20 17 17 18 16 15 16 13 13 14 21 12 12 21 29 28 18 17 2 5 1 7 27 24 23 20 19 5 0 31 30 16 15 4 5 3 7 14 13 10 9 6 5 5 26 25 22 3 21 12 11 8 3 7 0 1 14 70 \012SROUND[ ]	/* SuperRound */\012MDAP[1]	/* MoveDirectAbsPt */\012SHZ[1]	/* ShiftZoneByLastPoint */\012RTG[ ]	/* RoundToGrid */\012SVTCA[0]	/* SetFreedomAndProjectionVectorToAxis */\012MIAP[1]	/* MoveIndirectAbsPt */\012SLOOP[ ]	/* SetLoopVariable */\012ALIGNRP[ ]	/* AlignRelativePt */\012MDAP[1]	/* MoveDirectAbsPt */\012SLOOP[ ]	/* SetLoopVariable */\012ALIGNRP[ ]	/* AlignRelativePt */\012MDAP[1]	/* MoveDirectAbsPt */\012SLOOP[ ]	/* SetLoopVariable */\012ALIGNRP[ ]	/* AlignRelativePt */\012MIRP[11101]	/* MoveIndirectRelPt */\012SLOOP[ ]	/* SetLoopVariable */\012ALIGNRP[ ]	/* AlignRelativePt */\012MDAP[1]	/* MoveDirectAbsPt */\012SLOOP[ ]	/* SetLoopVariable */\012ALIGNRP[ ]	/* AlignRelativePt */\012MIRP[11101]	/* MoveIndirectRelPt */\012SLOOP[ ]	/* SetLoopVariable */\012ALIGNRP[ ]	/* AlignRelativePt */\012SVTCA[1]	/* SetFreedomAndProjectionVectorToAxis */\012SDPVTL[1]	/* SetDualPVectorToLine */\012MDAP[0]	/* MoveDirectAbsPt */\012SFVTPV[ ]	/* SetFVectorToPVector */\012MDRP[00100]	/* MoveDirectRelPt */\012SFVTL[0]	/* SetFVectorToLine */\012MDRP[00100]	/* MoveDirectRelPt */\012SFVTL[0]	/* SetFVectorToLine */\012MDRP[00100]	/* MoveDirectRelPt */\012SFVTL[0]	/* SetFVectorToLine */\012MDRP[00100]	/* MoveDirectRelPt */\012SFVTL[0]	/* SetFVectorToLine */\012MDRP[00100]	/* MoveDirectRelPt */\012SFVTPV[ ]	/* SetFVectorToPVector */\012MIRP[11100]	/* MoveIndirectRelPt */\012SFVTPV[ ]	/* SetFVectorToPVector */\012MDRP[00100]	/* MoveDirectRelPt */\012SFVTL[0]	/* SetFVectorToLine */\012MDRP[00100]	/* MoveDirectRelPt */\012SFVTL[0]	/* SetFVectorToLine */\012MDRP[00100]	/* MoveDirectRelPt */\012SFVTL[0]	/* SetFVectorToLine */\012MDRP[00100]	/* MoveDirectRelPt */\012SDPVTL[1]	/* SetDualPVectorToLine */\012MDAP[0]	/* MoveDirectAbsPt */\012SFVTPV[ ]	/* SetFVectorToPVector */\012MDRP[00100]	/* MoveDirectRelPt */\012SFVTPV[ ]	/* SetFVectorToPVector */\012MIRP[11100]	/* MoveIndirectRelPt */\012SFVTPV[ ]	/* SetFVectorToPVector */\012MDRP[00100]	/* MoveDirectRelPt */\012SFVTL[0]	/* SetFVectorToLine */\012MDRP[00100]	/* MoveDirectRelPt */\012SFVTL[0]	/* SetFVectorToLine */\012MDRP[00100]	/* MoveDirectRelPt */\012SFVTL[0]	/* SetFVectorToLine */\012MDRP[00100]	/* MoveDirectRelPt */\012SFVTL[0]	/* SetFVectorToLine */\012MDRP[00100]	/* MoveDirectRelPt */\012SDPVTL[1]	/* SetDualPVectorToLine */\012MDAP[0]	/* MoveDirectAbsPt */\012SFVTL[0]	/* SetFVectorToLine */\012MDRP[00100]	/* MoveDirectRelPt */\012SFVTL[0]	/* SetFVectorToLine */\012MDRP[00100]	/* MoveDirectRelPt */\012SFVTL[0]	/* SetFVectorToLine */\012MDRP[00100]	/* MoveDirectRelPt */\012SFVTPV[ ]	/* SetFVectorToPVector */\012MIRP[11100]	/* MoveIndirectRelPt */\012SFVTPV[ ]	/* SetFVectorToPVector */\012MDRP[00100]	/* MoveDirectRelPt */\012SFVTL[0]	/* SetFVectorToLine */\012MDRP[00100]	/* MoveDirectRelPt */\012SFVTL[0]	/* SetFVectorToLine */\012MDRP[00100]	/* MoveDirectRelPt */\012SFVTL[0]	/* SetFVectorToLine */\012MDRP[00100]	/* MoveDirectRelPt */\012SFVTL[0]	/* SetFVectorToLine */\012MDRP[00100]	/* MoveDirectRelPt */\012SDPVTL[1]	/* SetDualPVectorToLine */\012MDAP[0]	/* MoveDirectAbsPt */\012SFVTL[0]	/* SetFVectorToLine */\012MDRP[00100]	/* MoveDirectRelPt */\012SFVTPV[ ]	/* SetFVectorToPVector */\012MIRP[11100]	/* MoveIndirectRelPt */\012SFVTPV[ ]	/* SetFVectorToPVector */\012MDRP[00100]	/* MoveDirectRelPt */\012SFVTL[0]	/* SetFVectorToLine */\012MDRP[00100]	/* MoveDirectRelPt */\012SFVTL[0]	/* SetFVectorToLine */\012MDRP[00100]	/* MoveDirectRelPt */\012SFVTL[0]	/* SetFVectorToLine */\012MDRP[00100]	/* MoveDirectRelPt */\012SDPVTL[1]	/* SetDualPVectorToLine */\012MDAP[0]	/* MoveDirectAbsPt */\012SFVTL[0]	/* SetFVectorToLine */\012MDRP[00100]	/* MoveDirectRelPt */\012SFVTPV[ ]	/* SetFVectorToPVector */\012MIRP[11100]	/* MoveIndirectRelPt */\012SFVTPV[ ]	/* SetFVectorToPVector */\012MDRP[00100]	/* MoveDirectRelPt */\012SFVTL[0]	/* SetFVectorToLine */\012MDRP[00100]	/* MoveDirectRelPt */\012SFVTL[0]	/* SetFVectorToLine */\012MDRP[00100]	/* MoveDirectRelPt */\012SFVTL[0]	/* SetFVectorToLine */\012MDRP[00100]	/* MoveDirectRelPt */\012SDPVTL[1]	/* SetDualPVectorToLine */\012MDAP[0]	/* MoveDirectAbsPt */\012SFVTL[0]	/* SetFVectorToLine */\012MDRP[00100]	/* MoveDirectRelPt */\012SFVTPV[ ]	/* SetFVectorToPVector */\012MIRP[11100]	/* MoveIndirectRelPt */\012SFVTPV[ ]	/* SetFVectorToPVector */\012MDRP[00100]	/* MoveDirectRelPt */\012SFVTL[0]	/* SetFVectorToLine */\012MDRP[00100]	/* MoveDirectRelPt */\012SFVTL[0]	/* SetFVectorToLine */\012MDRP[00100]	/* MoveDirectRelPt */\012SFVTL[0]	/* SetFVectorToLine */\012MDRP[00100]	/* MoveDirectRelPt */\012SFVTL[0]	/* SetFVectorToLine */\012MDRP[00100]	/* MoveDirectRelPt */\012SVTCA[1]	/* SetFreedomAndProjectionVectorToAxis */\012MDAP[0]	/* MoveDirectAbsPt */\012MDAP[0]	/* MoveDirectAbsPt */\012MDAP[0]	/* MoveDirectAbsPt */\012MDAP[0]	/* MoveDirectAbsPt */\012MDAP[0]	/* MoveDirectAbsPt */\012MDAP[0]	/* MoveDirectAbsPt */\012MDAP[0]	/* MoveDirectAbsPt */\012MDAP[0]	/* MoveDirectAbsPt */\012MDAP[0]	/* MoveDirectAbsPt */\012MDAP[0]	/* MoveDirectAbsPt */\012MDAP[0]	/* MoveDirectAbsPt */\012MDAP[0]	/* MoveDirectAbsPt */\012MDAP[0]	/* MoveDirectAbsPt */\012MDAP[0]	/* MoveDirectAbsPt */\012MDAP[0]	/* MoveDirectAbsPt */\012MDAP[0]	/* MoveDirectAbsPt */\012SVTCA[0]	/* SetFreedomAndProjectionVectorToAxis */\012IUP[1]	/* InterpolateUntPts */\012IUP[0]	/* InterpolateUntPts */\012SVTCA[1]	/* SetFreedomAndProjectionVectorToAxis */\012MD[0]	/* MeasureDistance */\012ROUND[00]	/* Round */\012PUSHW[ ]	/* 2 values pushed */\01214 32 \012MD[0]	/* MeasureDistance */\012ROUND[00]	/* Round */\012SUB[ ]	/* Subtract */\012PUSHB[ ]	/* 1 value pushed */\01264 \012GT[ ]	/* GreaterThan */\012IF[ ]	/* If */\012SHPIX[ ]	/* ShiftZoneByPixel */\012SRP1[ ]	/* SetRefPoint1 */\012SHZ[1]	/* ShiftZoneByLastPoint */\012PUSHW[ ]	/* 2 values pushed */\01232 -64 \012SHPIX[ ]	/* ShiftZoneByPixel */\012EIF[ ]	/* EndIf */";
};
width = 497;
}
);
note = numbersign;
unicode = 0023;
},
{
glyphname = dollar;
lastChange = "2021-05-11 10:01:47 +0000";
layers = (
{
layerId = "0B90A97B-D71D-49C5-8F31-ED3EF6E28084";
paths = (
{
closed = 1;
nodes = (
"37 -37 LINE",
"55 -1 LINE",
"97 -1 OFFCURVE",
"134.667 9.667 OFFCURVE",
"168 31 CURVE SMOOTH",
"206.667 55.667 OFFCURVE",
"226 88 OFFCURVE",
"226 128 CURVE SMOOTH",
"226 154 OFFCURVE",
"211 187 OFFCURVE",
"181 227 CURVE",
"259 368 LINE",
"283.667 363.333 OFFCURVE",
"297.667 350 OFFCURVE",
"301 328 CURVE",
"297.667 335.333 OFFCURVE",
"291 339 OFFCURVE",
"281 339 CURVE SMOOTH",
"260 339 OFFCURVE",
"251 328 OFFCURVE",
"251 307 CURVE SMOOTH",
"251 290 OFFCURVE",
"261 281 OFFCURVE",
"280 281 CURVE SMOOTH",
"302.667 281 OFFCURVE",
"317 301 OFFCURVE",
"317 325 CURVE SMOOTH",
"317 357 OFFCURVE",
"300.333 375.667 OFFCURVE",
"267 381 CURVE",
"289 422 LINE",
"268 418 LINE",
"249 383 LINE",
"213.667 383 OFFCURVE",
"182 375 OFFCURVE",
"154 359 CURVE SMOOTH",
"121.333 340.333 OFFCURVE",
"105 314 OFFCURVE",
"105 280 CURVE SMOOTH",
"105 256.667 OFFCURVE",
"118.333 228.333 OFFCURVE",
"145 195 CURVE",
"45 14 LINE",
"15.667 20 OFFCURVE",
"-8.333 32.333 OFFCURVE",
"-27 51 CURVE",
"-33 51 LINE",
"-40.333 43.667 OFFCURVE",
"-44.333 38.333 OFFCURVE",
"-45 35 CURVE",
"-32.333 19.667 OFFCURVE",
"-5 8 OFFCURVE",
"37 0 CURVE",
"14 -41 LINE"
);
},
{
closed = 1;
nodes = (
"157 181 LINE",
"175 157 OFFCURVE",
"184 135.333 OFFCURVE",
"184 116 CURVE SMOOTH",
"184 86 OFFCURVE",
"171.333 61 OFFCURVE",
"146 41 CURVE SMOOTH",
"120.667 21.667 OFFCURVE",
"93 12 OFFCURVE",
"63 12 CURVE"
);
},
{
closed = 1;
nodes = (
"155 267.667 OFFCURVE",
"147 286.333 OFFCURVE",
"147 297 CURVE SMOOTH",
"147 318.333 OFFCURVE",
"156.333 336.333 OFFCURVE",
"175 351 CURVE SMOOTH",
"192.333 364.333 OFFCURVE",
"211.667 371 OFFCURVE",
"233 371 CURVE SMOOTH",
"243 371 LINE",
"171 241 LINE"
);
}
);
userData = {
assembly = "PUSHW[ ]	/* 1 value pushed */\01210 \012CALL[ ]	/* CallFunction */\012PUSHW[ ]	/* 4 values pushed */\01246 950 31 14 \012CALL[ ]	/* CallFunction */\012PUSHW[ ]	/* 4 values pushed */\01214 950 49 14 \012CALL[ ]	/* CallFunction */\012PUSHW[ ]	/* 4 values pushed */\0120 952 5 14 \012CALL[ ]	/* CallFunction */\012NPUSHW[ ]	/* 5 values pushed */\01258 5 74 5 2 \012DELTAP2[ ]	/* DeltaExceptionP2 */\012NPUSHW[ ]	/* 21 values pushed */\012105 5 121 5 137 5 153 5 169 5 185 5 201 5 217 5 233 5 249 5 10 \012DELTAP1[ ]	/* DeltaExceptionP1 */\012NPUSHW[ ]	/* 7 values pushed */\0129 5 25 5 41 5 3 \012DELTAP2[ ]	/* DeltaExceptionP2 */\012PUSHW[ ]	/* 3 values pushed */\0129 5 0 \012SRP1[ ]	/* SetRefPoint1 */\012SRP2[ ]	/* SetRefPoint2 */\012IP[ ]	/* InterpolatePts */\012PUSHW[ ]	/* 3 values pushed */\01237 5 0 \012SRP1[ ]	/* SetRefPoint1 */\012SRP2[ ]	/* SetRefPoint2 */\012IP[ ]	/* InterpolatePts */\012PUSHW[ ]	/* 3 values pushed */\01238 5 0 \012SRP1[ ]	/* SetRefPoint1 */\012SRP2[ ]	/* SetRefPoint2 */\012IP[ ]	/* InterpolatePts */\012PUSHW[ ]	/* 3 values pushed */\01242 31 0 \012SRP1[ ]	/* SetRefPoint1 */\012SRP2[ ]	/* SetRefPoint2 */\012IP[ ]	/* InterpolatePts */\012NPUSHW[ ]	/* 21 values pushed */\012102 46 118 46 134 46 150 46 166 46 182 46 198 46 214 46 230 46 246 46 10 \012DELTAP1[ ]	/* DeltaExceptionP1 */\012NPUSHW[ ]	/* 33 values pushed */\0126 46 22 46 38 46 54 46 70 46 86 46 102 46 118 46 134 46 150 46 166 46 182 46 198 46 214 46 230 46 246 46 16 \012DELTAP2[ ]	/* DeltaExceptionP2 */\012NPUSHW[ ]	/* 21 values pushed */\0126 46 22 46 38 46 54 46 70 46 86 46 102 46 118 46 134 46 150 46 10 \012DELTAP3[ ]	/* DeltaExceptionP3 */\012NPUSHW[ ]	/* 5 values pushed */\012165 46 181 46 2 \012DELTAP3[ ]	/* DeltaExceptionP3 */\012PUSHW[ ]	/* 3 values pushed */\01248 31 0 \012SRP1[ ]	/* SetRefPoint1 */\012SRP2[ ]	/* SetRefPoint2 */\012IP[ ]	/* InterpolatePts */\012NPUSHW[ ]	/* 5 values pushed */\012170 49 186 49 2 \012DELTAP3[ ]	/* DeltaExceptionP3 */\012NPUSHW[ ]	/* 21 values pushed */\012105 49 121 49 137 49 153 49 169 49 185 49 201 49 217 49 233 49 249 49 10 \012DELTAP1[ ]	/* DeltaExceptionP1 */\012NPUSHW[ ]	/* 33 values pushed */\0129 49 25 49 41 49 57 49 73 49 89 49 105 49 121 49 137 49 153 49 169 49 185 49 201 49 217 49 233 49 249 49 16 \012DELTAP2[ ]	/* DeltaExceptionP2 */\012NPUSHW[ ]	/* 21 values pushed */\0129 49 25 49 41 49 57 49 73 49 89 49 105 49 121 49 137 49 153 49 10 \012DELTAP3[ ]	/* DeltaExceptionP3 */\012PUSHW[ ]	/* 3 values pushed */\01251 31 0 \012SRP1[ ]	/* SetRefPoint1 */\012SRP2[ ]	/* SetRefPoint2 */\012IP[ ]	/* InterpolatePts */\012SVTCA[0]	/* SetFreedomAndProjectionVectorToAxis */\012PUSHW[ ]	/* 1 value pushed */\01237 \012MDAP[1]	/* MoveDirectAbsPt */\012PUSHW[ ]	/* 1 value pushed */\01220 \012MDAP[1]	/* MoveDirectAbsPt */\012PUSHW[ ]	/* 3 values pushed */\0127 3 13 \012CALL[ ]	/* CallFunction */\012PUSHW[ ]	/* 3 values pushed */\0129 3 7 \012SRP1[ ]	/* SetRefPoint1 */\012SRP2[ ]	/* SetRefPoint2 */\012IP[ ]	/* InterpolatePts */\012PUSHW[ ]	/* 3 values pushed */\01221 20 37 \012SRP1[ ]	/* SetRefPoint1 */\012SRP2[ ]	/* SetRefPoint2 */\012IP[ ]	/* InterpolatePts */\012PUSHW[ ]	/* 3 values pushed */\01238 20 37 \012SRP1[ ]	/* SetRefPoint1 */\012SRP2[ ]	/* SetRefPoint2 */\012IP[ ]	/* InterpolatePts */\012PUSHW[ ]	/* 3 values pushed */\01242 20 37 \012SRP1[ ]	/* SetRefPoint1 */\012SRP2[ ]	/* SetRefPoint2 */\012IP[ ]	/* InterpolatePts */\012PUSHW[ ]	/* 3 values pushed */\01248 20 37 \012SRP1[ ]	/* SetRefPoint1 */\012SRP2[ ]	/* SetRefPoint2 */\012IP[ ]	/* InterpolatePts */\012PUSHW[ ]	/* 3 values pushed */\01251 20 37 \012SRP1[ ]	/* SetRefPoint1 */\012SRP2[ ]	/* SetRefPoint2 */\012IP[ ]	/* InterpolatePts */\012PUSHW[ ]	/* 3 values pushed */\01252 20 37 \012SRP1[ ]	/* SetRefPoint1 */\012SRP2[ ]	/* SetRefPoint2 */\012IP[ ]	/* InterpolatePts */\012IUP[0]	/* InterpolateUntPts */\012IUP[1]	/* InterpolateUntPts */";
};
width = 299;
}
);
note = dollar;
unicode = 0024;
},
{
glyphname = percent;
lastChange = "2021-05-11 10:01:47 +0000";
layers = (
{
layerId = "0B90A97B-D71D-49C5-8F31-ED3EF6E28084";
paths = (
{
closed = 1;
nodes = (
"3 -56 LINE",
"413 441 LINE",
"413 443.667 OFFCURVE",
"410.333 445 OFFCURVE",
"405 445 CURVE SMOOTH",
"401.667 445 OFFCURVE",
"398.667 444.333 OFFCURVE",
"396 443 CURVE SMOOTH",
"392 441 OFFCURVE",
"374 422 OFFCURVE",
"342 386 CURVE SMOOTH",
"299.5 341 LINE SMOOTH",
"288.5 329.667 OFFCURVE",
"280.333 321.667 OFFCURVE",
"275 317 CURVE SMOOTH",
"235.667 287 OFFCURVE",
"206 272 OFFCURVE",
"186 272 CURVE SMOOTH",
"172.667 272 OFFCURVE",
"163.667 277.333 OFFCURVE",
"159 288 CURVE",
"176.333 304 OFFCURVE",
"193.333 327.333 OFFCURVE",
"208 358 CURVE SMOOTH",
"223.333 390 OFFCURVE",
"231 417 OFFCURVE",
"231 439 CURVE SMOOTH",
"231 472 OFFCURVE",
"214 488 OFFCURVE",
"180 488 CURVE SMOOTH",
"159 488 OFFCURVE",
"137 477 OFFCURVE",
"112 456 CURVE SMOOTH",
"64.667 412.667 OFFCURVE",
"41 365 OFFCURVE",
"41 313 CURVE SMOOTH",
"41 274 OFFCURVE",
"57 254 OFFCURVE",
"90 254 CURVE SMOOTH",
"107 254 OFFCURVE",
"126 262 OFFCURVE",
"146 277 CURVE",
"156 265.667 OFFCURVE",
"169 260 OFFCURVE",
"185 260 CURVE SMOOTH",
"213 260 OFFCURVE",
"248.333 278.333 OFFCURVE",
"291 315 CURVE",
"153.667 144.333 OFFCURVE",
"50 23 OFFCURVE",
"-22 -53 CURVE",
"-21 -56 LINE"
);
},
{
closed = 1;
nodes = (
"268 -19 OFFCURVE",
"300 3 OFFCURVE",
"331 47 CURVE SMOOTH",
"361 89 OFFCURVE",
"376 127.667 OFFCURVE",
"376 163 CURVE SMOOTH",
"376 197 OFFCURVE",
"359 214 OFFCURVE",
"325 214 CURVE SMOOTH",
"303 214 OFFCURVE",
"280 203 OFFCURVE",
"257 182 CURVE SMOOTH",
"209.667 138.667 OFFCURVE",
"186 91 OFFCURVE",
"186 39 CURVE SMOOTH",
"186 1 OFFCURVE",
"203 -19 OFFCURVE",
"236 -19 CURVE SMOOTH"
);
},
{
closed = 1;
nodes = (
"231 -5 OFFCURVE",
"223 4.667 OFFCURVE",
"223 24 CURVE SMOOTH",
"223 44 OFFCURVE",
"230.667 71 OFFCURVE",
"246 105 CURVE SMOOTH",
"254.667 124.333 OFFCURVE",
"266.333 142.333 OFFCURVE",
"281 159 CURVE SMOOTH",
"299.667 181.667 OFFCURVE",
"317 193 OFFCURVE",
"333 193 CURVE SMOOTH",
"349.667 193 OFFCURVE",
"358 183 OFFCURVE",
"358 163 CURVE SMOOTH",
"358 147 OFFCURVE",
"353 126.667 OFFCURVE",
"343 102 CURVE SMOOTH",
"333.667 76.667 OFFCURVE",
"324.333 59 OFFCURVE",
"315 47 CURVE SMOOTH",
"287 12.333 OFFCURVE",
"264.333 -5 OFFCURVE",
"247 -5 CURVE SMOOTH"
);
},
{
closed = 1;
nodes = (
"86.333 269 OFFCURVE",
"79 278.667 OFFCURVE",
"79 298 CURVE SMOOTH",
"79 320 OFFCURVE",
"86.333 346.667 OFFCURVE",
"101 378 CURVE SMOOTH",
"109 396.667 OFFCURVE",
"120.667 415 OFFCURVE",
"136 433 CURVE SMOOTH",
"154.667 455 OFFCURVE",
"172.333 466 OFFCURVE",
"189 466 CURVE SMOOTH",
"205 466 OFFCURVE",
"213 456 OFFCURVE",
"213 436 CURVE SMOOTH",
"213 422.667 OFFCURVE",
"208.333 403 OFFCURVE",
"199 377 CURVE SMOOTH",
"190.333 353.667 OFFCURVE",
"180.667 334.667 OFFCURVE",
"170 320 CURVE",
"170.667 322 OFFCURVE",
"171 324.333 OFFCURVE",
"171 327 CURVE SMOOTH",
"171 340.333 OFFCURVE",
"164.333 347 OFFCURVE",
"151 347 CURVE SMOOTH",
"136 347 OFFCURVE",
"129 337 OFFCURVE",
"129 316 CURVE SMOOTH",
"129 306 OFFCURVE",
"132 296 OFFCURVE",
"139 286 CURVE",
"124.333 274.667 OFFCURVE",
"111.667 269 OFFCURVE",
"101 269 CURVE SMOOTH"
);
}
);
userData = {
assembly = "PUSHW[ ]	/* 1 value pushed */\01210 \012CALL[ ]	/* CallFunction */\012PUSHW[ ]	/* 4 values pushed */\01256 950 14 14 \012CALL[ ]	/* CallFunction */\012PUSHW[ ]	/* 4 values pushed */\01282 950 46 14 \012CALL[ ]	/* CallFunction */\012NPUSHW[ ]	/* 5 values pushed */\012170 46 186 46 2 \012DELTAP3[ ]	/* DeltaExceptionP3 */\012NPUSHW[ ]	/* 21 values pushed */\012105 46 121 46 137 46 153 46 169 46 185 46 201 46 217 46 233 46 249 46 10 \012DELTAP1[ ]	/* DeltaExceptionP1 */\012NPUSHW[ ]	/* 33 values pushed */\0129 46 25 46 41 46 57 46 73 46 89 46 105 46 121 46 137 46 153 46 169 46 185 46 201 46 217 46 233 46 249 46 16 \012DELTAP2[ ]	/* DeltaExceptionP2 */\012NPUSHW[ ]	/* 21 values pushed */\0129 46 25 46 41 46 57 46 73 46 89 46 105 46 121 46 137 46 153 46 10 \012DELTAP3[ ]	/* DeltaExceptionP3 */\012PUSHW[ ]	/* 1 value pushed */\01246 \012SRP0[ ]	/* SetRefPoint0 */\012PUSHW[ ]	/* 1 value pushed */\01240 \012MDRP[11100]	/* MoveDirectRelPt */\012PUSHW[ ]	/* 3 values pushed */\0126 46 40 \012SRP1[ ]	/* SetRefPoint1 */\012SRP2[ ]	/* SetRefPoint2 */\012IP[ ]	/* InterpolatePts */\012NPUSHW[ ]	/* 21 values pushed */\012102 56 118 56 134 56 150 56 166 56 182 56 198 56 214 56 230 56 246 56 10 \012DELTAP1[ ]	/* DeltaExceptionP1 */\012NPUSHW[ ]	/* 33 values pushed */\0126 56 22 56 38 56 54 56 70 56 86 56 102 56 118 56 134 56 150 56 166 56 182 56 198 56 214 56 230 56 246 56 16 \012DELTAP2[ ]	/* DeltaExceptionP2 */\012NPUSHW[ ]	/* 21 values pushed */\0126 56 22 56 38 56 54 56 70 56 86 56 102 56 118 56 134 56 150 56 10 \012DELTAP3[ ]	/* DeltaExceptionP3 */\012NPUSHW[ ]	/* 5 values pushed */\012165 56 181 56 2 \012DELTAP3[ ]	/* DeltaExceptionP3 */\012PUSHW[ ]	/* 3 values pushed */\01268 14 40 \012SRP1[ ]	/* SetRefPoint1 */\012SRP2[ ]	/* SetRefPoint2 */\012IP[ ]	/* InterpolatePts */\012SVTCA[0]	/* SetFreedomAndProjectionVectorToAxis */\012PUSHW[ ]	/* 1 value pushed */\0121 \012MDAP[1]	/* MoveDirectAbsPt */\012PUSHW[ ]	/* 1 value pushed */\0123 \012MDAP[1]	/* MoveDirectAbsPt */\012PUSHW[ ]	/* 4 values pushed */\01218 947 50 14 \012CALL[ ]	/* CallFunction */\012PUSHW[ ]	/* 3 values pushed */\01264 12 13 \012CALL[ ]	/* CallFunction */\012PUSHW[ ]	/* 4 values pushed */\01238 948 76 14 \012CALL[ ]	/* CallFunction */\012PUSHW[ ]	/* 3 values pushed */\0126 12 64 \012SRP1[ ]	/* SetRefPoint1 */\012SRP2[ ]	/* SetRefPoint2 */\012IP[ ]	/* InterpolatePts */\012PUSHW[ ]	/* 1 value pushed */\01212 \012SRP0[ ]	/* SetRefPoint0 */\012PUSHW[ ]	/* 1 value pushed */\0128 \012MDRP[10000]	/* MoveDirectRelPt */\012PUSHW[ ]	/* 1 value pushed */\0128 \012MDAP[1]	/* MoveDirectAbsPt */\012PUSHW[ ]	/* 3 values pushed */\01268 12 64 \012SRP1[ ]	/* SetRefPoint1 */\012SRP2[ ]	/* SetRefPoint2 */\012IP[ ]	/* InterpolatePts */\012IUP[0]	/* InterpolateUntPts */\012IUP[1]	/* InterpolateUntPts */";
};
width = 414;
}
);
note = percent;
unicode = 0025;
},
{
glyphname = ampersand;
lastChange = "2021-05-11 10:01:47 +0000";
layers = (
{
layerId = "0B90A97B-D71D-49C5-8F31-ED3EF6E28084";
paths = (
{
closed = 1;
nodes = (
"227 -223 OFFCURVE",
"277 -146 OFFCURVE",
"299 6 CURVE",
"371 24.667 OFFCURVE",
"428.333 64.333 OFFCURVE",
"471 125 CURVE SMOOTH",
"498 163 OFFCURVE",
"512 197 OFFCURVE",
"512 227 CURVE SMOOTH",
"512 274 OFFCURVE",
"481 299 OFFCURVE",
"422 299 CURVE SMOOTH",
"387 299 OFFCURVE",
"352 288 OFFCURVE",
"316 266 CURVE",
"323 354 LINE SMOOTH",
"325 376.667 OFFCURVE",
"327.333 393.333 OFFCURVE",
"330 404 CURVE",
"386 438.667 OFFCURVE",
"412.333 471.333 OFFCURVE",
"409 502 CURVE SMOOTH",
"405 521 OFFCURVE",
"396 530 OFFCURVE",
"382 530 CURVE SMOOTH",
"370 530 OFFCURVE",
"359 522 OFFCURVE",
"347 507 CURVE SMOOTH",
"339 497.667 OFFCURVE",
"331.333 481.333 OFFCURVE",
"324 458 CURVE SMOOTH",
"321.333 448 OFFCURVE",
"317.333 429.333 OFFCURVE",
"312 402 CURVE",
"170 326 LINE SMOOTH",
"116.667 296.667 OFFCURVE",
"75.333 264 OFFCURVE",
"42 228 CURVE SMOOTH",
"2 185 OFFCURVE",
"-18 145 OFFCURVE",
"-18 110 CURVE SMOOTH",
"-18 69 OFFCURVE",
"5 37 OFFCURVE",
"50 15 CURVE SMOOTH",
"78.667 1 OFFCURVE",
"111.667 -8 OFFCURVE",
"149 -12 CURVE SMOOTH",
"159 -13 OFFCURVE",
"170 -13 OFFCURVE",
"181 -13 CURVE SMOOTH",
"207 -13 OFFCURVE",
"234 -11 OFFCURVE",
"262 -6 CURVE",
"234 -142 OFFCURVE",
"192 -209 OFFCURVE",
"136 -209 CURVE SMOOTH",
"100 -209 OFFCURVE",
"79 -191 OFFCURVE",
"70 -158 CURVE SMOOTH",
"69.333 -156 OFFCURVE",
"68 -154.667 OFFCURVE",
"66 -154 CURVE",
"64.667 -155.333 OFFCURVE",
"64 -156.667 OFFCURVE",
"64 -158 CURVE SMOOTH",
"66 -176.667 OFFCURVE",
"75.333 -192 OFFCURVE",
"92 -204 CURVE SMOOTH",
"109 -216 OFFCURVE",
"129 -223 OFFCURVE",
"151 -223 CURVE SMOOTH"
);
},
{
closed = 1;
nodes = (
"157 3 OFFCURVE",
"121 12 OFFCURVE",
"89 29 CURVE SMOOTH",
"50 49 OFFCURVE",
"30 78 OFFCURVE",
"30 115 CURVE SMOOTH",
"30 156 OFFCURVE",
"54 201 OFFCURVE",
"102 249 CURVE SMOOTH",
"134.667 283 OFFCURVE",
"169 311.333 OFFCURVE",
"205 334 CURVE SMOOTH",
"251 360 OFFCURVE",
"286 379 OFFCURVE",
"310 391 CURVE",
"303.333 356.333 OFFCURVE",
"299.333 313.333 OFFCURVE",
"294 260 CURVE",
"238.667 229.333 OFFCURVE",
"202.333 193.333 OFFCURVE",
"185 152 CURVE SMOOTH",
"181 142 OFFCURVE",
"179 133 OFFCURVE",
"179 125 CURVE SMOOTH",
"179 115 OFFCURVE",
"182 106 OFFCURVE",
"187 98 CURVE",
"189 96 OFFCURVE",
"191.333 95 OFFCURVE",
"194 95 CURVE SMOOTH",
"196.667 95 OFFCURVE",
"197 96 OFFCURVE",
"195 98 CURVE SMOOTH",
"189 105 OFFCURVE",
"187 113 OFFCURVE",
"187 122 CURVE SMOOTH",
"187 130 OFFCURVE",
"188 139 OFFCURVE",
"192 148 CURVE SMOOTH",
"204.667 182 OFFCURVE",
"238 212.667 OFFCURVE",
"292 240 CURVE",
"281.333 130.667 OFFCURVE",
"272.333 53.333 OFFCURVE",
"263 8 CURVE",
"243 4 OFFCURVE",
"223 3 OFFCURVE",
"204 3 CURVE SMOOTH"
);
},
{
closed = 1;
nodes = (
"151 -185 OFFCURVE",
"153 -185 OFFCURVE",
"155 -183 CURVE SMOOTH",
"169.667 -166.333 OFFCURVE",
"185.667 -132 OFFCURVE",
"203 -80 CURVE SMOOTH",
"223 -18.667 OFFCURVE",
"237.333 47.333 OFFCURVE",
"244 122 CURVE SMOOTH",
"254 212.667 OFFCURVE",
"259 278.667 OFFCURVE",
"259 320 CURVE SMOOTH",
"259 381.333 OFFCURVE",
"250.667 432.667 OFFCURVE",
"234 474 CURVE SMOOTH",
"214.667 525.333 OFFCURVE",
"182.667 551 OFFCURVE",
"138 551 CURVE SMOOTH",
"88.667 551 OFFCURVE",
"48 512 OFFCURVE",
"48 456 CURVE SMOOTH",
"48 422.667 OFFCURVE",
"61 387.667 OFFCURVE",
"87 351 CURVE SMOOTH",
"121 302.333 OFFCURVE",
"168.667 278 OFFCURVE",
"230 278 CURVE SMOOTH",
"274.667 278 OFFCURVE",
"317.333 290.667 OFFCURVE",
"358 316 CURVE SMOOTH",
"398.667 342 OFFCURVE",
"424 372 OFFCURVE",
"434 406 CURVE SMOOTH",
"435 409 OFFCURVE",
"433 411 OFFCURVE",
"430 411 CURVE SMOOTH",
"428 411 OFFCURVE",
"427 410 OFFCURVE",
"426 408 CURVE SMOOTH",
"416.667 374.667 OFFCURVE",
"393.333 346.333 OFFCURVE",
"356 323 CURVE SMOOTH",
"319.333 300.333 OFFCURVE",
"279.667 289 OFFCURVE",
"237 289 CURVE SMOOTH",
"177.667 289 OFFCURVE",
"131.333 311.667 OFFCURVE",
"98 357 CURVE SMOOTH",
"72.667 392.333 OFFCURVE",
"60 426 OFFCURVE",
"60 458 CURVE SMOOTH",
"60 507.333 OFFCURVE",
"93 543 OFFCURVE",
"133 543 CURVE SMOOTH",
"169.667 543 OFFCURVE",
"197.667 518.333 OFFCURVE",
"217 469 CURVE SMOOTH",
"234.333 425 OFFCURVE",
"243 363 OFFCURVE",
"243 283 CURVE SMOOTH",
"243 233.667 OFFCURVE",
"239.667 182 OFFCURVE",
"233 122 CURVE SMOOTH",
"225.667 47.333 OFFCURVE",
"212.667 -19.333 OFFCURVE",
"194 -78 CURVE SMOOTH",
"179.333 -128.667 OFFCURVE",
"164.333 -162 OFFCURVE",
"149 -178 CURVE SMOOTH",
"147 -180 OFFCURVE",
"147 -181.667 OFFCURVE",
"149 -183 CURVE SMOOTH"
);
},
{
closed = 1;
nodes = (
"307.667 119.667 OFFCURVE",
"312.667 196.333 OFFCURVE",
"314 249 CURVE",
"340 263 OFFCURVE",
"367 270 OFFCURVE",
"396 270 CURVE SMOOTH",
"455 270 OFFCURVE",
"486 248 OFFCURVE",
"486 206 CURVE SMOOTH",
"486 181 OFFCURVE",
"474 152 OFFCURVE",
"450 118 CURVE SMOOTH",
"416 68.667 OFFCURVE",
"365.667 35.667 OFFCURVE",
"299 19 CURVE"
);
},
{
closed = 1;
nodes = (
"343.667 453.667 OFFCURVE",
"354.667 479.667 OFFCURVE",
"366 493 CURVE SMOOTH",
"375.333 502.333 OFFCURVE",
"382.333 507 OFFCURVE",
"387 507 CURVE",
"392 506 OFFCURVE",
"395 502 OFFCURVE",
"395 495 CURVE SMOOTH",
"395 485 OFFCURVE",
"387 470 OFFCURVE",
"371 451 CURVE SMOOTH",
"356.333 433.667 OFFCURVE",
"343.667 421.667 OFFCURVE",
"333 415 CURVE"
);
}
);
userData = {
assembly = "PUSHW[ ]	/* 1 value pushed */\01210 \012CALL[ ]	/* CallFunction */\012PUSHW[ ]	/* 3 values pushed */\012141 134 13 \012CALL[ ]	/* CallFunction */\012NPUSHW[ ]	/* 21 values pushed */\012102 141 118 141 134 141 150 141 166 141 182 141 198 141 214 141 230 141 246 141 10 \012DELTAP1[ ]	/* DeltaExceptionP1 */\012NPUSHW[ ]	/* 7 values pushed */\0126 141 22 141 38 141 3 \012DELTAP2[ ]	/* DeltaExceptionP2 */\012NPUSHW[ ]	/* 5 values pushed */\01253 141 69 141 2 \012DELTAP2[ ]	/* DeltaExceptionP2 */\012PUSHW[ ]	/* 3 values pushed */\012107 134 141 \012SRP1[ ]	/* SetRefPoint1 */\012SRP2[ ]	/* SetRefPoint2 */\012IP[ ]	/* InterpolatePts */\012PUSHW[ ]	/* 1 value pushed */\012107 \012MDAP[1]	/* MoveDirectAbsPt */\012NPUSHW[ ]	/* 5 values pushed */\01258 107 74 107 2 \012DELTAP2[ ]	/* DeltaExceptionP2 */\012NPUSHW[ ]	/* 21 values pushed */\012105 107 121 107 137 107 153 107 169 107 185 107 201 107 217 107 233 107 249 107 10 \012DELTAP1[ ]	/* DeltaExceptionP1 */\012NPUSHW[ ]	/* 7 values pushed */\0129 107 25 107 41 107 3 \012DELTAP2[ ]	/* DeltaExceptionP2 */\012PUSHW[ ]	/* 2 values pushed */\01213 952 \012MIRP[10100]	/* MoveIndirectRelPt */\012PUSHW[ ]	/* 3 values pushed */\01231 134 141 \012SRP1[ ]	/* SetRefPoint1 */\012SRP2[ ]	/* SetRefPoint2 */\012IP[ ]	/* InterpolatePts */\012PUSHW[ ]	/* 1 value pushed */\012141 \012SRP0[ ]	/* SetRefPoint0 */\012PUSHW[ ]	/* 1 value pushed */\01268 \012MDRP[10000]	/* MoveDirectRelPt */\012PUSHW[ ]	/* 1 value pushed */\01268 \012MDAP[1]	/* MoveDirectAbsPt */\012PUSHW[ ]	/* 3 values pushed */\01235 141 68 \012SRP1[ ]	/* SetRefPoint1 */\012SRP2[ ]	/* SetRefPoint2 */\012IP[ ]	/* InterpolatePts */\012PUSHW[ ]	/* 1 value pushed */\01213 \012SRP0[ ]	/* SetRefPoint0 */\012PUSHW[ ]	/* 1 value pushed */\01262 \012MDRP[10000]	/* MoveDirectRelPt */\012PUSHW[ ]	/* 1 value pushed */\01262 \012MDAP[1]	/* MoveDirectAbsPt */\012PUSHW[ ]	/* 3 values pushed */\01264 107 13 \012SRP1[ ]	/* SetRefPoint1 */\012SRP2[ ]	/* SetRefPoint2 */\012IP[ ]	/* InterpolatePts */\012PUSHW[ ]	/* 3 values pushed */\01271 107 13 \012SRP1[ ]	/* SetRefPoint1 */\012SRP2[ ]	/* SetRefPoint2 */\012IP[ ]	/* InterpolatePts */\012PUSHW[ ]	/* 3 values pushed */\01279 134 141 \012SRP1[ ]	/* SetRefPoint1 */\012SRP2[ ]	/* SetRefPoint2 */\012IP[ ]	/* InterpolatePts */\012PUSHW[ ]	/* 1 value pushed */\01213 \012SRP0[ ]	/* SetRefPoint0 */\012PUSHW[ ]	/* 1 value pushed */\01286 \012MDRP[10000]	/* MoveDirectRelPt */\012PUSHW[ ]	/* 1 value pushed */\01286 \012MDAP[1]	/* MoveDirectAbsPt */\012PUSHW[ ]	/* 1 value pushed */\012107 \012SRP0[ ]	/* SetRefPoint0 */\012PUSHW[ ]	/* 1 value pushed */\012143 \012MDRP[10000]	/* MoveDirectRelPt */\012PUSHW[ ]	/* 1 value pushed */\012143 \012MDAP[1]	/* MoveDirectAbsPt */\012SVTCA[0]	/* SetFreedomAndProjectionVectorToAxis */\012PUSHW[ ]	/* 1 value pushed */\012137 \012MDAP[1]	/* MoveDirectAbsPt */\012IUP[0]	/* InterpolateUntPts */\012IUP[1]	/* InterpolateUntPts */";
};
width = 476;
}
);
note = ampersand;
unicode = 0026;
},
{
glyphname = quotesingle;
lastChange = "2021-05-11 10:01:47 +0000";
layers = (
{
layerId = "0B90A97B-D71D-49C5-8F31-ED3EF6E28084";
paths = (
{
closed = 1;
nodes = (
"77 223 OFFCURVE",
"84.667 226 OFFCURVE",
"96 232 CURVE SMOOTH",
"113.333 241.333 OFFCURVE",
"130.667 258.667 OFFCURVE",
"152 284 CURVE SMOOTH",
"175.333 313.333 OFFCURVE",
"186 335 OFFCURVE",
"184 349 CURVE SMOOTH",
"181 369 OFFCURVE",
"171 377 OFFCURVE",
"155 377 CURVE SMOOTH",
"130 377 OFFCURVE",
"117 366 OFFCURVE",
"117 344 CURVE SMOOTH",
"117 326.667 OFFCURVE",
"122.333 317.667 OFFCURVE",
"133 317 CURVE",
"118.333 290.333 OFFCURVE",
"101.667 266.333 OFFCURVE",
"83 245 CURVE SMOOTH",
"75 235.667 OFFCURVE",
"71 229 OFFCURVE",
"71 225 CURVE SMOOTH",
"71 223.667 OFFCURVE",
"71.667 223 OFFCURVE",
"73 223 CURVE SMOOTH"
);
}
);
userData = {
assembly = "PUSHW[ ]	/* 1 value pushed */\01210 \012CALL[ ]	/* CallFunction */\012SVTCA[0]	/* SetFreedomAndProjectionVectorToAxis */\012PUSHW[ ]	/* 1 value pushed */\01218 \012MDAP[1]	/* MoveDirectAbsPt */\012PUSHW[ ]	/* 1 value pushed */\0127 \012MDAP[1]	/* MoveDirectAbsPt */\012PUSHW[ ]	/* 1 value pushed */\0129 \012MDAP[1]	/* MoveDirectAbsPt */\012PUSHW[ ]	/* 3 values pushed */\01214 7 18 \012SRP1[ ]	/* SetRefPoint1 */\012SRP2[ ]	/* SetRefPoint2 */\012IP[ ]	/* InterpolatePts */\012IUP[0]	/* InterpolateUntPts */\012IUP[1]	/* InterpolateUntPts */";
};
width = 145;
}
);
note = quotesingle;
unicode = 0027;
},
{
glyphname = parenleft;
lastChange = "2021-05-11 10:01:37 +0000";
layers = (
{
layerId = "0B90A97B-D71D-49C5-8F31-ED3EF6E28084";
paths = (
{
closed = 1;
nodes = (
"99.667 -89 OFFCURVE",
"103 -85.667 OFFCURVE",
"103 -79 CURVE SMOOTH",
"103 -74.333 OFFCURVE",
"101.667 -70.333 OFFCURVE",
"99 -67 CURVE SMOOTH",
"85.667 -48.333 OFFCURVE",
"79 9 OFFCURVE",
"79 105 CURVE SMOOTH",
"79 195.667 OFFCURVE",
"114 288 OFFCURVE",
"184 382 CURVE SMOOTH",
"250 470 OFFCURVE",
"324.333 531 OFFCURVE",
"407 565 CURVE",
"407 578.333 OFFCURVE",
"401.667 585 OFFCURVE",
"391 585 CURVE SMOOTH",
"380.333 585 OFFCURVE",
"361.667 576.667 OFFCURVE",
"335 560 CURVE SMOOTH",
"239 500 OFFCURVE",
"167.667 436 OFFCURVE",
"121 368 CURVE SMOOTH",
"67 288.667 OFFCURVE",
"40 197.667 OFFCURVE",
"40 95 CURVE SMOOTH",
"40 68.333 OFFCURVE",
"43 37 OFFCURVE",
"49 1 CURVE SMOOTH",
"59.667 -59 OFFCURVE",
"74.333 -89 OFFCURVE",
"93 -89 CURVE SMOOTH"
);
}
);
userData = {
assembly = "PUSHW[ ]	/* 1 value pushed */\01210 \012CALL[ ]	/* CallFunction */\012PUSHW[ ]	/* 4 values pushed */\0124 950 14 14 \012CALL[ ]	/* CallFunction */\012NPUSHW[ ]	/* 21 values pushed */\012102 4 118 4 134 4 150 4 166 4 182 4 198 4 214 4 230 4 246 4 10 \012DELTAP1[ ]	/* DeltaExceptionP1 */\012NPUSHW[ ]	/* 33 values pushed */\0126 4 22 4 38 4 54 4 70 4 86 4 102 4 118 4 134 4 150 4 166 4 182 4 198 4 214 4 230 4 246 4 16 \012DELTAP2[ ]	/* DeltaExceptionP2 */\012NPUSHW[ ]	/* 21 values pushed */\0126 4 22 4 38 4 54 4 70 4 86 4 102 4 118 4 134 4 150 4 10 \012DELTAP3[ ]	/* DeltaExceptionP3 */\012NPUSHW[ ]	/* 5 values pushed */\012165 4 181 4 2 \012DELTAP3[ ]	/* DeltaExceptionP3 */\012SVTCA[0]	/* SetFreedomAndProjectionVectorToAxis */\012PUSHW[ ]	/* 1 value pushed */\01220 \012MDAP[1]	/* MoveDirectAbsPt */\012PUSHW[ ]	/* 1 value pushed */\01210 \012MDAP[1]	/* MoveDirectAbsPt */\012IUP[0]	/* InterpolateUntPts */\012IUP[1]	/* InterpolateUntPts */";
};
width = 353;
}
);
note = parenleft;
unicode = 0028;
},
{
glyphname = parenright;
lastChange = "2021-05-11 10:01:37 +0000";
layers = (
{
layerId = "0B90A97B-D71D-49C5-8F31-ED3EF6E28084";
paths = (
{
closed = 1;
nodes = (
"33.667 -94 OFFCURVE",
"52.333 -85.667 OFFCURVE",
"79 -69 CURVE SMOOTH",
"173.667 -10.333 OFFCURVE",
"244.667 53.667 OFFCURVE",
"292 123 CURVE SMOOTH",
"346 201.667 OFFCURVE",
"373 293 OFFCURVE",
"373 397 CURVE SMOOTH",
"373 423.667 OFFCURVE",
"369.667 454.667 OFFCURVE",
"363 490 CURVE SMOOTH",
"352.333 550.667 OFFCURVE",
"337.667 581 OFFCURVE",
"319 581 CURVE SMOOTH",
"311.667 581 OFFCURVE",
"308 577.667 OFFCURVE",
"308 571 CURVE SMOOTH",
"308 567 OFFCURVE",
"309.667 562.333 OFFCURVE",
"313 557 CURVE SMOOTH",
"326.333 539.667 OFFCURVE",
"333 482.333 OFFCURVE",
"333 385 CURVE SMOOTH",
"333 297 OFFCURVE",
"299.333 206.333 OFFCURVE",
"232 113 CURVE SMOOTH",
"166.667 22.333 OFFCURVE",
"91.667 -40.333 OFFCURVE",
"7 -75 CURVE",
"7 -87.667 OFFCURVE",
"12.333 -94 OFFCURVE",
"23 -94 CURVE SMOOTH"
);
}
);
userData = {
assembly = "PUSHW[ ]	/* 1 value pushed */\01210 \012CALL[ ]	/* CallFunction */\012PUSHW[ ]	/* 4 values pushed */\0120 950 12 14 \012CALL[ ]	/* CallFunction */\012NPUSHW[ ]	/* 5 values pushed */\012170 12 186 12 2 \012DELTAP3[ ]	/* DeltaExceptionP3 */\012NPUSHW[ ]	/* 21 values pushed */\012105 12 121 12 137 12 153 12 169 12 185 12 201 12 217 12 233 12 249 12 10 \012DELTAP1[ ]	/* DeltaExceptionP1 */\012NPUSHW[ ]	/* 33 values pushed */\0129 12 25 12 41 12 57 12 73 12 89 12 105 12 121 12 137 12 153 12 169 12 185 12 201 12 217 12 233 12 249 12 16 \012DELTAP2[ ]	/* DeltaExceptionP2 */\012NPUSHW[ ]	/* 21 values pushed */\0129 12 25 12 41 12 57 12 73 12 89 12 105 12 121 12 137 12 153 12 10 \012DELTAP3[ ]	/* DeltaExceptionP3 */\012SVTCA[0]	/* SetFreedomAndProjectionVectorToAxis */\012PUSHW[ ]	/* 1 value pushed */\01218 \012MDAP[1]	/* MoveDirectAbsPt */\012PUSHW[ ]	/* 1 value pushed */\0126 \012MDAP[1]	/* MoveDirectAbsPt */\012IUP[0]	/* InterpolateUntPts */\012IUP[1]	/* InterpolateUntPts */";
};
width = 411;
}
);
note = parenright;
unicode = 0029;
},
{
glyphname = asterisk;
lastChange = "2021-05-11 10:01:37 +0000";
layers = (
{
layerId = "0B90A97B-D71D-49C5-8F31-ED3EF6E28084";
paths = (
{
closed = 1;
nodes = (
"58.667 141 OFFCURVE",
"61.667 142 OFFCURVE",
"65 144 CURVE",
"137 223 LINE",
"141.667 213 OFFCURVE",
"145.5 204.333 OFFCURVE",
"148.5 197 CURVE SMOOTH",
"157 178 LINE SMOOTH",
"167.667 153.333 OFFCURVE",
"175.667 141 OFFCURVE",
"181 141 CURVE SMOOTH",
"191.667 141 OFFCURVE",
"197 147.667 OFFCURVE",
"197 161 CURVE SMOOTH",
"197 163 OFFCURVE",
"196.667 164.333 OFFCURVE",
"196 165 CURVE",
"161 235 LINE",
"249 238 LINE SMOOTH",
"263.667 238.667 OFFCURVE",
"271 243.667 OFFCURVE",
"271 253 CURVE SMOOTH",
"271 257 OFFCURVE",
"267.667 259 OFFCURVE",
"261 259 CURVE SMOOTH",
"171 259 LINE",
"227 321 LINE SMOOTH",
"233.667 327.667 OFFCURVE",
"237 334.333 OFFCURVE",
"237 341 CURVE SMOOTH",
"237 346.333 OFFCURVE",
"235 349 OFFCURVE",
"231 349 CURVE SMOOTH",
"228.333 349 OFFCURVE",
"225.667 347.667 OFFCURVE",
"223 345 CURVE SMOOTH",
"145 267 LINE",
"106 343 LINE SMOOTH",
"100.667 352.333 OFFCURVE",
"94.667 357 OFFCURVE",
"88 357 CURVE SMOOTH",
"83.333 357 OFFCURVE",
"81 354.667 OFFCURVE",
"81 350 CURVE",
"83 343 LINE",
"93.667 320.333 OFFCURVE",
"106.333 293.667 OFFCURVE",
"121 259 CURVE",
"25 259 LINE SMOOTH",
"15.667 259 OFFCURVE",
"11 255 OFFCURVE",
"11 247 CURVE SMOOTH",
"11 235 OFFCURVE",
"15.333 229 OFFCURVE",
"24 229 CURVE SMOOTH",
"112 233 LINE",
"45 165 LINE SMOOTH",
"41 161 OFFCURVE",
"39 157.333 OFFCURVE",
"39 154 CURVE SMOOTH",
"39 145.333 OFFCURVE",
"44.667 141 OFFCURVE",
"56 141 CURVE SMOOTH"
);
}
);
userData = {
assembly = "PUSHW[ ]	/* 1 value pushed */\01210 \012CALL[ ]	/* CallFunction */\012SVTCA[0]	/* SetFreedomAndProjectionVectorToAxis */\012PUSHW[ ]	/* 1 value pushed */\01234 \012MDAP[1]	/* MoveDirectAbsPt */\012PUSHW[ ]	/* 1 value pushed */\01236 \012MDAP[1]	/* MoveDirectAbsPt */\012PUSHW[ ]	/* 3 values pushed */\01247 10 13 \012CALL[ ]	/* CallFunction */\012PUSHW[ ]	/* 4 values pushed */\01229 949 23 14 \012CALL[ ]	/* CallFunction */\012PUSHW[ ]	/* 1 value pushed */\01223 \012SRP0[ ]	/* SetRefPoint0 */\012PUSHW[ ]	/* 1 value pushed */\0124 \012MDRP[10000]	/* MoveDirectRelPt */\012PUSHW[ ]	/* 1 value pushed */\0124 \012MDAP[1]	/* MoveDirectAbsPt */\012PUSHW[ ]	/* 3 values pushed */\0125 10 47 \012SRP1[ ]	/* SetRefPoint1 */\012SRP2[ ]	/* SetRefPoint2 */\012IP[ ]	/* InterpolatePts */\012PUSHW[ ]	/* 3 values pushed */\01215 10 47 \012SRP1[ ]	/* SetRefPoint1 */\012SRP2[ ]	/* SetRefPoint2 */\012IP[ ]	/* InterpolatePts */\012PUSHW[ ]	/* 1 value pushed */\01210 \012SRP0[ ]	/* SetRefPoint0 */\012PUSHW[ ]	/* 1 value pushed */\01218 \012MDRP[10000]	/* MoveDirectRelPt */\012PUSHW[ ]	/* 1 value pushed */\01247 \012SRP0[ ]	/* SetRefPoint0 */\012PUSHW[ ]	/* 1 value pushed */\01228 \012MDRP[10000]	/* MoveDirectRelPt */\012IUP[0]	/* InterpolateUntPts */\012IUP[1]	/* InterpolateUntPts */";
};
width = 287;
}
);
note = asterisk;
unicode = 002A;
},
{
glyphname = plus;
lastChange = "2021-05-11 10:01:37 +0000";
layers = (
{
layerId = "0B90A97B-D71D-49C5-8F31-ED3EF6E28084";
paths = (
{
closed = 1;
nodes = (
"192.333 34 OFFCURVE",
"199.667 37.667 OFFCURVE",
"201 45 CURVE SMOOTH",
"209.5 97 LINE SMOOTH",
"211.833 112.333 OFFCURVE",
"214.333 125.667 OFFCURVE",
"217 137 CURVE",
"245 137 LINE SMOOTH",
"254.333 137 OFFCURVE",
"263.667 137.333 OFFCURVE",
"273 138 CURVE SMOOTH",
"303.667 138.667 OFFCURVE",
"319 142.333 OFFCURVE",
"319 149 CURVE SMOOTH",
"319 155.667 OFFCURVE",
"315 159 OFFCURVE",
"307 159 CURVE SMOOTH",
"221 159 LINE",
"229 205.667 OFFCURVE",
"235.667 240.333 OFFCURVE",
"241 259 CURVE SMOOTH",
"243 266.333 OFFCURVE",
"241.333 270 OFFCURVE",
"236 270 CURVE SMOOTH",
"228.667 270 OFFCURVE",
"224 265.333 OFFCURVE",
"222 256 CURVE SMOOTH",
"199 159 LINE",
"193.667 159 OFFCURVE",
"187.167 159 OFFCURVE",
"179.5 159 CURVE SMOOTH",
"152 160 LINE SMOOTH",
"141.333 160.667 OFFCURVE",
"132.333 161 OFFCURVE",
"125 161 CURVE SMOOTH",
"106 161 LINE SMOOTH",
"96 161 OFFCURVE",
"91 155 OFFCURVE",
"91 143 CURVE SMOOTH",
"91 133.667 OFFCURVE",
"93.333 129 OFFCURVE",
"98 129 CURVE SMOOTH",
"130.667 131.667 OFFCURVE",
"162 133.667 OFFCURVE",
"192 135 CURVE",
"169 45 LINE SMOOTH",
"167.667 37.667 OFFCURVE",
"171 34 OFFCURVE",
"179 34 CURVE SMOOTH"
);
}
);
userData = {
assembly = "PUSHW[ ]	/* 1 value pushed */\01210 \012CALL[ ]	/* CallFunction */\012SVTCA[0]	/* SetFreedomAndProjectionVectorToAxis */\012PUSHW[ ]	/* 1 value pushed */\01212 \012MDAP[1]	/* MoveDirectAbsPt */\012PUSHW[ ]	/* 1 value pushed */\012946 \012RCVT[ ]	/* ReadCVT */\012IF[ ]	/* If */\012PUSHW[ ]	/* 1 value pushed */\01230 \012MDAP[1]	/* MoveDirectAbsPt */\012ELSE[ ]	/* Else */\012PUSHW[ ]	/* 2 values pushed */\01230 957 \012MIAP[0]	/* MoveIndirectAbsPt */\012EIF[ ]	/* EndIf */\012PUSHW[ ]	/* 4 values pushed */\01224 947 15 14 \012CALL[ ]	/* CallFunction */\012PUSHW[ ]	/* 1 value pushed */\01224 \012SRP0[ ]	/* SetRefPoint0 */\012PUSHW[ ]	/* 1 value pushed */\0120 \012MDRP[10000]	/* MoveDirectRelPt */\012PUSHW[ ]	/* 1 value pushed */\0120 \012MDAP[1]	/* MoveDirectAbsPt */\012PUSHW[ ]	/* 1 value pushed */\01215 \012SRP0[ ]	/* SetRefPoint0 */\012PUSHW[ ]	/* 1 value pushed */\0124 \012MDRP[10000]	/* MoveDirectRelPt */\012PUSHW[ ]	/* 1 value pushed */\0124 \012MDAP[1]	/* MoveDirectAbsPt */\012PUSHW[ ]	/* 1 value pushed */\01215 \012SRP0[ ]	/* SetRefPoint0 */\012PUSHW[ ]	/* 1 value pushed */\0127 \012MDRP[10000]	/* MoveDirectRelPt */\012PUSHW[ ]	/* 1 value pushed */\0127 \012MDAP[1]	/* MoveDirectAbsPt */\012PUSHW[ ]	/* 1 value pushed */\01215 \012SRP0[ ]	/* SetRefPoint0 */\012PUSHW[ ]	/* 1 value pushed */\01217 \012MDRP[10000]	/* MoveDirectRelPt */\012PUSHW[ ]	/* 1 value pushed */\01217 \012MDAP[1]	/* MoveDirectAbsPt */\012PUSHW[ ]	/* 1 value pushed */\01224 \012SRP0[ ]	/* SetRefPoint0 */\012PUSHW[ ]	/* 1 value pushed */\01221 \012MDRP[10000]	/* MoveDirectRelPt */\012PUSHW[ ]	/* 1 value pushed */\01221 \012MDAP[1]	/* MoveDirectAbsPt */\012PUSHW[ ]	/* 1 value pushed */\01224 \012SRP0[ ]	/* SetRefPoint0 */\012PUSHW[ ]	/* 1 value pushed */\01227 \012MDRP[10000]	/* MoveDirectRelPt */\012PUSHW[ ]	/* 1 value pushed */\01227 \012MDAP[1]	/* MoveDirectAbsPt */\012IUP[0]	/* InterpolateUntPts */\012IUP[1]	/* InterpolateUntPts */";
};
width = 305;
}
);
note = plus;
unicode = 002B;
},
{
glyphname = comma;
lastChange = "2021-05-11 10:01:47 +0000";
layers = (
{
layerId = "0B90A97B-D71D-49C5-8F31-ED3EF6E28084";
paths = (
{
closed = 1;
nodes = (
"22 -103 OFFCURVE",
"29.333 -99.667 OFFCURVE",
"40 -93 CURVE SMOOTH",
"56 -83.667 OFFCURVE",
"74.667 -66.333 OFFCURVE",
"96 -41 CURVE SMOOTH",
"117 -15 OFFCURVE",
"128 6 OFFCURVE",
"128 20 CURVE SMOOTH",
"128 42 OFFCURVE",
"118 52 OFFCURVE",
"100 52 CURVE SMOOTH",
"80 52 OFFCURVE",
"61 38 OFFCURVE",
"61 19 CURVE SMOOTH",
"61 2.333 OFFCURVE",
"67 -7 OFFCURVE",
"79 -9 CURVE",
"45 -56 LINE SMOOTH",
"25 -83.333 OFFCURVE",
"15 -98.333 OFFCURVE",
"15 -101 CURVE SMOOTH",
"15 -102.333 OFFCURVE",
"16 -103 OFFCURVE",
"18 -103 CURVE SMOOTH"
);
}
);
userData = {
assembly = "PUSHW[ ]	/* 1 value pushed */\01210 \012CALL[ ]	/* CallFunction */\012SVTCA[0]	/* SetFreedomAndProjectionVectorToAxis */\012PUSHW[ ]	/* 1 value pushed */\0126 \012MDAP[1]	/* MoveDirectAbsPt */\012PUSHW[ ]	/* 1 value pushed */\0128 \012MDAP[1]	/* MoveDirectAbsPt */\012IUP[0]	/* InterpolateUntPts */\012IUP[1]	/* InterpolateUntPts */";
};
width = 155;
}
);
note = comma;
unicode = 002C;
},
{
glyphname = hyphen;
lastChange = "2021-05-11 11:18:23 +0000";
layers = (
{
layerId = "0B90A97B-D71D-49C5-8F31-ED3EF6E28084";
paths = (
{
closed = 1;
nodes = (
"45 112 OFFCURVE",
"47 112 OFFCURVE",
"49 112 CURVE SMOOTH",
"85.667 114.667 OFFCURVE",
"117.667 117.167 OFFCURVE",
"145 119.5 CURVE SMOOTH",
"213 125 LINE SMOOTH",
"233 125.667 OFFCURVE",
"243 128.667 OFFCURVE",
"243 134 CURVE SMOOTH",
"243 139.333 OFFCURVE",
"233 143 OFFCURVE",
"213 145 CURVE SMOOTH",
"163.667 151 OFFCURVE",
"129.333 154 OFFCURVE",
"110 154 CURVE SMOOTH",
"88.667 154 OFFCURVE",
"72 152 OFFCURVE",
"60 148 CURVE SMOOTH",
"34 138.667 OFFCURVE",
"21 129.333 OFFCURVE",
"21 120 CURVE SMOOTH",
"21 115 OFFCURVE",
"29 112 OFFCURVE",
"44 112 CURVE SMOOTH"
);
}
);
userData = {
assembly = "PUSHW[ ]	/* 1 value pushed */\01210 \012CALL[ ]	/* CallFunction */\012SVTCA[0]	/* SetFreedomAndProjectionVectorToAxis */\012PUSHW[ ]	/* 4 values pushed */\0129 949 3 14 \012CALL[ ]	/* CallFunction */\012IUP[0]	/* InterpolateUntPts */\012IUP[1]	/* InterpolateUntPts */";
};
width = 253;
}
);
note = hyphen;
unicode = 002D;
},
{
glyphname = period;
lastChange = "2021-05-11 10:01:37 +0000";
layers = (
{
layerId = "0B90A97B-D71D-49C5-8F31-ED3EF6E28084";
paths = (
{
closed = 1;
nodes = (
"114.333 -20 OFFCURVE",
"125 -10.333 OFFCURVE",
"125 9 CURVE SMOOTH",
"125 29.667 OFFCURVE",
"114.333 40 OFFCURVE",
"93 40 CURVE SMOOTH",
"71.667 40 OFFCURVE",
"61 29.667 OFFCURVE",
"61 9 CURVE SMOOTH",
"61 -10.333 OFFCURVE",
"71.667 -20 OFFCURVE",
"93 -20 CURVE SMOOTH"
);
}
);
userData = {
assembly = "PUSHW[ ]	/* 1 value pushed */\01210 \012CALL[ ]	/* CallFunction */\012PUSHW[ ]	/* 4 values pushed */\0120 952 4 14 \012CALL[ ]	/* CallFunction */\012NPUSHW[ ]	/* 21 values pushed */\012102 0 118 0 134 0 150 0 166 0 182 0 198 0 214 0 230 0 246 0 10 \012DELTAP1[ ]	/* DeltaExceptionP1 */\012NPUSHW[ ]	/* 7 values pushed */\0126 0 22 0 38 0 3 \012DELTAP2[ ]	/* DeltaExceptionP2 */\012NPUSHW[ ]	/* 5 values pushed */\01253 0 69 0 2 \012DELTAP2[ ]	/* DeltaExceptionP2 */\012SVTCA[0]	/* SetFreedomAndProjectionVectorToAxis */\012PUSHW[ ]	/* 3 values pushed */\0126 2 13 \012CALL[ ]	/* CallFunction */\012IUP[0]	/* InterpolateUntPts */\012IUP[1]	/* InterpolateUntPts */";
};
width = 160;
}
);
note = period;
unicode = 002E;
},
{
glyphname = slash;
lastChange = "2021-05-11 10:01:37 +0000";
layers = (
{
layerId = "0B90A97B-D71D-49C5-8F31-ED3EF6E28084";
paths = (
{
closed = 1;
nodes = (
"20 -27 OFFCURVE",
"23.667 -25.333 OFFCURVE",
"29 -22 CURVE SMOOTH",
"75.667 8.667 OFFCURVE",
"135 71.667 OFFCURVE",
"211 169 CURVE SMOOTH",
"295 277 OFFCURVE",
"357 353 OFFCURVE",
"397 397 CURVE SMOOTH",
"464.333 470.333 OFFCURVE",
"511.667 507 OFFCURVE",
"539 507 CURVE SMOOTH",
"543.667 507 OFFCURVE",
"549.167 505.5 OFFCURVE",
"555.5 502.5 CURVE SMOOTH",
"561.833 499.5 OFFCURVE",
"566 498 OFFCURVE",
"568 498 CURVE SMOOTH",
"571.333 498 OFFCURVE",
"573 499.667 OFFCURVE",
"573 503 CURVE SMOOTH",
"573 508.333 OFFCURVE",
"569.667 513 OFFCURVE",
"563 517 CURVE SMOOTH",
"551.667 523.667 OFFCURVE",
"539 527 OFFCURVE",
"525 527 CURVE SMOOTH",
"491.667 527 OFFCURVE",
"455 503.667 OFFCURVE",
"403 449 CURVE SMOOTH",
"351 394.333 OFFCURVE",
"283.667 309 OFFCURVE",
"189 185 CURVE",
"159 151 OFFCURVE",
"131.167 116.833 OFFCURVE",
"105.5 82.5 CURVE SMOOTH",
"79.833 48.167 OFFCURVE",
"51 16.333 OFFCURVE",
"19 -13 CURVE SMOOTH",
"15 -16.333 OFFCURVE",
"13 -19.667 OFFCURVE",
"13 -23 CURVE SMOOTH",
"13 -25.667 OFFCURVE",
"14.667 -27 OFFCURVE",
"18 -27 CURVE SMOOTH"
);
}
);
userData = {
assembly = "PUSHW[ ]	/* 1 value pushed */\01210 \012CALL[ ]	/* CallFunction */\012SVTCA[0]	/* SetFreedomAndProjectionVectorToAxis */\012PUSHW[ ]	/* 1 value pushed */\01214 \012MDAP[1]	/* MoveDirectAbsPt */\012PUSHW[ ]	/* 1 value pushed */\01216 \012MDAP[1]	/* MoveDirectAbsPt */\012PUSHW[ ]	/* 1 value pushed */\01218 \012MDAP[1]	/* MoveDirectAbsPt */\012PUSHW[ ]	/* 4 values pushed */\01228 948 7 14 \012CALL[ ]	/* CallFunction */\012IUP[0]	/* InterpolateUntPts */\012IUP[1]	/* InterpolateUntPts */";
};
width = 365;
}
);
note = slash;
unicode = 002F;
},
{
glyphname = zero;
lastChange = "2021-05-11 10:01:47 +0000";
layers = (
{
layerId = "0B90A97B-D71D-49C5-8F31-ED3EF6E28084";
paths = (
{
closed = 1;
nodes = (
"214 -29 OFFCURVE",
"263 -17 OFFCURVE",
"316 7 CURVE SMOOTH",
"386 37.667 OFFCURVE",
"442 76.667 OFFCURVE",
"484 124 CURVE SMOOTH",
"526 170.667 OFFCURVE",
"547 217.667 OFFCURVE",
"547 265 CURVE SMOOTH",
"547 335.667 OFFCURVE",
"499.333 369 OFFCURVE",
"404 365 CURVE SMOOTH",
"354.667 364.333 OFFCURVE",
"302.333 348.333 OFFCURVE",
"247 317 CURVE SMOOTH",
"204 293 OFFCURVE",
"184 275 OFFCURVE",
"184 264 CURVE SMOOTH",
"184 259 OFFCURVE",
"188 257 OFFCURVE",
"194 257 CURVE SMOOTH",
"196.667 257 OFFCURVE",
"198.667 258 OFFCURVE",
"200 260 CURVE",
"260 310.667 OFFCURVE",
"326.667 339.667 OFFCURVE",
"400 347 CURVE SMOOTH",
"475.333 353 OFFCURVE",
"513 329.333 OFFCURVE",
"513 276 CURVE SMOOTH",
"513 249.333 OFFCURVE",
"503.333 219.333 OFFCURVE",
"484 186 CURVE SMOOTH",
"466 156.667 OFFCURVE",
"445.667 132 OFFCURVE",
"423 112 CURVE SMOOTH",
"333.667 31.333 OFFCURVE",
"246.333 -9 OFFCURVE",
"161 -9 CURVE SMOOTH",
"78.333 -9 OFFCURVE",
"37 25.333 OFFCURVE",
"37 94 CURVE SMOOTH",
"37 128.667 OFFCURVE",
"47.667 165.333 OFFCURVE",
"69 204 CURVE SMOOTH",
"107.667 273.333 OFFCURVE",
"163 326 OFFCURVE",
"263 362 CURVE SMOOTH",
"307.667 378 OFFCURVE",
"353 388 OFFCURVE",
"399 392 CURVE SMOOTH",
"407 392.667 OFFCURVE",
"411 395.333 OFFCURVE",
"411 400 CURVE SMOOTH",
"411 405.333 OFFCURVE",
"400.333 408 OFFCURVE",
"379 408 CURVE SMOOTH",
"336.333 408 OFFCURVE",
"285.667 396 OFFCURVE",
"227 372 CURVE SMOOTH",
"104.333 322.667 OFFCURVE",
"31.667 251.667 OFFCURVE",
"9 159 CURVE SMOOTH",
"5 143 OFFCURVE",
"3 127.333 OFFCURVE",
"3 112 CURVE SMOOTH",
"3 67.333 OFFCURVE",
"19 32.667 OFFCURVE",
"51 8 CURVE SMOOTH",
"81 -17 OFFCURVE",
"120 -29 OFFCURVE",
"168 -29 CURVE SMOOTH"
);
}
);
userData = {
assembly = "PUSHW[ ]	/* 1 value pushed */\01210 \012CALL[ ]	/* CallFunction */\012PUSHW[ ]	/* 1 value pushed */\01249 \012MDAP[1]	/* MoveDirectAbsPt */\012PUSHW[ ]	/* 1 value pushed */\01231 \012MDAP[1]	/* MoveDirectAbsPt */\012PUSHW[ ]	/* 1 value pushed */\01249 \012SRP0[ ]	/* SetRefPoint0 */\012PUSHW[ ]	/* 1 value pushed */\0126 \012MDRP[10000]	/* MoveDirectRelPt */\012PUSHW[ ]	/* 1 value pushed */\0126 \012MDAP[1]	/* MoveDirectAbsPt */\012PUSHW[ ]	/* 1 value pushed */\0128 \012MDRP[10000]	/* MoveDirectRelPt */\012PUSHW[ ]	/* 1 value pushed */\0128 \012MDAP[1]	/* MoveDirectAbsPt */\012PUSHW[ ]	/* 1 value pushed */\0126 \012SRP0[ ]	/* SetRefPoint0 */\012PUSHW[ ]	/* 2 values pushed */\01223 951 \012MIRP[10100]	/* MoveIndirectRelPt */\012NPUSHW[ ]	/* 21 values pushed */\012102 23 118 23 134 23 150 23 166 23 182 23 198 23 214 23 230 23 246 23 10 \012DELTAP1[ ]	/* DeltaExceptionP1 */\012NPUSHW[ ]	/* 33 values pushed */\0126 23 22 23 38 23 54 23 70 23 86 23 102 23 118 23 134 23 150 23 166 23 182 23 198 23 214 23 230 23 246 23 16 \012DELTAP2[ ]	/* DeltaExceptionP2 */\012NPUSHW[ ]	/* 21 values pushed */\0126 23 22 23 38 23 54 23 70 23 86 23 102 23 118 23 134 23 150 23 10 \012DELTAP3[ ]	/* DeltaExceptionP3 */\012NPUSHW[ ]	/* 5 values pushed */\012165 23 181 23 2 \012DELTAP3[ ]	/* DeltaExceptionP3 */\012NPUSHW[ ]	/* 5 values pushed */\012170 31 186 31 2 \012DELTAP3[ ]	/* DeltaExceptionP3 */\012NPUSHW[ ]	/* 21 values pushed */\012105 31 121 31 137 31 153 31 169 31 185 31 201 31 217 31 233 31 249 31 10 \012DELTAP1[ ]	/* DeltaExceptionP1 */\012NPUSHW[ ]	/* 33 values pushed */\0129 31 25 31 41 31 57 31 73 31 89 31 105 31 121 31 137 31 153 31 169 31 185 31 201 31 217 31 233 31 249 31 16 \012DELTAP2[ ]	/* DeltaExceptionP2 */\012NPUSHW[ ]	/* 21 values pushed */\0129 31 25 31 41 31 57 31 73 31 89 31 105 31 121 31 137 31 153 31 10 \012DELTAP3[ ]	/* DeltaExceptionP3 */\012PUSHW[ ]	/* 1 value pushed */\01231 \012SRP0[ ]	/* SetRefPoint0 */\012PUSHW[ ]	/* 2 values pushed */\01245 951 \012MIRP[10100]	/* MoveIndirectRelPt */\012PUSHW[ ]	/* 1 value pushed */\01250 \012MDRP[11100]	/* MoveDirectRelPt */\012SVTCA[0]	/* SetFreedomAndProjectionVectorToAxis */\012PUSHW[ ]	/* 4 values pushed */\01225 948 2 14 \012CALL[ ]	/* CallFunction */\012PUSHW[ ]	/* 3 values pushed */\01212 33 13 \012CALL[ ]	/* CallFunction */\012IUP[0]	/* InterpolateUntPts */\012IUP[1]	/* InterpolateUntPts */";
};
width = 547;
}
);
note = zero;
unicode = 0030;
},
{
glyphname = one;
lastChange = "2021-05-11 10:01:37 +0000";
layers = (
{
layerId = "0B90A97B-D71D-49C5-8F31-ED3EF6E28084";
paths = (
{
closed = 1;
nodes = (
"55.667 -7 OFFCURVE",
"60.333 -4.667 OFFCURVE",
"61 0 CURVE",
"87.667 68 OFFCURVE",
"124.667 142.333 OFFCURVE",
"170 225 CURVE SMOOTH",
"209.333 297 OFFCURVE",
"243 351.333 OFFCURVE",
"271 388 CURVE",
"271 391 LINE SMOOTH",
"271 403 OFFCURVE",
"255.667 413 OFFCURVE",
"245 413 CURVE SMOOTH",
"241.667 413 OFFCURVE",
"239 412.667 OFFCURVE",
"237 412 CURVE",
"115 292 LINE SMOOTH",
"107 284 OFFCURVE",
"103 278.333 OFFCURVE",
"103 275 CURVE SMOOTH",
"103 272.333 OFFCURVE",
"104 271 OFFCURVE",
"106 271 CURVE SMOOTH",
"108 271 OFFCURVE",
"111.667 273 OFFCURVE",
"117 277 CURVE SMOOTH",
"135.667 294.333 OFFCURVE",
"156.333 310 OFFCURVE",
"179 324 CURVE",
"160.333 274.667 OFFCURVE",
"138.667 222 OFFCURVE",
"112 166 CURVE SMOOTH",
"38 11 LINE SMOOTH",
"36.667 7 OFFCURVE",
"36 4.333 OFFCURVE",
"36 3 CURVE SMOOTH",
"36 -3.667 OFFCURVE",
"39.667 -7 OFFCURVE",
"47 -7 CURVE SMOOTH"
);
}
);
userData = {
assembly = "PUSHW[ ]	/* 1 value pushed */\01210 \012CALL[ ]	/* CallFunction */\012SVTCA[0]	/* SetFreedomAndProjectionVectorToAxis */\012PUSHW[ ]	/* 1 value pushed */\01224 \012MDAP[1]	/* MoveDirectAbsPt */\012PUSHW[ ]	/* 1 value pushed */\01226 \012MDAP[1]	/* MoveDirectAbsPt */\012PUSHW[ ]	/* 1 value pushed */\0125 \012MDAP[1]	/* MoveDirectAbsPt */\012PUSHW[ ]	/* 1 value pushed */\0127 \012MDAP[1]	/* MoveDirectAbsPt */\012PUSHW[ ]	/* 1 value pushed */\012946 \012RCVT[ ]	/* ReadCVT */\012IF[ ]	/* If */\012PUSHW[ ]	/* 1 value pushed */\01217 \012MDAP[1]	/* MoveDirectAbsPt */\012ELSE[ ]	/* Else */\012PUSHW[ ]	/* 2 values pushed */\01217 957 \012MIAP[0]	/* MoveIndirectAbsPt */\012EIF[ ]	/* EndIf */\012PUSHW[ ]	/* 1 value pushed */\012946 \012RCVT[ ]	/* ReadCVT */\012IF[ ]	/* If */\012PUSHW[ ]	/* 1 value pushed */\01219 \012MDAP[1]	/* MoveDirectAbsPt */\012ELSE[ ]	/* Else */\012PUSHW[ ]	/* 2 values pushed */\01219 957 \012MIAP[0]	/* MoveIndirectAbsPt */\012EIF[ ]	/* EndIf */\012PUSHW[ ]	/* 1 value pushed */\012946 \012RCVT[ ]	/* ReadCVT */\012IF[ ]	/* If */\012PUSHW[ ]	/* 1 value pushed */\01221 \012MDAP[1]	/* MoveDirectAbsPt */\012ELSE[ ]	/* Else */\012PUSHW[ ]	/* 2 values pushed */\01221 957 \012MIAP[0]	/* MoveIndirectAbsPt */\012EIF[ ]	/* EndIf */\012PUSHW[ ]	/* 3 values pushed */\01215 7 26 \012SRP1[ ]	/* SetRefPoint1 */\012SRP2[ ]	/* SetRefPoint2 */\012IP[ ]	/* InterpolatePts */\012IUP[0]	/* InterpolateUntPts */\012IUP[1]	/* InterpolateUntPts */";
};
width = 244;
}
);
note = one;
unicode = 0031;
},
{
glyphname = two;
lastChange = "2021-05-11 11:18:23 +0000";
layers = (
{
layerId = "0B90A97B-D71D-49C5-8F31-ED3EF6E28084";
paths = (
{
closed = 1;
nodes = (
"281 -34 OFFCURVE",
"283 -34 OFFCURVE",
"285 -33 CURVE SMOOTH",
"300 -27 OFFCURVE",
"309 -15 OFFCURVE",
"309 2 CURVE SMOOTH",
"309 37 OFFCURVE",
"247 55 OFFCURVE",
"123 55 CURVE",
"132.333 64.333 OFFCURVE",
"162.333 85.667 OFFCURVE",
"213 119 CURVE SMOOTH",
"262 149.5 LINE SMOOTH",
"276 158.5 OFFCURVE",
"287.667 165.667 OFFCURVE",
"297 171 CURVE SMOOTH",
"379 221.667 OFFCURVE",
"420 275 OFFCURVE",
"420 331 CURVE SMOOTH",
"420 377.667 OFFCURVE",
"389.667 407 OFFCURVE",
"343 407 CURVE SMOOTH",
"295.667 407 OFFCURVE",
"252.667 392.333 OFFCURVE",
"214 363 CURVE SMOOTH",
"176 333.667 OFFCURVE",
"152.667 297.667 OFFCURVE",
"144 255 CURVE SMOOTH",
"143.333 253 OFFCURVE",
"143 251 OFFCURVE",
"143 249 CURVE SMOOTH",
"143 245.667 OFFCURVE",
"144 244 OFFCURVE",
"146 244 CURVE SMOOTH",
"150 244 OFFCURVE",
"153 247 OFFCURVE",
"155 253 CURVE SMOOTH",
"166.333 286.333 OFFCURVE",
"193 317.333 OFFCURVE",
"235 346 CURVE SMOOTH",
"278.333 375.333 OFFCURVE",
"317 390 OFFCURVE",
"351 390 CURVE SMOOTH",
"382.333 390 OFFCURVE",
"398 376.667 OFFCURVE",
"398 350 CURVE SMOOTH",
"398 314.667 OFFCURVE",
"372.333 272 OFFCURVE",
"321 222 CURVE SMOOTH",
"287 188.667 OFFCURVE",
"247 156.667 OFFCURVE",
"201 126 CURVE SMOOTH",
"141 85.333 OFFCURVE",
"89 58 OFFCURVE",
"45 44 CURVE",
"20.991 44 OFFCURVE",
"-9 21.055 OFFCURVE",
"-9 0 CURVE SMOOTH",
"-9 -7.333 OFFCURVE",
"-4.333 -11 OFFCURVE",
"5 -11 CURVE SMOOTH",
"10.333 -11 OFFCURVE",
"18 -9 OFFCURVE",
"28 -5 CURVE SMOOTH",
"100.667 21.667 OFFCURVE",
"156.333 35.667 OFFCURVE",
"195 37 CURVE SMOOTH",
"211 37 OFFCURVE",
"231 34 OFFCURVE",
"255 28 CURVE SMOOTH",
"285.667 20 OFFCURVE",
"301 10.333 OFFCURVE",
"301 -1 CURVE SMOOTH",
"301 -7.667 OFFCURVE",
"294.667 -14 OFFCURVE",
"282 -20 CURVE SMOOTH",
"277.333 -22 OFFCURVE",
"275 -24.333 OFFCURVE",
"275 -27 CURVE SMOOTH",
"275 -32 OFFCURVE",
"277 -34 OFFCURVE",
"280 -34 CURVE SMOOTH"
);
}
);
userData = {
assembly = "PUSHW[ ]	/* 1 value pushed */\01210 \012CALL[ ]	/* CallFunction */\012PUSHW[ ]	/* 4 values pushed */\01246 951 27 14 \012CALL[ ]	/* CallFunction */\012NPUSHW[ ]	/* 5 values pushed */\012170 27 186 27 2 \012DELTAP3[ ]	/* DeltaExceptionP3 */\012NPUSHW[ ]	/* 21 values pushed */\012105 27 121 27 137 27 153 27 169 27 185 27 201 27 217 27 233 27 249 27 10 \012DELTAP1[ ]	/* DeltaExceptionP1 */\012NPUSHW[ ]	/* 33 values pushed */\0129 27 25 27 41 27 57 27 73 27 89 27 105 27 121 27 137 27 153 27 169 27 185 27 201 27 217 27 233 27 249 27 16 \012DELTAP2[ ]	/* DeltaExceptionP2 */\012NPUSHW[ ]	/* 21 values pushed */\0129 27 25 27 41 27 57 27 73 27 89 27 105 27 121 27 137 27 153 27 10 \012DELTAP3[ ]	/* DeltaExceptionP3 */\012PUSHW[ ]	/* 1 value pushed */\01246 \012SRP0[ ]	/* SetRefPoint0 */\012PUSHW[ ]	/* 1 value pushed */\01258 \012MDRP[11100]	/* MoveDirectRelPt */\012SVTCA[0]	/* SetFreedomAndProjectionVectorToAxis */\012PUSHW[ ]	/* 1 value pushed */\01243 \012MDAP[1]	/* MoveDirectAbsPt */\012IUP[0]	/* InterpolateUntPts */\012IUP[1]	/* InterpolateUntPts */";
};
width = 377;
}
);
note = two;
unicode = 0032;
},
{
glyphname = three;
lastChange = "2021-05-11 10:01:47 +0000";
layers = (
{
layerId = "0B90A97B-D71D-49C5-8F31-ED3EF6E28084";
paths = (
{
closed = 1;
nodes = (
"170.667 -39 OFFCURVE",
"222 -27.667 OFFCURVE",
"268 -5 CURVE SMOOTH",
"320.667 19.667 OFFCURVE",
"347 50.333 OFFCURVE",
"347 87 CURVE SMOOTH",
"347 139.667 OFFCURVE",
"302.667 168 OFFCURVE",
"214 172 CURVE",
"300.667 186 OFFCURVE",
"363.333 210.667 OFFCURVE",
"402 246 CURVE SMOOTH",
"426 268.667 OFFCURVE",
"438 291.667 OFFCURVE",
"438 315 CURVE SMOOTH",
"438 342.333 OFFCURVE",
"421.667 365.333 OFFCURVE",
"389 384 CURVE SMOOTH",
"357.667 402.667 OFFCURVE",
"318.667 412 OFFCURVE",
"272 412 CURVE SMOOTH",
"229.333 412 OFFCURVE",
"187.667 403.333 OFFCURVE",
"147 386 CURVE SMOOTH",
"98 365 OFFCURVE",
"72 332 OFFCURVE",
"72 289 CURVE SMOOTH",
"72 280 OFFCURVE",
"74 276 OFFCURVE",
"79 276 CURVE SMOOTH",
"83 276 OFFCURVE",
"85.667 281 OFFCURVE",
"87 291 CURVE SMOOTH",
"88.333 320.333 OFFCURVE",
"110.333 345 OFFCURVE",
"153 365 CURVE SMOOTH",
"191.667 383 OFFCURVE",
"234.333 392 OFFCURVE",
"281 392 CURVE SMOOTH",
"313 392 OFFCURVE",
"341.667 384 OFFCURVE",
"367 368 CURVE SMOOTH",
"393 352 OFFCURVE",
"406 332.333 OFFCURVE",
"406 309 CURVE SMOOTH",
"406 289 OFFCURVE",
"395 268.667 OFFCURVE",
"373 248 CURVE SMOOTH",
"349.667 225.333 OFFCURVE",
"313 208 OFFCURVE",
"263 196 CURVE SMOOTH",
"223 186 OFFCURVE",
"182.667 181.667 OFFCURVE",
"142 183 CURVE SMOOTH",
"126.667 184.333 OFFCURVE",
"119 180.667 OFFCURVE",
"119 172 CURVE SMOOTH",
"119 166 OFFCURVE",
"123 163 OFFCURVE",
"131 163 CURVE SMOOTH",
"133 163 OFFCURVE",
"134 163 OFFCURVE",
"136 163 CURVE SMOOTH",
"162 164.333 OFFCURVE",
"190.333 161 OFFCURVE",
"221 153 CURVE SMOOTH",
"275 139.667 OFFCURVE",
"302 117 OFFCURVE",
"302 85 CURVE SMOOTH",
"302 54.333 OFFCURVE",
"281 29 OFFCURVE",
"239 9 CURVE SMOOTH",
"201.667 -9 OFFCURVE",
"160 -18 OFFCURVE",
"114 -18 CURVE SMOOTH",
"51 -18 OFFCURVE",
"18 -2 OFFCURVE",
"18 30 CURVE SMOOTH",
"18 39 OFFCURVE",
"21 47 OFFCURVE",
"29 55 CURVE SMOOTH",
"35 63 OFFCURVE",
"43 67 OFFCURVE",
"53 67 CURVE",
"60.333 68.333 OFFCURVE",
"64 70 OFFCURVE",
"64 72 CURVE SMOOTH",
"64 74.667 OFFCURVE",
"60.333 76 OFFCURVE",
"53 76 CURVE",
"19 71 OFFCURVE",
"-1 49 OFFCURVE",
"-1 25 CURVE SMOOTH",
"-1 -18 OFFCURVE",
"38 -39 OFFCURVE",
"114 -39 CURVE SMOOTH"
);
}
);
userData = {
assembly = "PUSHW[ ]	/* 1 value pushed */\01210 \012CALL[ ]	/* CallFunction */\012PUSHW[ ]	/* 1 value pushed */\01263 \012MDAP[1]	/* MoveDirectAbsPt */\012PUSHW[ ]	/* 1 value pushed */\01251 \012MDAP[1]	/* MoveDirectAbsPt */\012NPUSHW[ ]	/* 5 values pushed */\012170 51 186 51 2 \012DELTAP3[ ]	/* DeltaExceptionP3 */\012NPUSHW[ ]	/* 21 values pushed */\012105 51 121 51 137 51 153 51 169 51 185 51 201 51 217 51 233 51 249 51 10 \012DELTAP1[ ]	/* DeltaExceptionP1 */\012NPUSHW[ ]	/* 33 values pushed */\0129 51 25 51 41 51 57 51 73 51 89 51 105 51 121 51 137 51 153 51 169 51 185 51 201 51 217 51 233 51 249 51 16 \012DELTAP2[ ]	/* DeltaExceptionP2 */\012NPUSHW[ ]	/* 21 values pushed */\0129 51 25 51 41 51 57 51 73 51 89 51 105 51 121 51 137 51 153 51 10 \012DELTAP3[ ]	/* DeltaExceptionP3 */\012PUSHW[ ]	/* 2 values pushed */\0128 951 \012MIRP[10100]	/* MoveIndirectRelPt */\012PUSHW[ ]	/* 1 value pushed */\01251 \012SRP0[ ]	/* SetRefPoint0 */\012PUSHW[ ]	/* 1 value pushed */\01210 \012MDRP[10000]	/* MoveDirectRelPt */\012PUSHW[ ]	/* 1 value pushed */\01210 \012MDAP[1]	/* MoveDirectAbsPt */\012PUSHW[ ]	/* 1 value pushed */\01263 \012SRP0[ ]	/* SetRefPoint0 */\012PUSHW[ ]	/* 1 value pushed */\01237 \012MDRP[10000]	/* MoveDirectRelPt */\012PUSHW[ ]	/* 1 value pushed */\01237 \012MDAP[1]	/* MoveDirectAbsPt */\012PUSHW[ ]	/* 2 values pushed */\01214 950 \012MIRP[10100]	/* MoveIndirectRelPt */\012NPUSHW[ ]	/* 21 values pushed */\012102 14 118 14 134 14 150 14 166 14 182 14 198 14 214 14 230 14 246 14 10 \012DELTAP1[ ]	/* DeltaExceptionP1 */\012NPUSHW[ ]	/* 33 values pushed */\0126 14 22 14 38 14 54 14 70 14 86 14 102 14 118 14 134 14 150 14 166 14 182 14 198 14 214 14 230 14 246 14 16 \012DELTAP2[ ]	/* DeltaExceptionP2 */\012NPUSHW[ ]	/* 21 values pushed */\0126 14 22 14 38 14 54 14 70 14 86 14 102 14 118 14 134 14 150 14 10 \012DELTAP3[ ]	/* DeltaExceptionP3 */\012NPUSHW[ ]	/* 5 values pushed */\012165 14 181 14 2 \012DELTAP3[ ]	/* DeltaExceptionP3 */\012PUSHW[ ]	/* 1 value pushed */\0128 \012SRP0[ ]	/* SetRefPoint0 */\012PUSHW[ ]	/* 1 value pushed */\01264 \012MDRP[11100]	/* MoveDirectRelPt */\012SVTCA[0]	/* SetFreedomAndProjectionVectorToAxis */\012PUSHW[ ]	/* 4 values pushed */\01233 948 18 14 \012CALL[ ]	/* CallFunction */\012PUSHW[ ]	/* 4 values pushed */\0124 948 55 14 \012CALL[ ]	/* CallFunction */\012PUSHW[ ]	/* 1 value pushed */\01218 \012SRP0[ ]	/* SetRefPoint0 */\012PUSHW[ ]	/* 1 value pushed */\01243 \012MDRP[11100]	/* MoveDirectRelPt */\012PUSHW[ ]	/* 1 value pushed */\01212 \012MDRP[10000]	/* MoveDirectRelPt */\012IUP[0]	/* InterpolateUntPts */\012IUP[1]	/* InterpolateUntPts */";
};
width = 377;
}
);
note = three;
unicode = 0033;
},
{
glyphname = four;
lastChange = "2021-05-11 10:01:37 +0000";
layers = (
{
layerId = "0B90A97B-D71D-49C5-8F31-ED3EF6E28084";
paths = (
{
closed = 1;
nodes = (
"141.667 -31.667 OFFCURVE",
"144 -28 OFFCURVE",
"146 -24 CURVE SMOOTH",
"152 -12 LINE",
"177 41 LINE SMOOTH",
"202.333 94.333 OFFCURVE",
"222.333 135 OFFCURVE",
"237 163 CURVE",
"247 163 LINE",
"249.667 163.667 OFFCURVE",
"252.667 164 OFFCURVE",
"256 164 CURVE SMOOTH",
"257.333 164 OFFCURVE",
"260.667 163.667 OFFCURVE",
"266 163 CURVE SMOOTH",
"287 160 LINE",
"304 157 LINE",
"309 156 LINE SMOOTH",
"311 156 OFFCURVE",
"312 157 OFFCURVE",
"312 159 CURVE SMOOTH",
"312 156 LINE",
"318 156 OFFCURVE",
"321 159 OFFCURVE",
"321 165 CURVE SMOOTH",
"321 171.667 OFFCURVE",
"313 177 OFFCURVE",
"297 181 CURVE",
"285 181.667 OFFCURVE",
"273 183.667 OFFCURVE",
"261 187 CURVE SMOOTH",
"253 189 LINE",
"253 194.333 OFFCURVE",
"270.667 225.333 OFFCURVE",
"306 282 CURVE SMOOTH",
"340 336.667 OFFCURVE",
"361.667 368 OFFCURVE",
"371 376 CURVE",
"371 391 LINE SMOOTH",
"371 416.333 OFFCURVE",
"364.333 429 OFFCURVE",
"351 429 CURVE",
"316.333 386.333 OFFCURVE",
"272.667 343.667 OFFCURVE",
"218 305 CURVE SMOOTH",
"166.667 267.667 OFFCURVE",
"105.667 225.667 OFFCURVE",
"35 179 CURVE SMOOTH",
"17.667 167.667 OFFCURVE",
"9 159 OFFCURVE",
"9 153 CURVE SMOOTH",
"9 143.667 OFFCURVE",
"14 139 OFFCURVE",
"24 139 CURVE",
"78 156.333 OFFCURVE",
"135.333 165 OFFCURVE",
"196 165 CURVE SMOOTH",
"201.333 165 OFFCURVE",
"204.333 164.667 OFFCURVE",
"205 164 CURVE",
"161 69 LINE SMOOTH",
"138.333 21 OFFCURVE",
"127 -8.333 OFFCURVE",
"127 -19 CURVE SMOOTH",
"127 -29.667 OFFCURVE",
"131 -35 OFFCURVE",
"139 -35 CURVE"
);
},
{
closed = 1;
nodes = (
"216.333 192.667 OFFCURVE",
"214.333 193 OFFCURVE",
"211 193 CURVE SMOOTH",
"194 194 LINE SMOOTH",
"188.667 194.667 OFFCURVE",
"183.167 195 OFFCURVE",
"177.5 195 CURVE SMOOTH",
"159 195 LINE",
"103 195 LINE",
"193.667 267 OFFCURVE",
"260.333 317.333 OFFCURVE",
"307 352 CURVE",
"256.333 245.333 OFFCURVE",
"226.333 192 OFFCURVE",
"217 192 CURVE"
);
}
);
userData = {
assembly = "PUSHW[ ]	/* 1 value pushed */\01210 \012CALL[ ]	/* CallFunction */\012SVTCA[0]	/* SetFreedomAndProjectionVectorToAxis */\012PUSHW[ ]	/* 1 value pushed */\01247 \012MDAP[1]	/* MoveDirectAbsPt */\012PUSHW[ ]	/* 1 value pushed */\01229 \012MDAP[1]	/* MoveDirectAbsPt */\012PUSHW[ ]	/* 4 values pushed */\01254 949 36 14 \012CALL[ ]	/* CallFunction */\012PUSHW[ ]	/* 1 value pushed */\01236 \012SRP0[ ]	/* SetRefPoint0 */\012PUSHW[ ]	/* 1 value pushed */\01219 \012MDRP[10000]	/* MoveDirectRelPt */\012PUSHW[ ]	/* 1 value pushed */\01219 \012MDAP[1]	/* MoveDirectAbsPt */\012PUSHW[ ]	/* 1 value pushed */\01236 \012SRP0[ ]	/* SetRefPoint0 */\012PUSHW[ ]	/* 1 value pushed */\01221 \012MDRP[10000]	/* MoveDirectRelPt */\012PUSHW[ ]	/* 1 value pushed */\01221 \012MDAP[1]	/* MoveDirectAbsPt */\012PUSHW[ ]	/* 3 values pushed */\01250 29 47 \012SRP1[ ]	/* SetRefPoint1 */\012SRP2[ ]	/* SetRefPoint2 */\012IP[ ]	/* InterpolatePts */\012PUSHW[ ]	/* 1 value pushed */\01254 \012SRP0[ ]	/* SetRefPoint0 */\012PUSHW[ ]	/* 1 value pushed */\01257 \012MDRP[10000]	/* MoveDirectRelPt */\012PUSHW[ ]	/* 1 value pushed */\01257 \012MDAP[1]	/* MoveDirectAbsPt */\012PUSHW[ ]	/* 1 value pushed */\01254 \012SRP0[ ]	/* SetRefPoint0 */\012PUSHW[ ]	/* 1 value pushed */\01260 \012MDRP[10000]	/* MoveDirectRelPt */\012PUSHW[ ]	/* 1 value pushed */\01260 \012MDAP[1]	/* MoveDirectAbsPt */\012IUP[0]	/* InterpolateUntPts */\012IUP[1]	/* InterpolateUntPts */";
};
width = 368;
}
);
note = four;
unicode = 0034;
},
{
glyphname = five;
lastChange = "2021-05-11 10:01:37 +0000";
layers = (
{
layerId = "0B90A97B-D71D-49C5-8F31-ED3EF6E28084";
paths = (
{
closed = 1;
nodes = (
"158.333 -27 OFFCURVE",
"207.333 -3.667 OFFCURVE",
"254 43 CURVE SMOOTH",
"300.667 89.667 OFFCURVE",
"324 139 OFFCURVE",
"324 191 CURVE SMOOTH",
"324 247 OFFCURVE",
"290.333 275 OFFCURVE",
"223 275 CURVE SMOOTH",
"199.667 275 OFFCURVE",
"172.333 269.667 OFFCURVE",
"141 259 CURVE",
"158.333 292.333 OFFCURVE",
"173.667 316.333 OFFCURVE",
"187 331 CURVE",
"187 332.333 OFFCURVE",
"189 333 OFFCURVE",
"193 333 CURVE",
"199 335 LINE",
"204 335 LINE",
"227.333 344.333 OFFCURVE",
"259.667 351 OFFCURVE",
"301 355 CURVE SMOOTH",
"317.667 357 OFFCURVE",
"351 359 OFFCURVE",
"401 361 CURVE",
"401 376 LINE",
"385.667 379.333 OFFCURVE",
"370 381 OFFCURVE",
"354 381 CURVE SMOOTH",
"336.667 381 OFFCURVE",
"311.667 379.333 OFFCURVE",
"277 374 CURVE SMOOTH",
"243.667 370 OFFCURVE",
"218.333 368 OFFCURVE",
"201 368 CURVE SMOOTH",
"187 369 LINE",
"172 369 LINE SMOOTH",
"168.667 369 OFFCURVE",
"162 365 OFFCURVE",
"152 357 CURVE SMOOTH",
"132 341 LINE",
"132 334.333 OFFCURVE",
"137 328.667 OFFCURVE",
"147 324 CURVE",
"141.667 309.333 OFFCURVE",
"130.333 285 OFFCURVE",
"109 253 CURVE SMOOTH",
"85 220 LINE",
"77 208 LINE",
"73 200 LINE SMOOTH",
"71.667 198 OFFCURVE",
"71 195.667 OFFCURVE",
"71 193 CURVE SMOOTH",
"71 183 OFFCURVE",
"77 178 OFFCURVE",
"89 178 CURVE SMOOTH",
"93 178 OFFCURVE",
"96.667 179 OFFCURVE",
"100 181 CURVE",
"104 185 LINE SMOOTH",
"146.667 227.667 OFFCURVE",
"182.667 249 OFFCURVE",
"212 249 CURVE SMOOTH",
"264 249 OFFCURVE",
"284 232.333 OFFCURVE",
"284 183 CURVE SMOOTH",
"284 156.333 OFFCURVE",
"273 126 OFFCURVE",
"251 92 CURVE SMOOTH",
"209.667 28.667 OFFCURVE",
"160 -3 OFFCURVE",
"102 -3 CURVE SMOOTH",
"50.667 -3 OFFCURVE",
"25 23 OFFCURVE",
"25 75 CURVE SMOOTH",
"25 87.346 OFFCURVE",
"36 109.375 OFFCURVE",
"36 115 CURVE SMOOTH",
"36 121.667 OFFCURVE",
"33 125 OFFCURVE",
"27 125 CURVE SMOOTH",
"23 125 OFFCURVE",
"17.667 117 OFFCURVE",
"11 101 CURVE SMOOTH",
"4.333 85.667 OFFCURVE",
"1 75 OFFCURVE",
"1 69 CURVE SMOOTH",
"1 12.675 OFFCURVE",
"50.187 -27 OFFCURVE",
"107 -27 CURVE SMOOTH"
);
}
);
userData = {
assembly = "PUSHW[ ]	/* 1 value pushed */\01210 \012CALL[ ]	/* CallFunction */\012PUSHW[ ]	/* 4 values pushed */\01235 951 24 14 \012CALL[ ]	/* CallFunction */\012PUSHW[ ]	/* 4 values pushed */\01215 950 41 14 \012CALL[ ]	/* CallFunction */\012PUSHW[ ]	/* 3 values pushed */\01211 24 15 \012SRP1[ ]	/* SetRefPoint1 */\012SRP2[ ]	/* SetRefPoint2 */\012IP[ ]	/* InterpolatePts */\012NPUSHW[ ]	/* 21 values pushed */\012102 35 118 35 134 35 150 35 166 35 182 35 198 35 214 35 230 35 246 35 10 \012DELTAP1[ ]	/* DeltaExceptionP1 */\012NPUSHW[ ]	/* 33 values pushed */\0126 35 22 35 38 35 54 35 70 35 86 35 102 35 118 35 134 35 150 35 166 35 182 35 198 35 214 35 230 35 246 35 16 \012DELTAP2[ ]	/* DeltaExceptionP2 */\012NPUSHW[ ]	/* 21 values pushed */\0126 35 22 35 38 35 54 35 70 35 86 35 102 35 118 35 134 35 150 35 10 \012DELTAP3[ ]	/* DeltaExceptionP3 */\012NPUSHW[ ]	/* 5 values pushed */\012165 35 181 35 2 \012DELTAP3[ ]	/* DeltaExceptionP3 */\012NPUSHW[ ]	/* 5 values pushed */\012170 41 186 41 2 \012DELTAP3[ ]	/* DeltaExceptionP3 */\012NPUSHW[ ]	/* 21 values pushed */\012105 41 121 41 137 41 153 41 169 41 185 41 201 41 217 41 233 41 249 41 10 \012DELTAP1[ ]	/* DeltaExceptionP1 */\012NPUSHW[ ]	/* 33 values pushed */\0129 41 25 41 41 41 57 41 73 41 89 41 105 41 121 41 137 41 153 41 169 41 185 41 201 41 217 41 233 41 249 41 16 \012DELTAP2[ ]	/* DeltaExceptionP2 */\012NPUSHW[ ]	/* 21 values pushed */\0129 41 25 41 41 41 57 41 73 41 89 41 105 41 121 41 137 41 153 41 10 \012DELTAP3[ ]	/* DeltaExceptionP3 */\012PUSHW[ ]	/* 1 value pushed */\01215 \012SRP0[ ]	/* SetRefPoint0 */\012PUSHW[ ]	/* 1 value pushed */\01275 \012MDRP[11100]	/* MoveDirectRelPt */\012SVTCA[0]	/* SetFreedomAndProjectionVectorToAxis */\012PUSHW[ ]	/* 4 values pushed */\01237 947 19 14 \012CALL[ ]	/* CallFunction */\012PUSHW[ ]	/* 4 values pushed */\01271 948 0 14 \012CALL[ ]	/* CallFunction */\012PUSHW[ ]	/* 4 values pushed */\01213 949 44 14 \012CALL[ ]	/* CallFunction */\012PUSHW[ ]	/* 1 value pushed */\0120 \012SRP0[ ]	/* SetRefPoint0 */\012PUSHW[ ]	/* 1 value pushed */\0122 \012MDRP[10000]	/* MoveDirectRelPt */\012PUSHW[ ]	/* 1 value pushed */\0122 \012MDAP[1]	/* MoveDirectAbsPt */\012PUSHW[ ]	/* 3 values pushed */\01211 44 13 \012SRP1[ ]	/* SetRefPoint1 */\012SRP2[ ]	/* SetRefPoint2 */\012IP[ ]	/* InterpolatePts */\012PUSHW[ ]	/* 1 value pushed */\0120 \012SRP0[ ]	/* SetRefPoint0 */\012PUSHW[ ]	/* 1 value pushed */\01266 \012MDRP[10000]	/* MoveDirectRelPt */\012PUSHW[ ]	/* 1 value pushed */\01266 \012MDAP[1]	/* MoveDirectAbsPt */\012PUSHW[ ]	/* 1 value pushed */\01271 \012SRP0[ ]	/* SetRefPoint0 */\012PUSHW[ ]	/* 1 value pushed */\01268 \012MDRP[10000]	/* MoveDirectRelPt */\012PUSHW[ ]	/* 1 value pushed */\01268 \012MDAP[1]	/* MoveDirectAbsPt */\012IUP[0]	/* InterpolateUntPts */\012IUP[1]	/* InterpolateUntPts */";
};
width = 367;
}
);
note = five;
unicode = 0035;
},
{
glyphname = six;
lastChange = "2021-05-11 10:01:37 +0000";
layers = (
{
layerId = "0B90A97B-D71D-49C5-8F31-ED3EF6E28084";
paths = (
{
closed = 1;
nodes = (
"150.333 -32 OFFCURVE",
"193.667 -12 OFFCURVE",
"237 28 CURVE SMOOTH",
"281 68 OFFCURVE",
"303 109.667 OFFCURVE",
"303 153 CURVE SMOOTH",
"303 209 OFFCURVE",
"265 252 OFFCURVE",
"209 252 CURVE SMOOTH",
"197.667 252 OFFCURVE",
"179.667 245.333 OFFCURVE",
"155 232 CURVE SMOOTH",
"131 218.667 OFFCURVE",
"119 206.667 OFFCURVE",
"119 196 CURVE SMOOTH",
"119 194 OFFCURVE",
"119.667 191.667 OFFCURVE",
"121 189 CURVE",
"123 188 LINE",
"125.667 188 OFFCURVE",
"131.333 190.333 OFFCURVE",
"140 195 CURVE",
"170 217 OFFCURVE",
"195 228 OFFCURVE",
"215 228 CURVE SMOOTH",
"249 228 OFFCURVE",
"266 207.667 OFFCURVE",
"266 167 CURVE SMOOTH",
"266 151 OFFCURVE",
"263.667 136.333 OFFCURVE",
"259 123 CURVE SMOOTH",
"248.333 89.667 OFFCURVE",
"230 60 OFFCURVE",
"204 34 CURVE SMOOTH",
"174.667 4 OFFCURVE",
"144.333 -11 OFFCURVE",
"113 -11 CURVE SMOOTH",
"71.667 -11 OFFCURVE",
"51 17.667 OFFCURVE",
"51 75 CURVE SMOOTH",
"51 135 OFFCURVE",
"78.333 199.333 OFFCURVE",
"133 268 CURVE SMOOTH",
"177 324 OFFCURVE",
"229.667 372.333 OFFCURVE",
"291 413 CURVE SMOOTH",
"299.667 419.667 OFFCURVE",
"304.333 425 OFFCURVE",
"305 429 CURVE",
"305.667 430.333 OFFCURVE",
"306 431.333 OFFCURVE",
"306 432 CURVE",
"307 434 LINE",
"307 436 OFFCURVE",
"305 437 OFFCURVE",
"301 437 CURVE SMOOTH",
"298.333 437 OFFCURVE",
"295 436.333 OFFCURVE",
"291 435 CURVE SMOOTH",
"234.333 413 OFFCURVE",
"175.333 365.333 OFFCURVE",
"114 292 CURVE SMOOTH",
"50 214.667 OFFCURVE",
"18 147 OFFCURVE",
"18 89 CURVE SMOOTH",
"18 58.333 OFFCURVE",
"24.667 31.333 OFFCURVE",
"38 8 CURVE SMOOTH",
"54.667 -18.667 OFFCURVE",
"77.667 -32 OFFCURVE",
"107 -32 CURVE SMOOTH"
);
}
);
userData = {
assembly = "PUSHW[ ]	/* 1 value pushed */\01210 \012CALL[ ]	/* CallFunction */\012PUSHW[ ]	/* 1 value pushed */\01249 \012MDAP[1]	/* MoveDirectAbsPt */\012PUSHW[ ]	/* 1 value pushed */\01214 \012MDAP[1]	/* MoveDirectAbsPt */\012NPUSHW[ ]	/* 5 values pushed */\012170 14 186 14 2 \012DELTAP3[ ]	/* DeltaExceptionP3 */\012NPUSHW[ ]	/* 21 values pushed */\012105 14 121 14 137 14 153 14 169 14 185 14 201 14 217 14 233 14 249 14 10 \012DELTAP1[ ]	/* DeltaExceptionP1 */\012NPUSHW[ ]	/* 33 values pushed */\0129 14 25 14 41 14 57 14 73 14 89 14 105 14 121 14 137 14 153 14 169 14 185 14 201 14 217 14 233 14 249 14 16 \012DELTAP2[ ]	/* DeltaExceptionP2 */\012NPUSHW[ ]	/* 21 values pushed */\0129 14 25 14 41 14 57 14 73 14 89 14 105 14 121 14 137 14 153 14 10 \012DELTAP3[ ]	/* DeltaExceptionP3 */\012PUSHW[ ]	/* 2 values pushed */\01230 950 \012MIRP[10100]	/* MoveIndirectRelPt */\012PUSHW[ ]	/* 1 value pushed */\0120 \012MDRP[10000]	/* MoveDirectRelPt */\012PUSHW[ ]	/* 1 value pushed */\0120 \012MDAP[1]	/* MoveDirectAbsPt */\012PUSHW[ ]	/* 1 value pushed */\01249 \012SRP0[ ]	/* SetRefPoint0 */\012PUSHW[ ]	/* 1 value pushed */\01238 \012MDRP[10000]	/* MoveDirectRelPt */\012PUSHW[ ]	/* 1 value pushed */\01238 \012MDAP[1]	/* MoveDirectAbsPt */\012PUSHW[ ]	/* 2 values pushed */\0126 951 \012MIRP[10100]	/* MoveIndirectRelPt */\012NPUSHW[ ]	/* 21 values pushed */\012102 6 118 6 134 6 150 6 166 6 182 6 198 6 214 6 230 6 246 6 10 \012DELTAP1[ ]	/* DeltaExceptionP1 */\012NPUSHW[ ]	/* 33 values pushed */\0126 6 22 6 38 6 54 6 70 6 86 6 102 6 118 6 134 6 150 6 166 6 182 6 198 6 214 6 230 6 246 6 16 \012DELTAP2[ ]	/* DeltaExceptionP2 */\012NPUSHW[ ]	/* 21 values pushed */\0126 6 22 6 38 6 54 6 70 6 86 6 102 6 118 6 134 6 150 6 10 \012DELTAP3[ ]	/* DeltaExceptionP3 */\012NPUSHW[ ]	/* 5 values pushed */\012165 6 181 6 2 \012DELTAP3[ ]	/* DeltaExceptionP3 */\012PUSHW[ ]	/* 1 value pushed */\01214 \012SRP0[ ]	/* SetRefPoint0 */\012PUSHW[ ]	/* 1 value pushed */\01212 \012MDRP[10000]	/* MoveDirectRelPt */\012PUSHW[ ]	/* 1 value pushed */\01212 \012MDAP[1]	/* MoveDirectAbsPt */\012PUSHW[ ]	/* 1 value pushed */\01230 \012SRP0[ ]	/* SetRefPoint0 */\012PUSHW[ ]	/* 1 value pushed */\01244 \012MDRP[10000]	/* MoveDirectRelPt */\012PUSHW[ ]	/* 1 value pushed */\01244 \012MDAP[1]	/* MoveDirectAbsPt */\012PUSHW[ ]	/* 1 value pushed */\01230 \012SRP0[ ]	/* SetRefPoint0 */\012PUSHW[ ]	/* 1 value pushed */\01246 \012MDRP[10000]	/* MoveDirectRelPt */\012PUSHW[ ]	/* 1 value pushed */\01246 \012MDAP[1]	/* MoveDirectAbsPt */\012PUSHW[ ]	/* 1 value pushed */\01230 \012SRP0[ ]	/* SetRefPoint0 */\012PUSHW[ ]	/* 1 value pushed */\01250 \012MDRP[11100]	/* MoveDirectRelPt */\012SVTCA[0]	/* SetFreedomAndProjectionVectorToAxis */\012PUSHW[ ]	/* 1 value pushed */\01242 \012MDAP[1]	/* MoveDirectAbsPt */\012PUSHW[ ]	/* 1 value pushed */\01244 \012MDAP[1]	/* MoveDirectAbsPt */\012PUSHW[ ]	/* 1 value pushed */\01246 \012MDAP[1]	/* MoveDirectAbsPt */\012PUSHW[ ]	/* 4 values pushed */\0128 948 34 14 \012CALL[ ]	/* CallFunction */\012PUSHW[ ]	/* 4 values pushed */\01227 947 16 14 \012CALL[ ]	/* CallFunction */\012IUP[0]	/* InterpolateUntPts */\012IUP[1]	/* InterpolateUntPts */";
};
width = 328;
}
);
note = six;
unicode = 0036;
},
{
glyphname = seven;
lastChange = "2021-05-11 10:01:37 +0000";
layers = (
{
layerId = "0B90A97B-D71D-49C5-8F31-ED3EF6E28084";
paths = (
{
closed = 1;
nodes = (
"50.333 -26 OFFCURVE",
"51.667 -25 OFFCURVE",
"53 -23 CURVE",
"49 4.333 OFFCURVE",
"60.667 38.667 OFFCURVE",
"88 80 CURVE SMOOTH",
"108 109.333 OFFCURVE",
"137.333 144.333 OFFCURVE",
"176 185 CURVE SMOOTH",
"273 284 LINE SMOOTH",
"315 328 OFFCURVE",
"334.667 356.333 OFFCURVE",
"332 369 CURVE SMOOTH",
"326.438 388.465 OFFCURVE",
"296.669 408 OFFCURVE",
"272 408 CURVE SMOOTH",
"222.667 408 OFFCURVE",
"160 394.333 OFFCURVE",
"84 367 CURVE SMOOTH",
"66 359.667 OFFCURVE",
"56.667 355 OFFCURVE",
"56 353 CURVE",
"50 343.667 OFFCURVE",
"47 335 OFFCURVE",
"47 327 CURVE SMOOTH",
"47 315 OFFCURVE",
"50.333 309 OFFCURVE",
"57 309 CURVE SMOOTH",
"57.667 309 OFFCURVE",
"58.667 309.667 OFFCURVE",
"60 311 CURVE SMOOTH",
"72.667 324.333 OFFCURVE",
"97.667 338.667 OFFCURVE",
"135 354 CURVE SMOOTH",
"177.667 371.333 OFFCURVE",
"224.333 382.333 OFFCURVE",
"271 385 CURVE SMOOTH",
"283 385.667 OFFCURVE",
"289 383 OFFCURVE",
"289 377 CURVE SMOOTH",
"289 367 OFFCURVE",
"255.333 322.333 OFFCURVE",
"188 243 CURVE SMOOTH",
"104.667 145.667 OFFCURVE",
"63 96.667 OFFCURVE",
"63 96 CURVE",
"44.333 72 OFFCURVE",
"24 47 OFFCURVE",
"24 23 CURVE SMOOTH",
"24 5.014 OFFCURVE",
"35.418 -26 OFFCURVE",
"49 -26 CURVE SMOOTH"
);
}
);
userData = {
assembly = "PUSHW[ ]	/* 1 value pushed */\01210 \012CALL[ ]	/* CallFunction */\012SVTCA[0]	/* SetFreedomAndProjectionVectorToAxis */\012PUSHW[ ]	/* 1 value pushed */\0127 \012MDAP[1]	/* MoveDirectAbsPt */\012PUSHW[ ]	/* 1 value pushed */\0129 \012MDAP[1]	/* MoveDirectAbsPt */\012PUSHW[ ]	/* 4 values pushed */\01238 947 23 14 \012CALL[ ]	/* CallFunction */\012IUP[0]	/* InterpolateUntPts */\012IUP[1]	/* InterpolateUntPts */";
};
width = 331;
}
);
note = seven;
unicode = 0037;
},
{
glyphname = eight;
lastChange = "2021-05-11 10:01:47 +0000";
layers = (
{
layerId = "0B90A97B-D71D-49C5-8F31-ED3EF6E28084";
paths = (
{
closed = 1;
nodes = (
"78.667 -31 OFFCURVE",
"116.667 -15.333 OFFCURVE",
"150 18 CURVE SMOOTH",
"183.333 52.667 OFFCURVE",
"200 91 OFFCURVE",
"200 133 CURVE SMOOTH",
"200 155 OFFCURVE",
"190.667 183.667 OFFCURVE",
"172 219 CURVE",
"175.333 224.333 OFFCURVE",
"199.333 244 OFFCURVE",
"244 278 CURVE SMOOTH",
"290 312.667 OFFCURVE",
"317 331.333 OFFCURVE",
"325 334 CURVE",
"341 305.333 OFFCURVE",
"352.667 291 OFFCURVE",
"360 291 CURVE SMOOTH",
"365 291 OFFCURVE",
"368 296 OFFCURVE",
"368 306 CURVE SMOOTH",
"368 308 OFFCURVE",
"368 309 OFFCURVE",
"368 310 CURVE SMOOTH",
"367.333 318.667 OFFCURVE",
"362.667 332.333 OFFCURVE",
"354 351 CURVE",
"439 397 LINE SMOOTH",
"443.667 399.667 OFFCURVE",
"446 403.667 OFFCURVE",
"446 409 CURVE SMOOTH",
"446 411.667 OFFCURVE",
"444.667 413 OFFCURVE",
"442 413 CURVE SMOOTH",
"440 413 OFFCURVE",
"438.333 412.667 OFFCURVE",
"437 412 CURVE SMOOTH",
"424.333 408 OFFCURVE",
"393.667 393 OFFCURVE",
"345 367 CURVE",
"328.333 391.667 OFFCURVE",
"298.333 404 OFFCURVE",
"255 404 CURVE SMOOTH",
"218.333 404 OFFCURVE",
"186.333 394.333 OFFCURVE",
"159 375 CURVE SMOOTH",
"129 353.667 OFFCURVE",
"114 323.333 OFFCURVE",
"114 284 CURVE SMOOTH",
"114 262 OFFCURVE",
"119.333 239.333 OFFCURVE",
"130 216 CURVE",
"92.667 186.667 OFFCURVE",
"67.667 165.333 OFFCURVE",
"53 152 CURVE SMOOTH",
"3 104.667 OFFCURVE",
"-22 65.667 OFFCURVE",
"-22 35 CURVE SMOOTH",
"-22 -1 OFFCURVE",
"0 -27.667 OFFCURVE",
"36 -29 CURVE SMOOTH"
);
},
{
closed = 1;
nodes = (
"22.667 -11 OFFCURVE",
"10 0.333 OFFCURVE",
"10 23 CURVE SMOOTH",
"10 50.333 OFFCURVE",
"22.333 80.333 OFFCURVE",
"47 113 CURVE SMOOTH",
"70.333 141.667 OFFCURVE",
"101 169 OFFCURVE",
"139 195 CURVE",
"157.667 161.667 OFFCURVE",
"167 136.333 OFFCURVE",
"167 119 CURVE SMOOTH",
"167 89.667 OFFCURVE",
"154.333 60.333 OFFCURVE",
"129 31 CURVE SMOOTH",
"103.667 3 OFFCURVE",
"76.667 -11 OFFCURVE",
"48 -11 CURVE SMOOTH"
);
},
{
closed = 1;
nodes = (
"152 262.667 OFFCURVE",
"146 282.667 OFFCURVE",
"146 298 CURVE SMOOTH",
"146 323.333 OFFCURVE",
"157 344.667 OFFCURVE",
"179 362 CURVE SMOOTH",
"199.667 376.667 OFFCURVE",
"223 384 OFFCURVE",
"249 384 CURVE SMOOTH",
"282.333 384 OFFCURVE",
"304.667 372.333 OFFCURVE",
"316 349 CURVE",
"249.333 302.333 OFFCURVE",
"198.667 264.667 OFFCURVE",
"164 238 CURVE"
);
}
);
userData = {
assembly = "PUSHW[ ]	/* 1 value pushed */\01210 \012CALL[ ]	/* CallFunction */\012PUSHW[ ]	/* 4 values pushed */\01258 951 20 14 \012CALL[ ]	/* CallFunction */\012PUSHW[ ]	/* 4 values pushed */\01247 951 27 14 \012CALL[ ]	/* CallFunction */\012PUSHW[ ]	/* 4 values pushed */\01213 951 52 14 \012CALL[ ]	/* CallFunction */\012NPUSHW[ ]	/* 21 values pushed */\012102 13 118 13 134 13 150 13 166 13 182 13 198 13 214 13 230 13 246 13 10 \012DELTAP1[ ]	/* DeltaExceptionP1 */\012NPUSHW[ ]	/* 33 values pushed */\0126 13 22 13 38 13 54 13 70 13 86 13 102 13 118 13 134 13 150 13 166 13 182 13 198 13 214 13 230 13 246 13 16 \012DELTAP2[ ]	/* DeltaExceptionP2 */\012NPUSHW[ ]	/* 21 values pushed */\0126 13 22 13 38 13 54 13 70 13 86 13 102 13 118 13 134 13 150 13 10 \012DELTAP3[ ]	/* DeltaExceptionP3 */\012NPUSHW[ ]	/* 5 values pushed */\012165 13 181 13 2 \012DELTAP3[ ]	/* DeltaExceptionP3 */\012NPUSHW[ ]	/* 21 values pushed */\012102 47 118 47 134 47 150 47 166 47 182 47 198 47 214 47 230 47 246 47 10 \012DELTAP1[ ]	/* DeltaExceptionP1 */\012NPUSHW[ ]	/* 33 values pushed */\0126 47 22 47 38 47 54 47 70 47 86 47 102 47 118 47 134 47 150 47 166 47 182 47 198 47 214 47 230 47 246 47 16 \012DELTAP2[ ]	/* DeltaExceptionP2 */\012NPUSHW[ ]	/* 21 values pushed */\0126 47 22 47 38 47 54 47 70 47 86 47 102 47 118 47 134 47 150 47 10 \012DELTAP3[ ]	/* DeltaExceptionP3 */\012NPUSHW[ ]	/* 5 values pushed */\012165 47 181 47 2 \012DELTAP3[ ]	/* DeltaExceptionP3 */\012NPUSHW[ ]	/* 21 values pushed */\012102 58 118 58 134 58 150 58 166 58 182 58 198 58 214 58 230 58 246 58 10 \012DELTAP1[ ]	/* DeltaExceptionP1 */\012NPUSHW[ ]	/* 33 values pushed */\0126 58 22 58 38 58 54 58 70 58 86 58 102 58 118 58 134 58 150 58 166 58 182 58 198 58 214 58 230 58 246 58 16 \012DELTAP2[ ]	/* DeltaExceptionP2 */\012NPUSHW[ ]	/* 21 values pushed */\0126 58 22 58 38 58 54 58 70 58 86 58 102 58 118 58 134 58 150 58 10 \012DELTAP3[ ]	/* DeltaExceptionP3 */\012NPUSHW[ ]	/* 5 values pushed */\012165 58 181 58 2 \012DELTAP3[ ]	/* DeltaExceptionP3 */\012SVTCA[0]	/* SetFreedomAndProjectionVectorToAxis */\012PUSHW[ ]	/* 1 value pushed */\01235 \012MDAP[1]	/* MoveDirectAbsPt */\012PUSHW[ ]	/* 1 value pushed */\01237 \012MDAP[1]	/* MoveDirectAbsPt */\012PUSHW[ ]	/* 1 value pushed */\01239 \012MDAP[1]	/* MoveDirectAbsPt */\012PUSHW[ ]	/* 1 value pushed */\0120 \012MDAP[1]	/* MoveDirectAbsPt */\012PUSHW[ ]	/* 1 value pushed */\01231 \012MDAP[1]	/* MoveDirectAbsPt */\012IUP[0]	/* InterpolateUntPts */\012IUP[1]	/* InterpolateUntPts */";
};
width = 344;
}
);
note = eight;
unicode = 0038;
},
{
glyphname = nine;
lastChange = "2021-05-11 10:01:37 +0000";
layers = (
{
layerId = "0B90A97B-D71D-49C5-8F31-ED3EF6E28084";
paths = (
{
closed = 1;
nodes = (
"145 -55 OFFCURVE",
"150.333 -45.667 OFFCURVE",
"153 -27 CURVE SMOOTH",
"161.667 17.667 OFFCURVE",
"197.667 90.667 OFFCURVE",
"261 192 CURVE SMOOTH",
"297 248.667 OFFCURVE",
"315 278 OFFCURVE",
"315 280 CURVE SMOOTH",
"315 288 OFFCURVE",
"298.333 304 OFFCURVE",
"289 304 CURVE SMOOTH",
"285 304 OFFCURVE",
"270.667 289.667 OFFCURVE",
"246 261 CURVE SMOOTH",
"231.333 243.667 OFFCURVE",
"219 232.333 OFFCURVE",
"207 223 CURVE SMOOTH",
"159.667 187 OFFCURVE",
"119.667 169 OFFCURVE",
"87 169 CURVE SMOOTH",
"66.333 169 OFFCURVE",
"56 180.667 OFFCURVE",
"56 204 CURVE SMOOTH",
"56 244.667 OFFCURVE",
"81.667 289.667 OFFCURVE",
"133 339 CURVE SMOOTH",
"185.667 388.333 OFFCURVE",
"232.333 413 OFFCURVE",
"273 413 CURVE SMOOTH",
"305 413 OFFCURVE",
"321 400.667 OFFCURVE",
"321 376 CURVE SMOOTH",
"321 372.667 OFFCURVE",
"319.333 361.667 OFFCURVE",
"316 343 CURVE SMOOTH",
"314.667 334.333 OFFCURVE",
"313.5 329 OFFCURVE",
"312.5 327 CURVE SMOOTH",
"311.5 325 OFFCURVE",
"311 325.667 OFFCURVE",
"311 329 CURVE",
"311 325.667 OFFCURVE",
"311.667 324 OFFCURVE",
"313 324 CURVE",
"315 321 LINE",
"315 323 LINE",
"319 320 LINE",
"325.667 322.667 OFFCURVE",
"331.333 331 OFFCURVE",
"336 345 CURVE SMOOTH",
"340.667 356.333 OFFCURVE",
"343 367 OFFCURVE",
"343 377 CURVE SMOOTH",
"343 413.667 OFFCURVE",
"319.333 432 OFFCURVE",
"272 432 CURVE SMOOTH",
"226 432 OFFCURVE",
"174 409 OFFCURVE",
"116 363 CURVE SMOOTH",
"55.333 315 OFFCURVE",
"23.667 268.667 OFFCURVE",
"21 224 CURVE SMOOTH",
"17.667 172.667 OFFCURVE",
"35.667 147 OFFCURVE",
"75 147 CURVE SMOOTH",
"117 147 OFFCURVE",
"166.333 168.667 OFFCURVE",
"223 212 CURVE",
"162.333 94 OFFCURVE",
"131 9 OFFCURVE",
"129 -43 CURVE SMOOTH",
"129 -51 OFFCURVE",
"131.667 -55 OFFCURVE",
"137 -55 CURVE SMOOTH"
);
}
);
userData = {
assembly = "PUSHW[ ]	/* 1 value pushed */\01210 \012CALL[ ]	/* CallFunction */\012PUSHW[ ]	/* 4 values pushed */\01216 951 42 14 \012CALL[ ]	/* CallFunction */\012PUSHW[ ]	/* 4 values pushed */\01248 951 10 14 \012CALL[ ]	/* CallFunction */\012NPUSHW[ ]	/* 5 values pushed */\012170 10 186 10 2 \012DELTAP3[ ]	/* DeltaExceptionP3 */\012NPUSHW[ ]	/* 21 values pushed */\012105 10 121 10 137 10 153 10 169 10 185 10 201 10 217 10 233 10 249 10 10 \012DELTAP1[ ]	/* DeltaExceptionP1 */\012NPUSHW[ ]	/* 33 values pushed */\0129 10 25 10 41 10 57 10 73 10 89 10 105 10 121 10 137 10 153 10 169 10 185 10 201 10 217 10 233 10 249 10 16 \012DELTAP2[ ]	/* DeltaExceptionP2 */\012NPUSHW[ ]	/* 21 values pushed */\0129 10 25 10 41 10 57 10 73 10 89 10 105 10 121 10 137 10 153 10 10 \012DELTAP3[ ]	/* DeltaExceptionP3 */\012NPUSHW[ ]	/* 21 values pushed */\012102 16 118 16 134 16 150 16 166 16 182 16 198 16 214 16 230 16 246 16 10 \012DELTAP1[ ]	/* DeltaExceptionP1 */\012NPUSHW[ ]	/* 33 values pushed */\0126 16 22 16 38 16 54 16 70 16 86 16 102 16 118 16 134 16 150 16 166 16 182 16 198 16 214 16 230 16 246 16 16 \012DELTAP2[ ]	/* DeltaExceptionP2 */\012NPUSHW[ ]	/* 21 values pushed */\0126 16 22 16 38 16 54 16 70 16 86 16 102 16 118 16 134 16 150 16 10 \012DELTAP3[ ]	/* DeltaExceptionP3 */\012NPUSHW[ ]	/* 5 values pushed */\012165 16 181 16 2 \012DELTAP3[ ]	/* DeltaExceptionP3 */\012PUSHW[ ]	/* 1 value pushed */\01210 \012SRP0[ ]	/* SetRefPoint0 */\012PUSHW[ ]	/* 1 value pushed */\01228 \012MDRP[10000]	/* MoveDirectRelPt */\012PUSHW[ ]	/* 1 value pushed */\01228 \012MDAP[1]	/* MoveDirectAbsPt */\012PUSHW[ ]	/* 3 values pushed */\01238 42 48 \012SRP1[ ]	/* SetRefPoint1 */\012SRP2[ ]	/* SetRefPoint2 */\012IP[ ]	/* InterpolatePts */\012PUSHW[ ]	/* 1 value pushed */\01248 \012SRP0[ ]	/* SetRefPoint0 */\012PUSHW[ ]	/* 1 value pushed */\01253 \012MDRP[11100]	/* MoveDirectRelPt */\012SVTCA[0]	/* SetFreedomAndProjectionVectorToAxis */\012PUSHW[ ]	/* 1 value pushed */\01246 \012MDAP[1]	/* MoveDirectAbsPt */\012PUSHW[ ]	/* 1 value pushed */\01234 \012MDAP[1]	/* MoveDirectAbsPt */\012PUSHW[ ]	/* 4 values pushed */\01218 947 40 14 \012CALL[ ]	/* CallFunction */\012PUSHW[ ]	/* 3 values pushed */\01238 34 46 \012SRP1[ ]	/* SetRefPoint1 */\012SRP2[ ]	/* SetRefPoint2 */\012IP[ ]	/* InterpolatePts */\012IUP[0]	/* InterpolateUntPts */\012IUP[1]	/* InterpolateUntPts */";
};
width = 340;
}
);
note = nine;
unicode = 0039;
},
{
glyphname = colon;
lastChange = "2021-05-11 10:01:37 +0000";
layers = (
{
layerId = "0B90A97B-D71D-49C5-8F31-ED3EF6E28084";
paths = (
{
closed = 1;
nodes = (
"181.333 117 OFFCURVE",
"192 127.333 OFFCURVE",
"192 148 CURVE SMOOTH",
"192 168.667 OFFCURVE",
"181.333 179 OFFCURVE",
"160 179 CURVE SMOOTH",
"138.667 179 OFFCURVE",
"128 168.667 OFFCURVE",
"128 148 CURVE SMOOTH",
"128 127.333 OFFCURVE",
"138.667 117 OFFCURVE",
"160 117 CURVE SMOOTH"
);
},
{
closed = 1;
nodes = (
"120.333 -4 OFFCURVE",
"131 6.333 OFFCURVE",
"131 27 CURVE SMOOTH",
"131 47 OFFCURVE",
"120.333 57 OFFCURVE",
"99 57 CURVE SMOOTH",
"77.667 57 OFFCURVE",
"67 47 OFFCURVE",
"67 27 CURVE SMOOTH",
"67 6.333 OFFCURVE",
"77.667 -4 OFFCURVE",
"99 -4 CURVE SMOOTH"
);
}
);
userData = {
assembly = "PUSHW[ ]	/* 1 value pushed */\01210 \012CALL[ ]	/* CallFunction */\012PUSHW[ ]	/* 4 values pushed */\0128 952 12 14 \012CALL[ ]	/* CallFunction */\012NPUSHW[ ]	/* 21 values pushed */\012102 8 118 8 134 8 150 8 166 8 182 8 198 8 214 8 230 8 246 8 10 \012DELTAP1[ ]	/* DeltaExceptionP1 */\012NPUSHW[ ]	/* 7 values pushed */\0126 8 22 8 38 8 3 \012DELTAP2[ ]	/* DeltaExceptionP2 */\012NPUSHW[ ]	/* 5 values pushed */\01253 8 69 8 2 \012DELTAP2[ ]	/* DeltaExceptionP2 */\012PUSHW[ ]	/* 1 value pushed */\0128 \012SRP0[ ]	/* SetRefPoint0 */\012PUSHW[ ]	/* 2 values pushed */\0120 952 \012MIRP[10100]	/* MoveIndirectRelPt */\012PUSHW[ ]	/* 1 value pushed */\0128 \012SRP0[ ]	/* SetRefPoint0 */\012PUSHW[ ]	/* 1 value pushed */\0124 \012MDRP[10000]	/* MoveDirectRelPt */\012PUSHW[ ]	/* 1 value pushed */\0124 \012MDAP[1]	/* MoveDirectAbsPt */\012PUSHW[ ]	/* 1 value pushed */\0128 \012SRP0[ ]	/* SetRefPoint0 */\012PUSHW[ ]	/* 1 value pushed */\01217 \012MDRP[11100]	/* MoveDirectRelPt */\012SVTCA[0]	/* SetFreedomAndProjectionVectorToAxis */\012PUSHW[ ]	/* 3 values pushed */\01214 10 13 \012CALL[ ]	/* CallFunction */\012PUSHW[ ]	/* 3 values pushed */\0126 2 13 \012CALL[ ]	/* CallFunction */\012IUP[0]	/* InterpolateUntPts */\012IUP[1]	/* InterpolateUntPts */";
};
width = 160;
}
);
note = colon;
unicode = 003A;
},
{
glyphname = semicolon;
lastChange = "2021-05-11 10:01:47 +0000";
layers = (
{
layerId = "0B90A97B-D71D-49C5-8F31-ED3EF6E28084";
paths = (
{
closed = 1;
nodes = (
"22 -103 OFFCURVE",
"29.333 -99.667 OFFCURVE",
"40 -93 CURVE SMOOTH",
"56 -83.667 OFFCURVE",
"74.667 -66.333 OFFCURVE",
"96 -41 CURVE SMOOTH",
"117 -15 OFFCURVE",
"128 6 OFFCURVE",
"128 20 CURVE SMOOTH",
"128 42 OFFCURVE",
"118 52 OFFCURVE",
"100 52 CURVE SMOOTH",
"80 52 OFFCURVE",
"61 38 OFFCURVE",
"61 19 CURVE SMOOTH",
"61 2.333 OFFCURVE",
"67 -7 OFFCURVE",
"79 -9 CURVE",
"45 -56 LINE SMOOTH",
"25 -83.333 OFFCURVE",
"15 -98.333 OFFCURVE",
"15 -101 CURVE SMOOTH",
"15 -102.333 OFFCURVE",
"16 -103 OFFCURVE",
"18 -103 CURVE SMOOTH"
);
},
{
closed = 1;
nodes = (
"205.333 139 OFFCURVE",
"216 149 OFFCURVE",
"216 169 CURVE SMOOTH",
"216 189 OFFCURVE",
"205.333 199 OFFCURVE",
"184 199 CURVE SMOOTH",
"162.667 199 OFFCURVE",
"152 189 OFFCURVE",
"152 169 CURVE SMOOTH",
"152 149 OFFCURVE",
"162.667 139 OFFCURVE",
"184 139 CURVE SMOOTH"
);
}
);
userData = {
assembly = "PUSHW[ ]	/* 1 value pushed */\01210 \012CALL[ ]	/* CallFunction */\012PUSHW[ ]	/* 4 values pushed */\0120 952 4 14 \012CALL[ ]	/* CallFunction */\012NPUSHW[ ]	/* 5 values pushed */\01258 4 74 4 2 \012DELTAP2[ ]	/* DeltaExceptionP2 */\012NPUSHW[ ]	/* 21 values pushed */\012105 4 121 4 137 4 153 4 169 4 185 4 201 4 217 4 233 4 249 4 10 \012DELTAP1[ ]	/* DeltaExceptionP1 */\012NPUSHW[ ]	/* 7 values pushed */\0129 4 25 4 41 4 3 \012DELTAP2[ ]	/* DeltaExceptionP2 */\012SVTCA[0]	/* SetFreedomAndProjectionVectorToAxis */\012PUSHW[ ]	/* 1 value pushed */\01214 \012MDAP[1]	/* MoveDirectAbsPt */\012PUSHW[ ]	/* 1 value pushed */\01216 \012MDAP[1]	/* MoveDirectAbsPt */\012PUSHW[ ]	/* 3 values pushed */\0126 2 13 \012CALL[ ]	/* CallFunction */\012IUP[0]	/* InterpolateUntPts */\012IUP[1]	/* InterpolateUntPts */";
};
width = 155;
}
);
note = semicolon;
unicode = 003B;
},
{
glyphname = less;
lastChange = "2021-05-11 10:01:37 +0000";
layers = (
{
layerId = "0B90A97B-D71D-49C5-8F31-ED3EF6E28084";
paths = (
{
closed = 1;
nodes = (
"110 16 LINE",
"113 23 LINE",
"114 113 LINE",
"128.667 123 OFFCURVE",
"140.667 131.333 OFFCURVE",
"150 138 CURVE SMOOTH",
"171 153 LINE SMOOTH",
"199.667 173.667 OFFCURVE",
"216.667 188.667 OFFCURVE",
"222 198 CURVE",
"221 203 LINE",
"217 205 LINE",
"215 205 OFFCURVE",
"167.667 176.333 OFFCURVE",
"75 119 CURVE",
"86 67 LINE",
"93 37 LINE SMOOTH",
"95 28.333 OFFCURVE",
"97.333 21.333 OFFCURVE",
"100 16 CURVE",
"101.333 15.333 OFFCURVE",
"102.333 15 OFFCURVE",
"103 15 CURVE",
"105 14 LINE"
);
}
);
userData = {
assembly = "PUSHW[ ]	/* 1 value pushed */\01210 \012CALL[ ]	/* CallFunction */\012SVTCA[0]	/* SetFreedomAndProjectionVectorToAxis */\012PUSHW[ ]	/* 1 value pushed */\0120 \012MDAP[1]	/* MoveDirectAbsPt */\012PUSHW[ ]	/* 1 value pushed */\01217 \012MDAP[1]	/* MoveDirectAbsPt */\012PUSHW[ ]	/* 1 value pushed */\0128 \012MDAP[1]	/* MoveDirectAbsPt */\012PUSHW[ ]	/* 1 value pushed */\01211 \012MDAP[1]	/* MoveDirectAbsPt */\012IUP[0]	/* InterpolateUntPts */\012IUP[1]	/* InterpolateUntPts */";
};
width = 219;
}
);
note = less;
unicode = 003C;
},
{
glyphname = equal;
lastChange = "2021-05-11 10:01:37 +0000";
layers = (
{
layerId = "0B90A97B-D71D-49C5-8F31-ED3EF6E28084";
paths = (
{
closed = 1;
nodes = (
"106.333 196 OFFCURVE",
"109.667 196.5 OFFCURVE",
"119 197.5 CURVE SMOOTH",
"165 201 LINE SMOOTH",
"207.667 205 OFFCURVE",
"239.667 207 OFFCURVE",
"261 207 CURVE SMOOTH",
"269 207 OFFCURVE",
"273 209.667 OFFCURVE",
"273 215 CURVE SMOOTH",
"273 223.667 OFFCURVE",
"251 228 OFFCURVE",
"207 228 CURVE SMOOTH",
"109 228 LINE SMOOTH",
"101.667 228 OFFCURVE",
"98 223.667 OFFCURVE",
"98 215 CURVE SMOOTH",
"98 202.333 OFFCURVE",
"101.667 196 OFFCURVE",
"109 196 CURVE SMOOTH"
);
},
{
closed = 1;
nodes = (
"104.333 129 OFFCURVE",
"123 131 OFFCURVE",
"165 135 CURVE SMOOTH",
"207.667 139 OFFCURVE",
"239.667 141 OFFCURVE",
"261 141 CURVE SMOOTH",
"269 141 OFFCURVE",
"273 143.333 OFFCURVE",
"273 148 CURVE SMOOTH",
"273 156.667 OFFCURVE",
"251 161 OFFCURVE",
"207 161 CURVE SMOOTH",
"109 161 LINE SMOOTH",
"101.667 161 OFFCURVE",
"98 157 OFFCURVE",
"98 149 CURVE SMOOTH",
"98 135.667 OFFCURVE",
"101.667 129 OFFCURVE",
"109 129 CURVE SMOOTH"
);
}
);
userData = {
assembly = "PUSHW[ ]	/* 1 value pushed */\01210 \012CALL[ ]	/* CallFunction */\012SVTCA[0]	/* SetFreedomAndProjectionVectorToAxis */\012PUSHW[ ]	/* 1 value pushed */\01218 \012MDAP[1]	/* MoveDirectAbsPt */\012PUSHW[ ]	/* 1 value pushed */\01220 \012MDAP[1]	/* MoveDirectAbsPt */\012PUSHW[ ]	/* 4 values pushed */\01212 949 4 14 \012CALL[ ]	/* CallFunction */\012PUSHW[ ]	/* 1 value pushed */\0124 \012SRP0[ ]	/* SetRefPoint0 */\012PUSHW[ ]	/* 1 value pushed */\0122 \012MDRP[10000]	/* MoveDirectRelPt */\012PUSHW[ ]	/* 1 value pushed */\0122 \012MDAP[1]	/* MoveDirectAbsPt */\012PUSHW[ ]	/* 1 value pushed */\0124 \012SRP0[ ]	/* SetRefPoint0 */\012PUSHW[ ]	/* 1 value pushed */\0127 \012MDRP[10000]	/* MoveDirectRelPt */\012PUSHW[ ]	/* 1 value pushed */\0127 \012MDAP[1]	/* MoveDirectAbsPt */\012PUSHW[ ]	/* 1 value pushed */\0124 \012SRP0[ ]	/* SetRefPoint0 */\012PUSHW[ ]	/* 2 values pushed */\01225 949 \012MIRP[10100]	/* MoveIndirectRelPt */\012IUP[0]	/* InterpolateUntPts */\012IUP[1]	/* InterpolateUntPts */";
};
width = 305;
}
);
note = equal;
unicode = 003D;
},
{
glyphname = greater;
lastChange = "2021-05-11 10:01:37 +0000";
layers = (
{
layerId = "0B90A97B-D71D-49C5-8F31-ED3EF6E28084";
paths = (
{
closed = 1;
nodes = (
"29 15 LINE",
"165 100 LINE",
"153 158.667 OFFCURVE",
"145 192.667 OFFCURVE",
"141 202 CURVE",
"135 205 LINE",
"130 202 LINE",
"127 196 LINE",
"126 105 LINE",
"71 66 LINE SMOOTH",
"35.667 40 OFFCURVE",
"18 24 OFFCURVE",
"18 18 CURVE",
"19 15 LINE",
"20.333 14.333 OFFCURVE",
"22 14 OFFCURVE",
"24 14 CURVE SMOOTH"
);
}
);
userData = {
assembly = "PUSHW[ ]	/* 1 value pushed */\01210 \012CALL[ ]	/* CallFunction */\012SVTCA[0]	/* SetFreedomAndProjectionVectorToAxis */\012PUSHW[ ]	/* 1 value pushed */\01211 \012MDAP[1]	/* MoveDirectAbsPt */\012PUSHW[ ]	/* 1 value pushed */\0122 \012MDAP[1]	/* MoveDirectAbsPt */\012PUSHW[ ]	/* 1 value pushed */\0124 \012MDAP[1]	/* MoveDirectAbsPt */\012PUSHW[ ]	/* 3 values pushed */\0125 2 11 \012SRP1[ ]	/* SetRefPoint1 */\012SRP2[ ]	/* SetRefPoint2 */\012IP[ ]	/* InterpolatePts */\012IUP[0]	/* InterpolateUntPts */\012IUP[1]	/* InterpolateUntPts */";
};
width = 219;
}
);
note = greater;
unicode = 003E;
},
{
glyphname = question;
lastChange = "2021-05-11 10:01:37 +0000";
layers = (
{
layerId = "0B90A97B-D71D-49C5-8F31-ED3EF6E28084";
paths = (
{
closed = 1;
nodes = (
"128.333 109 OFFCURVE",
"134 117.667 OFFCURVE",
"136 135 CURVE",
"130.667 135 OFFCURVE",
"128 138 OFFCURVE",
"128 144 CURVE SMOOTH",
"128 145 LINE SMOOTH",
"128 170.333 OFFCURVE",
"142.333 195.333 OFFCURVE",
"171 220 CURVE SMOOTH",
"228 267 LINE SMOOTH",
"243.333 279.667 OFFCURVE",
"255.667 289.333 OFFCURVE",
"265 296 CURVE SMOOTH",
"309 329.333 OFFCURVE",
"341 356.333 OFFCURVE",
"361 379 CURVE SMOOTH",
"390.333 412.333 OFFCURVE",
"405 443.667 OFFCURVE",
"405 473 CURVE SMOOTH",
"405 513 OFFCURVE",
"366.333 541 OFFCURVE",
"325 541 CURVE SMOOTH",
"274.333 541 OFFCURVE",
"219.667 521.667 OFFCURVE",
"161 483 CURVE SMOOTH",
"113.667 453 OFFCURVE",
"81.667 425.667 OFFCURVE",
"65 401 CURVE SMOOTH",
"60.333 394.333 OFFCURVE",
"58 388.333 OFFCURVE",
"58 383 CURVE SMOOTH",
"58 377.667 OFFCURVE",
"61 375 OFFCURVE",
"67 375 CURVE SMOOTH",
"72.333 375 OFFCURVE",
"76.667 377 OFFCURVE",
"80 381 CURVE SMOOTH",
"94.667 403 OFFCURVE",
"124.333 428.333 OFFCURVE",
"169 457 CURVE SMOOTH",
"225.667 493.667 OFFCURVE",
"280 512 OFFCURVE",
"332 512 CURVE SMOOTH",
"353.333 512 OFFCURVE",
"364 501.667 OFFCURVE",
"364 481 CURVE SMOOTH",
"364 435.116 OFFCURVE",
"293.38 373.56 OFFCURVE",
"232 319 CURVE SMOOTH",
"186 278.333 OFFCURVE",
"155 248 OFFCURVE",
"139 228 CURVE SMOOTH",
"110.333 194.667 OFFCURVE",
"96 165 OFFCURVE",
"96 139 CURVE SMOOTH",
"96 119 OFFCURVE",
"103.667 109 OFFCURVE",
"119 109 CURVE SMOOTH"
);
},
{
closed = 1;
nodes = (
"110.333 -20 OFFCURVE",
"121 -10.333 OFFCURVE",
"121 9 CURVE SMOOTH",
"121 29.667 OFFCURVE",
"110.333 40 OFFCURVE",
"89 40 CURVE SMOOTH",
"67.667 40 OFFCURVE",
"57 29.667 OFFCURVE",
"57 9 CURVE SMOOTH",
"57 -10.333 OFFCURVE",
"67.667 -20 OFFCURVE",
"89 -20 CURVE SMOOTH"
);
}
);
userData = {
assembly = "PUSHW[ ]	/* 1 value pushed */\01210 \012CALL[ ]	/* CallFunction */\012PUSHW[ ]	/* 4 values pushed */\01245 952 49 14 \012CALL[ ]	/* CallFunction */\012PUSHW[ ]	/* 4 values pushed */\0120 950 26 14 \012CALL[ ]	/* CallFunction */\012NPUSHW[ ]	/* 21 values pushed */\012102 45 118 45 134 45 150 45 166 45 182 45 198 45 214 45 230 45 246 45 10 \012DELTAP1[ ]	/* DeltaExceptionP1 */\012NPUSHW[ ]	/* 7 values pushed */\0126 45 22 45 38 45 3 \012DELTAP2[ ]	/* DeltaExceptionP2 */\012NPUSHW[ ]	/* 5 values pushed */\01253 45 69 45 2 \012DELTAP2[ ]	/* DeltaExceptionP2 */\012PUSHW[ ]	/* 1 value pushed */\01245 \012SRP0[ ]	/* SetRefPoint0 */\012PUSHW[ ]	/* 1 value pushed */\01210 \012MDRP[10000]	/* MoveDirectRelPt */\012PUSHW[ ]	/* 1 value pushed */\01210 \012MDAP[1]	/* MoveDirectAbsPt */\012PUSHW[ ]	/* 1 value pushed */\01245 \012SRP0[ ]	/* SetRefPoint0 */\012PUSHW[ ]	/* 2 values pushed */\01217 951 \012MIRP[10100]	/* MoveIndirectRelPt */\012NPUSHW[ ]	/* 5 values pushed */\012170 26 186 26 2 \012DELTAP3[ ]	/* DeltaExceptionP3 */\012NPUSHW[ ]	/* 21 values pushed */\012105 26 121 26 137 26 153 26 169 26 185 26 201 26 217 26 233 26 249 26 10 \012DELTAP1[ ]	/* DeltaExceptionP1 */\012NPUSHW[ ]	/* 33 values pushed */\0129 26 25 26 41 26 57 26 73 26 89 26 105 26 121 26 137 26 153 26 169 26 185 26 201 26 217 26 233 26 249 26 16 \012DELTAP2[ ]	/* DeltaExceptionP2 */\012NPUSHW[ ]	/* 21 values pushed */\0129 26 25 26 41 26 57 26 73 26 89 26 105 26 121 26 137 26 153 26 10 \012DELTAP3[ ]	/* DeltaExceptionP3 */\012PUSHW[ ]	/* 1 value pushed */\01249 \012SRP0[ ]	/* SetRefPoint0 */\012PUSHW[ ]	/* 1 value pushed */\01236 \012MDRP[10000]	/* MoveDirectRelPt */\012PUSHW[ ]	/* 1 value pushed */\01236 \012MDAP[1]	/* MoveDirectAbsPt */\012SVTCA[0]	/* SetFreedomAndProjectionVectorToAxis */\012PUSHW[ ]	/* 3 values pushed */\01251 47 13 \012CALL[ ]	/* CallFunction */\012PUSHW[ ]	/* 4 values pushed */\01242 949 28 14 \012CALL[ ]	/* CallFunction */\012IUP[0]	/* InterpolateUntPts */\012IUP[1]	/* InterpolateUntPts */";
};
width = 400;
}
);
note = question;
unicode = 003F;
},
{
glyphname = at;
lastChange = "2021-05-11 11:06:01 +0000";
layers = (
{
layerId = "0B90A97B-D71D-49C5-8F31-ED3EF6E28084";
paths = (
{
closed = 1;
nodes = (
"258 -107 OFFCURVE",
"314 -94 OFFCURVE",
"375 -68 CURVE SMOOTH",
"430 -43 OFFCURVE",
"481 -10 OFFCURVE",
"526 31 CURVE SMOOTH",
"554 58 OFFCURVE",
"576 87 OFFCURVE",
"593 117 CURVE SMOOTH",
"611 153 OFFCURVE",
"619 185 OFFCURVE",
"617 212 CURVE",
"630 233 OFFCURVE",
"637 253 OFFCURVE",
"637 271 CURVE SMOOTH",
"637 304 OFFCURVE",
"618 328 OFFCURVE",
"579 345 CURVE SMOOTH",
"543 360 OFFCURVE",
"499 368 OFFCURVE",
"446 368 CURVE SMOOTH",
"382 368 OFFCURVE",
"325 358 OFFCURVE",
"275 338 CURVE SMOOTH",
"214 313 OFFCURVE",
"167 286 OFFCURVE",
"133 258 CURVE SMOOTH",
"83 216 OFFCURVE",
"50 164 OFFCURVE",
"34 101 CURVE SMOOTH",
"30 84 OFFCURVE",
"28 66 OFFCURVE",
"28 49 CURVE SMOOTH",
"28 1 OFFCURVE",
"45 -37 OFFCURVE",
"80 -66 CURVE SMOOTH",
"112 -93 OFFCURVE",
"154 -107 OFFCURVE",
"207 -107 CURVE SMOOTH"
);
},
{
closed = 1;
nodes = (
"103 -94 OFFCURVE",
"55 -54 OFFCURVE",
"55 25 CURVE SMOOTH",
"55 62 OFFCURVE",
"66 101 OFFCURVE",
"89 144 CURVE SMOOTH",
"135 233 OFFCURVE",
"210 295 OFFCURVE",
"314 332 CURVE SMOOTH",
"347 343 OFFCURVE",
"386 349 OFFCURVE",
"433 349 CURVE SMOOTH",
"484 349 OFFCURVE",
"528 342 OFFCURVE",
"565 329 CURVE SMOOTH",
"606 313 OFFCURVE",
"626 291 OFFCURVE",
"626 263 CURVE SMOOTH",
"626 252 OFFCURVE",
"622 239 OFFCURVE",
"615 226 CURVE",
"605 282 OFFCURVE",
"559 310 OFFCURVE",
"478 310 CURVE SMOOTH",
"447 310 OFFCURVE",
"432 307 OFFCURVE",
"432 302 CURVE SMOOTH",
"432 298 OFFCURVE",
"439 295 OFFCURVE",
"452 295 CURVE SMOOTH",
"457 295 OFFCURVE",
"462 296 OFFCURVE",
"468 296 CURVE SMOOTH",
"473 297 OFFCURVE",
"477 297 OFFCURVE",
"481 297 CURVE SMOOTH",
"492 297 LINE SMOOTH",
"558 297 OFFCURVE",
"591 271 OFFCURVE",
"591 219 CURVE SMOOTH",
"591 207 OFFCURVE",
"590 196 OFFCURVE",
"587 186 CURVE",
"542 130 OFFCURVE",
"482 82 OFFCURVE",
"407 42 CURVE SMOOTH",
"395 36 OFFCURVE",
"385 33 OFFCURVE",
"378 33 CURVE SMOOTH",
"363 33 OFFCURVE",
"352 48 OFFCURVE",
"347 77 CURVE",
"346 78 OFFCURVE",
"346 101 OFFCURVE",
"346 146 CURVE SMOOTH",
"346 165 OFFCURVE",
"344 174 OFFCURVE",
"338 174 CURVE SMOOTH",
"332 174 OFFCURVE",
"324 167 OFFCURVE",
"315 154 CURVE SMOOTH",
"276 100 OFFCURVE",
"252 68 OFFCURVE",
"241 57 CURVE SMOOTH",
"225 41 OFFCURVE",
"213 33 OFFCURVE",
"205 33 CURVE SMOOTH",
"200 33 OFFCURVE",
"197 37 OFFCURVE",
"197 46 CURVE SMOOTH",
"197 57 OFFCURVE",
"200 71 OFFCURVE",
"207 87 CURVE SMOOTH",
"228 140 OFFCURVE",
"262 186 OFFCURVE",
"308 224 CURVE SMOOTH",
"326 240 OFFCURVE",
"343 248 OFFCURVE",
"359 248 CURVE SMOOTH",
"376 248 OFFCURVE",
"384 241 OFFCURVE",
"384 226 CURVE SMOOTH",
"384 219 OFFCURVE",
"382 213 OFFCURVE",
"378 206 CURVE",
"391 208 OFFCURVE",
"397 217 OFFCURVE",
"397 232 CURVE SMOOTH",
"397 259 OFFCURVE",
"369 271 OFFCURVE",
"342 271 CURVE SMOOTH",
"301 271 OFFCURVE",
"261 245 OFFCURVE",
"221 193 CURVE SMOOTH",
"184 144 OFFCURVE",
"165 99 OFFCURVE",
"165 58 CURVE SMOOTH",
"165 29 OFFCURVE",
"177 13 OFFCURVE",
"202 13 CURVE SMOOTH",
"218 13 OFFCURVE",
"241 30 OFFCURVE",
"268 65 CURVE SMOOTH",
"293 98 OFFCURVE",
"305 116 OFFCURVE",
"305 119 CURVE",
"303 117 OFFCURVE",
"302 113 OFFCURVE",
"302 108 CURVE SMOOTH",
"302 99 OFFCURVE",
"305 85 OFFCURVE",
"309 66 CURVE SMOOTH",
"317 32 OFFCURVE",
"332 15 OFFCURVE",
"355 15 CURVE SMOOTH",
"370 15 OFFCURVE",
"389 21 OFFCURVE",
"413 32 CURVE SMOOTH",
"474 62 OFFCURVE",
"530 107 OFFCURVE",
"582 168 CURVE",
"565 122 OFFCURVE",
"535 79 OFFCURVE",
"492 40 CURVE SMOOTH",
"450 3 OFFCURVE",
"404 -29 OFFCURVE",
"354 -54 CURVE SMOOTH",
"300 -81 OFFCURVE",
"248 -94 OFFCURVE",
"199 -94 CURVE SMOOTH"
);
}
);
userData = {
assembly = "PUSHW[ ]	/* 1 value pushed */\01210 \012CALL[ ]	/* CallFunction */\012PUSHW[ ]	/* 4 values pushed */\01238 951 10 14 \012CALL[ ]	/* CallFunction */\012PUSHW[ ]	/* 3 values pushed */\01289 60 13 \012CALL[ ]	/* CallFunction */\012PUSHW[ ]	/* 4 values pushed */\01222 950 99 14 \012CALL[ ]	/* CallFunction */\012NPUSHW[ ]	/* 5 values pushed */\012170 99 186 99 2 \012DELTAP3[ ]	/* DeltaExceptionP3 */\012NPUSHW[ ]	/* 21 values pushed */\012105 99 121 99 137 99 153 99 169 99 185 99 201 99 217 99 233 99 249 99 10 \012DELTAP1[ ]	/* DeltaExceptionP1 */\012NPUSHW[ ]	/* 33 values pushed */\0129 99 25 99 41 99 57 99 73 99 89 99 105 99 121 99 137 99 153 99 169 99 185 99 201 99 217 99 233 99 249 99 16 \012DELTAP2[ ]	/* DeltaExceptionP2 */\012NPUSHW[ ]	/* 21 values pushed */\0129 99 25 99 41 99 57 99 73 99 89 99 105 99 121 99 137 99 153 99 10 \012DELTAP3[ ]	/* DeltaExceptionP3 */\012PUSHW[ ]	/* 3 values pushed */\01226 99 22 \012SRP1[ ]	/* SetRefPoint1 */\012SRP2[ ]	/* SetRefPoint2 */\012IP[ ]	/* InterpolatePts */\012NPUSHW[ ]	/* 21 values pushed */\012102 38 118 38 134 38 150 38 166 38 182 38 198 38 214 38 230 38 246 38 10 \012DELTAP1[ ]	/* DeltaExceptionP1 */\012NPUSHW[ ]	/* 33 values pushed */\0126 38 22 38 38 38 54 38 70 38 86 38 102 38 118 38 134 38 150 38 166 38 182 38 198 38 214 38 230 38 246 38 16 \012DELTAP2[ ]	/* DeltaExceptionP2 */\012NPUSHW[ ]	/* 21 values pushed */\0126 38 22 38 38 38 54 38 70 38 86 38 102 38 118 38 134 38 150 38 10 \012DELTAP3[ ]	/* DeltaExceptionP3 */\012NPUSHW[ ]	/* 5 values pushed */\012165 38 181 38 2 \012DELTAP3[ ]	/* DeltaExceptionP3 */\012PUSHW[ ]	/* 3 values pushed */\01246 10 22 \012SRP1[ ]	/* SetRefPoint1 */\012SRP2[ ]	/* SetRefPoint2 */\012IP[ ]	/* InterpolatePts */\012PUSHW[ ]	/* 3 values pushed */\01269 10 22 \012SRP1[ ]	/* SetRefPoint1 */\012SRP2[ ]	/* SetRefPoint2 */\012IP[ ]	/* InterpolatePts */\012NPUSHW[ ]	/* 21 values pushed */\012102 89 118 89 134 89 150 89 166 89 182 89 198 89 214 89 230 89 246 89 10 \012DELTAP1[ ]	/* DeltaExceptionP1 */\012NPUSHW[ ]	/* 7 values pushed */\0126 89 22 89 38 89 3 \012DELTAP2[ ]	/* DeltaExceptionP2 */\012NPUSHW[ ]	/* 5 values pushed */\01253 89 69 89 2 \012DELTAP2[ ]	/* DeltaExceptionP2 */\012PUSHW[ ]	/* 1 value pushed */\01289 \012SRP0[ ]	/* SetRefPoint0 */\012PUSHW[ ]	/* 1 value pushed */\01291 \012MDRP[10000]	/* MoveDirectRelPt */\012PUSHW[ ]	/* 1 value pushed */\01291 \012MDAP[1]	/* MoveDirectAbsPt */\012PUSHW[ ]	/* 1 value pushed */\01222 \012SRP0[ ]	/* SetRefPoint0 */\012PUSHW[ ]	/* 1 value pushed */\012111 \012MDRP[11100]	/* MoveDirectRelPt */\012SVTCA[0]	/* SetFreedomAndProjectionVectorToAxis */\012PUSHW[ ]	/* 3 values pushed */\01281 6 13 \012CALL[ ]	/* CallFunction */\012PUSHW[ ]	/* 3 values pushed */\01218 101 13 \012CALL[ ]	/* CallFunction */\012PUSHW[ ]	/* 4 values pushed */\01264 947 73 14 \012CALL[ ]	/* CallFunction */\012PUSHW[ ]	/* 1 value pushed */\01281 \012SRP0[ ]	/* SetRefPoint0 */\012PUSHW[ ]	/* 1 value pushed */\01293 \012MDRP[10000]	/* MoveDirectRelPt */\012PUSHW[ ]	/* 1 value pushed */\012101 \012SRP0[ ]	/* SetRefPoint0 */\012PUSHW[ ]	/* 1 value pushed */\012104 \012MDRP[10000]	/* MoveDirectRelPt */\012PUSHW[ ]	/* 1 value pushed */\012104 \012MDAP[1]	/* MoveDirectAbsPt */\012IUP[0]	/* InterpolateUntPts */\012IUP[1]	/* InterpolateUntPts */";
};
width = 576;
}
);
leftMetricsKey = o;
note = at;
rightMetricsKey = o;
unicode = 0040;
},
{
glyphname = A;
lastChange = "2021-05-14 17:39:10 +0000";
layers = (
{
anchors = (
{
name = bottom;
position = "{442, -43}";
},
{
name = ogonek;
position = "{719, -29}";
},
{
name = top;
position = "{677, 566}";
}
);
layerId = "0B90A97B-D71D-49C5-8F31-ED3EF6E28084";
paths = (
{
closed = 1;
nodes = (
"143 -57 OFFCURVE",
"170 -53 OFFCURVE",
"197 -43 CURVE SMOOTH",
"251.667 -26.333 OFFCURVE",
"313.667 10.667 OFFCURVE",
"383 68 CURVE",
"389.667 66.667 OFFCURVE",
"398.333 66 OFFCURVE",
"405 66 CURVE SMOOTH",
"456.333 66 OFFCURVE",
"502 92.333 OFFCURVE",
"542 145 CURVE SMOOTH",
"544 147 OFFCURVE",
"543.667 149 OFFCURVE",
"541 151 CURVE SMOOTH",
"538.333 152.333 OFFCURVE",
"536.667 152 OFFCURVE",
"536 150 CURVE",
"499 101 OFFCURVE",
"456 76 OFFCURVE",
"408 76 CURVE SMOOTH",
"403 76 OFFCURVE",
"398 77 OFFCURVE",
"393 77 CURVE",
"434.333 111.667 OFFCURVE",
"472.333 147.333 OFFCURVE",
"507 186 CURVE",
"591 186 LINE SMOOTH",
"611.667 186 OFFCURVE",
"625.333 186.333 OFFCURVE",
"632 187 CURVE",
"631 168 OFFCURVE",
"631 151 OFFCURVE",
"631 136 CURVE SMOOTH",
"631 104 OFFCURVE",
"632 78 OFFCURVE",
"636 57 CURVE SMOOTH",
"645.333 -2.333 OFFCURVE",
"670.667 -32 OFFCURVE",
"712 -32 CURVE SMOOTH",
"754.667 -32 OFFCURVE",
"800.333 5 OFFCURVE",
"819 61 CURVE SMOOTH",
"821 68.333 OFFCURVE",
"820 72 OFFCURVE",
"816 72 CURVE SMOOTH",
"813.333 72 OFFCURVE",
"811 69.667 OFFCURVE",
"809 65 CURVE SMOOTH",
"787 15 OFFCURVE",
"761.667 -10 OFFCURVE",
"733 -10 CURVE SMOOTH",
"709 -10 OFFCURVE",
"692 11.667 OFFCURVE",
"682 55 CURVE SMOOTH",
"677 75 OFFCURVE",
"674 107 OFFCURVE",
"674 150 CURVE SMOOTH",
"674 163 OFFCURVE",
"675 177 OFFCURVE",
"675 192 CURVE",
"703.667 197.333 OFFCURVE",
"725.333 204.333 OFFCURVE",
"740 213 CURVE SMOOTH",
"746 217 OFFCURVE",
"749 221 OFFCURVE",
"749 225 CURVE SMOOTH",
"749 227 OFFCURVE",
"748.333 228 OFFCURVE",
"747 228 CURVE SMOOTH",
"744.333 228 OFFCURVE",
"741.333 226.667 OFFCURVE",
"738 224 CURVE SMOOTH",
"728.667 218.667 OFFCURVE",
"707.667 214.667 OFFCURVE",
"675 212 CURVE",
"677.667 254.667 OFFCURVE",
"685 313 OFFCURVE",
"692 391 CURVE SMOOTH",
"700 476 LINE SMOOTH",
"702 497.333 OFFCURVE",
"703 511.667 OFFCURVE",
"703 519 CURVE SMOOTH",
"703 550.333 OFFCURVE",
"691 566 OFFCURVE",
"667 566 CURVE SMOOTH",
"653 566 OFFCURVE",
"638.333 560.667 OFFCURVE",
"623 550 CURVE SMOOTH",
"591.667 530.667 OFFCURVE",
"569.667 506.667 OFFCURVE",
"557 478 CURVE SMOOTH",
"556.333 476.667 OFFCURVE",
"556 474.667 OFFCURVE",
"556 472 CURVE SMOOTH",
"556 468.667 OFFCURVE",
"557.333 467 OFFCURVE",
"560 467 CURVE SMOOTH",
"563.333 467 OFFCURVE",
"566.167 469.5 OFFCURVE",
"568.5 474.5 CURVE SMOOTH",
"570.833 479.5 OFFCURVE",
"577.667 488.667 OFFCURVE",
"589 502 CURVE SMOOTH",
"601.667 517.333 OFFCURVE",
"613.667 528.667 OFFCURVE",
"625 536 CURVE SMOOTH",
"633 542 OFFCURVE",
"640 545 OFFCURVE",
"646 545 CURVE SMOOTH",
"658.667 545 OFFCURVE",
"665 532 OFFCURVE",
"665 506 CURVE SMOOTH",
"665 502 OFFCURVE",
"664 493 OFFCURVE",
"662.5 480 CURVE SMOOTH",
"655 426 LINE",
"643 411.333 OFFCURVE",
"627 390 OFFCURVE",
"608 364 CURVE SMOOTH",
"527 254 LINE SMOOTH",
"507 227 OFFCURVE",
"493.667 210.333 OFFCURVE",
"487 203 CURVE",
"442 203 LINE",
"456.667 224.333 OFFCURVE",
"469.333 244.333 OFFCURVE",
"480 267 CURVE SMOOTH",
"507.333 325 OFFCURVE",
"521 376 OFFCURVE",
"521 420 CURVE SMOOTH",
"521 508 OFFCURVE",
"468.333 559 OFFCURVE",
"399 559 CURVE SMOOTH",
"351.667 559 OFFCURVE",
"310.667 537.667 OFFCURVE",
"276 495 CURVE SMOOTH",
"236 445.667 OFFCURVE",
"216 380.333 OFFCURVE",
"216 299 CURVE SMOOTH",
"216 257.667 OFFCURVE",
"224.333 220 OFFCURVE",
"241 186 CURVE",
"195 179.333 OFFCURVE",
"153.333 169.667 OFFCURVE",
"116 157 CURVE SMOOTH",
"85.333 147 OFFCURVE",
"60 131.667 OFFCURVE",
"40 111 CURVE SMOOTH",
"17.333 87.667 OFFCURVE",
"6 61 OFFCURVE",
"6 31 CURVE SMOOTH",
"6 -18.333 OFFCURVE",
"43 -50.667 OFFCURVE",
"95 -56 CURVE SMOOTH",
"103 -57 OFFCURVE",
"110 -57 OFFCURVE",
"118 -57 CURVE SMOOTH"
);
},
{
closed = 1;
nodes = (
"131.667 -32 OFFCURVE",
"122.333 -31.333 OFFCURVE",
"113 -30 CURVE SMOOTH",
"87 -27.333 OFFCURVE",
"65 -19.333 OFFCURVE",
"47 -6 CURVE SMOOTH",
"29 7 OFFCURVE",
"19 24 OFFCURVE",
"19 43 CURVE SMOOTH",
"19 82 OFFCURVE",
"50 111 OFFCURVE",
"109 131 CURVE SMOOTH",
"143.667 141.667 OFFCURVE",
"191.667 154.333 OFFCURVE",
"253 165 CURVE",
"273 130.333 OFFCURVE",
"298 104.667 OFFCURVE",
"328 88 CURVE",
"260.667 30.667 OFFCURVE",
"195 2 OFFCURVE",
"131 2 CURVE SMOOTH",
"115 2 OFFCURVE",
"99 4 OFFCURVE",
"83 8 CURVE SMOOTH",
"80 9 OFFCURVE",
"78 7 OFFCURVE",
"78 4 CURVE SMOOTH",
"78 2 OFFCURVE",
"79 1 OFFCURVE",
"81 0 CURVE SMOOTH",
"97 -4.667 OFFCURVE",
"114.667 -7 OFFCURVE",
"134 -7 CURVE SMOOTH",
"201.333 -7 OFFCURVE",
"269.333 22.667 OFFCURVE",
"338 82 CURVE",
"361 73 LINE",
"283.667 3 OFFCURVE",
"210.333 -32 OFFCURVE",
"141 -32 CURVE SMOOTH"
);
},
{
closed = 1;
nodes = (
"309 111.333 OFFCURVE",
"285.333 135 OFFCURVE",
"266 167 CURVE",
"323.333 177.667 OFFCURVE",
"374 184.333 OFFCURVE",
"418 187 CURVE",
"394 154.333 OFFCURVE",
"367 124 OFFCURVE",
"337 96 CURVE"
);
},
{
closed = 1;
nodes = (
"363.333 84 OFFCURVE",
"355.667 86.667 OFFCURVE",
"347 90 CURVE",
"377.667 119.333 OFFCURVE",
"406.667 150.667 OFFCURVE",
"432 188 CURVE",
"448.667 188.667 OFFCURVE",
"463 188.667 OFFCURVE",
"475 188 CURVE",
"370 82 LINE"
);
},
{
closed = 1;
nodes = (
"239 222 OFFCURVE",
"231 259 OFFCURVE",
"231 299 CURVE SMOOTH",
"231 378.333 OFFCURVE",
"248.667 440.667 OFFCURVE",
"284 486 CURVE SMOOTH",
"314 526 OFFCURVE",
"350.333 546 OFFCURVE",
"393 546 CURVE SMOOTH",
"460.125 546 OFFCURVE",
"508 490.411 OFFCURVE",
"508 412 CURVE SMOOTH",
"508 370.667 OFFCURVE",
"495.333 324 OFFCURVE",
"470 272 CURVE SMOOTH",
"458.667 248.667 OFFCURVE",
"445 225.333 OFFCURVE",
"429 202 CURVE",
"366.333 200.667 OFFCURVE",
"309.667 196 OFFCURVE",
"255 188 CURVE"
);
},
{
closed = 1;
nodes = (
"553.167 207 OFFCURVE",
"537.667 207.333 OFFCURVE",
"525 208 CURVE",
"613 331.5 LINE SMOOTH",
"635 362 OFFCURVE",
"647.667 382 OFFCURVE",
"653 392 CURVE",
"642.333 322.667 OFFCURVE",
"636.667 262.333 OFFCURVE",
"634 209 CURVE",
"610.667 207.667 OFFCURVE",
"589.833 207 OFFCURVE",
"571.5 207 CURVE SMOOTH"
);
}
);
userData = {
assembly = "PUSHW[ ]	/* 1 value pushed */\01210 \012CALL[ ]	/* CallFunction */\012PUSHW[ ]	/* 4 values pushed */\01279 950 60 14 \012CALL[ ]	/* CallFunction */\012NPUSHW[ ]	/* 5 values pushed */\012170 60 186 60 2 \012DELTAP3[ ]	/* DeltaExceptionP3 */\012NPUSHW[ ]	/* 21 values pushed */\012105 60 121 60 137 60 153 60 169 60 185 60 201 60 217 60 233 60 249 60 10 \012DELTAP1[ ]	/* DeltaExceptionP1 */\012NPUSHW[ ]	/* 33 values pushed */\0129 60 25 60 41 60 57 60 73 60 89 60 105 60 121 60 137 60 153 60 169 60 185 60 201 60 217 60 233 60 249 60 16 \012DELTAP2[ ]	/* DeltaExceptionP2 */\012NPUSHW[ ]	/* 21 values pushed */\0129 60 25 60 41 60 57 60 73 60 89 60 105 60 121 60 137 60 153 60 10 \012DELTAP3[ ]	/* DeltaExceptionP3 */\012PUSHW[ ]	/* 3 values pushed */\01295 60 79 \012SRP1[ ]	/* SetRefPoint1 */\012SRP2[ ]	/* SetRefPoint2 */\012IP[ ]	/* InterpolatePts */\012PUSHW[ ]	/* 1 value pushed */\01295 \012MDAP[1]	/* MoveDirectAbsPt */\012PUSHW[ ]	/* 1 value pushed */\01285 \012MDRP[10000]	/* MoveDirectRelPt */\012PUSHW[ ]	/* 1 value pushed */\01295 \012SRP0[ ]	/* SetRefPoint0 */\012PUSHW[ ]	/* 2 values pushed */\012113 950 \012MIRP[10100]	/* MoveIndirectRelPt */\012NPUSHW[ ]	/* 5 values pushed */\012170 113 186 113 2 \012DELTAP3[ ]	/* DeltaExceptionP3 */\012NPUSHW[ ]	/* 21 values pushed */\012105 113 121 113 137 113 153 113 169 113 185 113 201 113 217 113 233 113 249 113 10 \012DELTAP1[ ]	/* DeltaExceptionP1 */\012NPUSHW[ ]	/* 33 values pushed */\0129 113 25 113 41 113 57 113 73 113 89 113 105 113 121 113 137 113 153 113 169 113 185 113 201 113 217 113 233 113 249 113 16 \012DELTAP2[ ]	/* DeltaExceptionP2 */\012NPUSHW[ ]	/* 21 values pushed */\0129 113 25 113 41 113 57 113 73 113 89 113 105 113 121 113 137 113 153 113 10 \012DELTAP3[ ]	/* DeltaExceptionP3 */\012PUSHW[ ]	/* 3 values pushed */\012125 95 113 \012SRP1[ ]	/* SetRefPoint1 */\012SRP2[ ]	/* SetRefPoint2 */\012IP[ ]	/* InterpolatePts */\012PUSHW[ ]	/* 1 value pushed */\012131 \012MDRP[10000]	/* MoveDirectRelPt */\012PUSHW[ ]	/* 1 value pushed */\012131 \012MDAP[1]	/* MoveDirectAbsPt */\012PUSHW[ ]	/* 1 value pushed */\01279 \012SRP0[ ]	/* SetRefPoint0 */\012PUSHW[ ]	/* 1 value pushed */\012179 \012MDRP[11100]	/* MoveDirectRelPt */\012SVTCA[0]	/* SetFreedomAndProjectionVectorToAxis */\012PUSHW[ ]	/* 1 value pushed */\01242 \012MDAP[1]	/* MoveDirectAbsPt */\012PUSHW[ ]	/* 1 value pushed */\01277 \012MDAP[1]	/* MoveDirectAbsPt */\012PUSHW[ ]	/* 4 values pushed */\01299 947 108 14 \012CALL[ ]	/* CallFunction */\012PUSHW[ ]	/* 4 values pushed */\012131 947 116 14 \012CALL[ ]	/* CallFunction */\012PUSHW[ ]	/* 1 value pushed */\012131 \012SRP0[ ]	/* SetRefPoint0 */\012PUSHW[ ]	/* 1 value pushed */\0120 \012MDRP[10000]	/* MoveDirectRelPt */\012PUSHW[ ]	/* 1 value pushed */\0120 \012MDAP[1]	/* MoveDirectAbsPt */\012PUSHW[ ]	/* 1 value pushed */\012116 \012SRP0[ ]	/* SetRefPoint0 */\012PUSHW[ ]	/* 1 value pushed */\01215 \012MDRP[10000]	/* MoveDirectRelPt */\012PUSHW[ ]	/* 1 value pushed */\01215 \012MDAP[1]	/* MoveDirectAbsPt */\012PUSHW[ ]	/* 1 value pushed */\012116 \012SRP0[ ]	/* SetRefPoint0 */\012PUSHW[ ]	/* 1 value pushed */\01236 \012MDRP[10000]	/* MoveDirectRelPt */\012PUSHW[ ]	/* 1 value pushed */\012131 \012SRP0[ ]	/* SetRefPoint0 */\012PUSHW[ ]	/* 1 value pushed */\01250 \012MDRP[10000]	/* MoveDirectRelPt */\012PUSHW[ ]	/* 1 value pushed */\01250 \012MDAP[1]	/* MoveDirectAbsPt */\012PUSHW[ ]	/* 1 value pushed */\012131 \012SRP0[ ]	/* SetRefPoint0 */\012PUSHW[ ]	/* 1 value pushed */\01285 \012MDRP[10000]	/* MoveDirectRelPt */\012PUSHW[ ]	/* 1 value pushed */\01285 \012MDAP[1]	/* MoveDirectAbsPt */\012PUSHW[ ]	/* 1 value pushed */\012116 \012SRP0[ ]	/* SetRefPoint0 */\012PUSHW[ ]	/* 1 value pushed */\01295 \012MDRP[10000]	/* MoveDirectRelPt */\012PUSHW[ ]	/* 1 value pushed */\01295 \012MDAP[1]	/* MoveDirectAbsPt */\012PUSHW[ ]	/* 1 value pushed */\012131 \012SRP0[ ]	/* SetRefPoint0 */\012PUSHW[ ]	/* 1 value pushed */\012128 \012MDRP[10000]	/* MoveDirectRelPt */\012PUSHW[ ]	/* 1 value pushed */\012128 \012MDAP[1]	/* MoveDirectAbsPt */\012PUSHW[ ]	/* 1 value pushed */\012108 \012SRP0[ ]	/* SetRefPoint0 */\012PUSHW[ ]	/* 1 value pushed */\012143 \012MDRP[10000]	/* MoveDirectRelPt */\012PUSHW[ ]	/* 1 value pushed */\012143 \012MDAP[1]	/* MoveDirectAbsPt */\012PUSHW[ ]	/* 1 value pushed */\012108 \012SRP0[ ]	/* SetRefPoint0 */\012PUSHW[ ]	/* 1 value pushed */\012146 \012MDRP[10000]	/* MoveDirectRelPt */\012PUSHW[ ]	/* 1 value pushed */\01299 \012SRP0[ ]	/* SetRefPoint0 */\012PUSHW[ ]	/* 1 value pushed */\012151 \012MDRP[10000]	/* MoveDirectRelPt */\012PUSHW[ ]	/* 1 value pushed */\012151 \012MDAP[1]	/* MoveDirectAbsPt */\012PUSHW[ ]	/* 1 value pushed */\012116 \012SRP0[ ]	/* SetRefPoint0 */\012PUSHW[ ]	/* 1 value pushed */\012163 \012MDRP[10000]	/* MoveDirectRelPt */\012PUSHW[ ]	/* 1 value pushed */\012163 \012MDAP[1]	/* MoveDirectAbsPt */\012PUSHW[ ]	/* 1 value pushed */\012116 \012SRP0[ ]	/* SetRefPoint0 */\012PUSHW[ ]	/* 1 value pushed */\012170 \012MDRP[10000]	/* MoveDirectRelPt */\012PUSHW[ ]	/* 1 value pushed */\012170 \012MDAP[1]	/* MoveDirectAbsPt */\012PUSHW[ ]	/* 1 value pushed */\012116 \012SRP0[ ]	/* SetRefPoint0 */\012PUSHW[ ]	/* 1 value pushed */\012172 \012MDRP[10000]	/* MoveDirectRelPt */\012PUSHW[ ]	/* 1 value pushed */\012172 \012MDAP[1]	/* MoveDirectAbsPt */\012IUP[0]	/* InterpolateUntPts */\012IUP[1]	/* InterpolateUntPts */";
};
width = 769;
}
);
note = A;
unicode = 0041;
},
{
glyphname = B;
lastChange = "2021-05-11 10:01:47 +0000";
layers = (
{
layerId = "0B90A97B-D71D-49C5-8F31-ED3EF6E28084";
paths = (
{
closed = 1;
nodes = (
"-14.667 -91 OFFCURVE",
"30 -58 OFFCURVE",
"70 8 CURVE SMOOTH",
"84.667 33.333 OFFCURVE",
"103 71 OFFCURVE",
"123 127 CURVE",
"136.333 129.667 OFFCURVE",
"148.667 130.667 OFFCURVE",
"162 132 CURVE",
"144.667 74.667 OFFCURVE",
"134.667 30.667 OFFCURVE",
"132 0 CURVE SMOOTH",
"130.667 -13.333 OFFCURVE",
"150.333 -31 OFFCURVE",
"161 -31 CURVE SMOOTH",
"162.333 -31 OFFCURVE",
"163.667 -30.333 OFFCURVE",
"165 -29 CURVE",
"187.667 8.333 OFFCURVE",
"206.667 35.667 OFFCURVE",
"220 53 CURVE",
"217.333 47 OFFCURVE",
"216 39.333 OFFCURVE",
"216 30 CURVE SMOOTH",
"216 -7.333 OFFCURVE",
"243.667 -42.333 OFFCURVE",
"277 -49 CURVE SMOOTH",
"290.333 -51.667 OFFCURVE",
"303.333 -53 OFFCURVE",
"318 -53 CURVE SMOOTH",
"362.667 -53 OFFCURVE",
"408.667 -41 OFFCURVE",
"456 -17 CURVE SMOOTH",
"495.333 3 OFFCURVE",
"526.333 25.667 OFFCURVE",
"549 51 CURVE SMOOTH",
"569.667 73.667 OFFCURVE",
"580 97 OFFCURVE",
"580 121 CURVE SMOOTH",
"580 152.333 OFFCURVE",
"562.667 178.333 OFFCURVE",
"528 199 CURVE SMOOTH",
"490.667 221 OFFCURVE",
"442.333 232 OFFCURVE",
"383 232 CURVE",
"427 237.333 OFFCURVE",
"473.667 252.667 OFFCURVE",
"523 282 CURVE SMOOTH",
"586 318 OFFCURVE",
"616 358 OFFCURVE",
"616 401 CURVE SMOOTH",
"616 438 OFFCURVE",
"593 467 OFFCURVE",
"545 488 CURVE SMOOTH",
"499.667 508.667 OFFCURVE",
"443 519 OFFCURVE",
"375 519 CURVE SMOOTH",
"368 519 LINE",
"385.333 545 OFFCURVE",
"400 559.667 OFFCURVE",
"412 563 CURVE SMOOTH",
"415.333 563.667 OFFCURVE",
"419.667 564 OFFCURVE",
"425 564 CURVE SMOOTH",
"436.333 564 OFFCURVE",
"448.333 559.667 OFFCURVE",
"461 551 CURVE",
"464.333 547.667 OFFCURVE",
"467.333 544 OFFCURVE",
"470 540 CURVE SMOOTH",
"472.667 536 OFFCURVE",
"475.333 534 OFFCURVE",
"478 534 CURVE",
"481.333 535.333 OFFCURVE",
"483 537 OFFCURVE",
"483 539 CURVE SMOOTH",
"483 545.667 OFFCURVE",
"475.333 554 OFFCURVE",
"460 564 CURVE SMOOTH",
"442.667 575.333 OFFCURVE",
"425.333 581 OFFCURVE",
"408 581 CURVE SMOOTH",
"382 581 OFFCURVE",
"354.667 560 OFFCURVE",
"326 518 CURVE",
"308.667 516.667 OFFCURVE",
"293 515.667 OFFCURVE",
"277 513 CURVE",
"299 551.667 OFFCURVE",
"318.667 575.667 OFFCURVE",
"336 585 CURVE",
"338.667 585.667 OFFCURVE",
"339.333 587.667 OFFCURVE",
"338 591 CURVE SMOOTH",
"337.333 593 OFFCURVE",
"335.667 593.333 OFFCURVE",
"333 592 CURVE SMOOTH",
"312.333 580.667 OFFCURVE",
"290.333 554 OFFCURVE",
"267 512 CURVE",
"183.667 499.333 OFFCURVE",
"118.333 473.333 OFFCURVE",
"71 434 CURVE SMOOTH",
"38 406 OFFCURVE",
"21 379 OFFCURVE",
"21 352 CURVE SMOOTH",
"21 304 OFFCURVE",
"57 280 OFFCURVE",
"125 280 CURVE SMOOTH",
"137 280 OFFCURVE",
"151.667 281 OFFCURVE",
"169 283 CURVE",
"146.333 215 OFFCURVE",
"128.333 166 OFFCURVE",
"115 134 CURVE",
"56.333 122.667 OFFCURVE",
"7 108.333 OFFCURVE",
"-33 91 CURVE SMOOTH",
"-102.333 59.667 OFFCURVE",
"-137 21.333 OFFCURVE",
"-137 -24 CURVE SMOOTH",
"-137 -61.333 OFFCURVE",
"-106.667 -91 OFFCURVE",
"-64 -91 CURVE SMOOTH"
);
},
{
closed = 1;
nodes = (
"-99.333 -81 OFFCURVE",
"-123 -57 OFFCURVE",
"-123 -25 CURVE SMOOTH",
"-123 17.667 OFFCURVE",
"-91.333 53.667 OFFCURVE",
"-28 83 CURVE SMOOTH",
"9.333 100.333 OFFCURVE",
"55.667 114.333 OFFCURVE",
"111 125 CURVE",
"92.333 75.667 OFFCURVE",
"73.667 39 OFFCURVE",
"59 15 CURVE SMOOTH",
"19.667 -49 OFFCURVE",
"-22 -81 OFFCURVE",
"-66 -81 CURVE SMOOTH"
);
},
{
closed = 1;
nodes = (
"179 285 LINE",
"185.667 286.333 OFFCURVE",
"192 287.5 OFFCURVE",
"198 288.5 CURVE SMOOTH",
"216 292 LINE",
"197.333 241.333 OFFCURVE",
"179.667 191.667 OFFCURVE",
"165 141 CURVE",
"151.667 139.667 OFFCURVE",
"140.333 138.667 OFFCURVE",
"127 136 CURVE"
);
},
{
closed = 1;
nodes = (
"252.333 -31 OFFCURVE",
"230 -12 OFFCURVE",
"230 26 CURVE SMOOTH",
"230 56.667 OFFCURVE",
"244.333 84.333 OFFCURVE",
"273 109 CURVE SMOOTH",
"274.333 110.333 OFFCURVE",
"275 111.333 OFFCURVE",
"275 112 CURVE SMOOTH",
"275 114 OFFCURVE",
"273.333 115 OFFCURVE",
"270 115 CURVE SMOOTH",
"264 115 OFFCURVE",
"256.667 111.667 OFFCURVE",
"248 105 CURVE SMOOTH",
"234 94.333 OFFCURVE",
"222.333 81 OFFCURVE",
"213 65 CURVE SMOOTH",
"187.667 25 OFFCURVE",
"173.667 3.667 OFFCURVE",
"171 1 CURVE",
"176.333 31.667 OFFCURVE",
"187.333 75 OFFCURVE",
"206 135 CURVE",
"304 137 OFFCURVE",
"358 108 OFFCURVE",
"368 48 CURVE",
"368 45.333 OFFCURVE",
"369.333 44.333 OFFCURVE",
"372 45 CURVE SMOOTH",
"374.667 45.667 OFFCURVE",
"375.667 47.333 OFFCURVE",
"375 50 CURVE SMOOTH",
"366.333 114.667 OFFCURVE",
"310.667 146 OFFCURVE",
"208 144 CURVE",
"227 205 LINE",
"270.333 214.333 OFFCURVE",
"311 219 OFFCURVE",
"349 219 CURVE SMOOTH",
"448.062 219 OFFCURVE",
"536 187.736 OFFCURVE",
"536 128 CURVE SMOOTH",
"536 102 OFFCURVE",
"520 75.667 OFFCURVE",
"488 49 CURVE SMOOTH",
"457.333 23 OFFCURVE",
"418 1.333 OFFCURVE",
"370 -16 CURVE SMOOTH",
"342 -26 OFFCURVE",
"317.667 -31 OFFCURVE",
"297 -31 CURVE SMOOTH"
);
},
{
closed = 1;
nodes = (
"64 300 OFFCURVE",
"40 313.667 OFFCURVE",
"40 341 CURVE SMOOTH",
"40 365.667 OFFCURVE",
"60 393.667 OFFCURVE",
"100 425 CURVE SMOOTH",
"142 457.667 OFFCURVE",
"194.667 481 OFFCURVE",
"258 495 CURVE",
"231.333 446.333 OFFCURVE",
"204.333 383.667 OFFCURVE",
"177 307 CURVE",
"150.333 301.667 OFFCURVE",
"129.333 300 OFFCURVE",
"112 300 CURVE SMOOTH"
);
},
{
closed = 1;
nodes = (
"213.667 385.667 OFFCURVE",
"240.667 448.667 OFFCURVE",
"268 498 CURVE",
"276.667 499.333 OFFCURVE",
"285 500.667 OFFCURVE",
"293 502 CURVE SMOOTH",
"318 506 LINE",
"288.667 459.333 OFFCURVE",
"258 397 OFFCURVE",
"226 317 CURVE",
"219.333 315.667 OFFCURVE",
"212.833 314.333 OFFCURVE",
"206.5 313 CURVE SMOOTH",
"187 309 LINE"
);
},
{
closed = 1;
nodes = (
"239.667 240.667 OFFCURVE",
"249.333 268.667 OFFCURVE",
"264 306 CURVE",
"314.667 323.333 OFFCURVE",
"370 352.333 OFFCURVE",
"434 395 CURVE SMOOTH",
"439 398 OFFCURVE",
"443 402 OFFCURVE",
"443 408 CURVE SMOOTH",
"443 411 OFFCURVE",
"442 412 OFFCURVE",
"440 412 CURVE SMOOTH",
"436.667 412 OFFCURVE",
"433.667 410.667 OFFCURVE",
"431 408 CURVE",
"385 374.667 OFFCURVE",
"332.667 348.667 OFFCURVE",
"274 330 CURVE",
"306 406.667 OFFCURVE",
"335.333 466.333 OFFCURVE",
"362 509 CURVE",
"373 509 LINE SMOOTH",
"430.333 509 OFFCURVE",
"479.667 498 OFFCURVE",
"521 476 CURVE SMOOTH",
"560 456 OFFCURVE",
"579 431 OFFCURVE",
"579 402 CURVE SMOOTH",
"579 367 OFFCURVE",
"558 336 OFFCURVE",
"519 306 CURVE SMOOTH",
"475 272.667 OFFCURVE",
"415.667 248 OFFCURVE",
"341 232 CURVE SMOOTH",
"315.667 226.667 OFFCURVE",
"279.667 223.333 OFFCURVE",
"233 222 CURVE"
);
}
);
userData = {
assembly = "PUSHW[ ]	/* 1 value pushed */\01210 \012CALL[ ]	/* CallFunction */\012SVTCA[0]	/* SetFreedomAndProjectionVectorToAxis */\012PUSHW[ ]	/* 1 value pushed */\012179 \012MDAP[1]	/* MoveDirectAbsPt */\012PUSHW[ ]	/* 4 values pushed */\01276 947 153 14 \012CALL[ ]	/* CallFunction */\012PUSHW[ ]	/* 3 values pushed */\012118 25 13 \012CALL[ ]	/* CallFunction */\012PUSHW[ ]	/* 3 values pushed */\01217 59 13 \012CALL[ ]	/* CallFunction */\012PUSHW[ ]	/* 4 values pushed */\01236 948 191 14 \012CALL[ ]	/* CallFunction */\012PUSHW[ ]	/* 3 values pushed */\01214 59 17 \012SRP1[ ]	/* SetRefPoint1 */\012SRP2[ ]	/* SetRefPoint2 */\012IP[ ]	/* InterpolatePts */\012PUSHW[ ]	/* 1 value pushed */\01236 \012SRP0[ ]	/* SetRefPoint0 */\012PUSHW[ ]	/* 1 value pushed */\01228 \012MDRP[10000]	/* MoveDirectRelPt */\012PUSHW[ ]	/* 1 value pushed */\01228 \012MDAP[1]	/* MoveDirectAbsPt */\012PUSHW[ ]	/* 1 value pushed */\012153 \012SRP0[ ]	/* SetRefPoint0 */\012PUSHW[ ]	/* 1 value pushed */\01251 \012MDRP[11100]	/* MoveDirectRelPt */\012PUSHW[ ]	/* 3 values pushed */\01239 153 51 \012SRP1[ ]	/* SetRefPoint1 */\012SRP2[ ]	/* SetRefPoint2 */\012IP[ ]	/* InterpolatePts */\012PUSHW[ ]	/* 3 values pushed */\01257 153 51 \012SRP1[ ]	/* SetRefPoint1 */\012SRP2[ ]	/* SetRefPoint2 */\012IP[ ]	/* InterpolatePts */\012PUSHW[ ]	/* 3 values pushed */\01272 153 51 \012SRP1[ ]	/* SetRefPoint1 */\012SRP2[ ]	/* SetRefPoint2 */\012IP[ ]	/* InterpolatePts */\012PUSHW[ ]	/* 3 values pushed */\01291 153 51 \012SRP1[ ]	/* SetRefPoint1 */\012SRP2[ ]	/* SetRefPoint2 */\012IP[ ]	/* InterpolatePts */\012PUSHW[ ]	/* 1 value pushed */\01294 \012MDRP[10000]	/* MoveDirectRelPt */\012PUSHW[ ]	/* 1 value pushed */\01294 \012MDAP[1]	/* MoveDirectAbsPt */\012PUSHW[ ]	/* 3 values pushed */\01297 191 36 \012SRP1[ ]	/* SetRefPoint1 */\012SRP2[ ]	/* SetRefPoint2 */\012IP[ ]	/* InterpolatePts */\012PUSHW[ ]	/* 3 values pushed */\012113 25 118 \012SRP1[ ]	/* SetRefPoint1 */\012SRP2[ ]	/* SetRefPoint2 */\012IP[ ]	/* InterpolatePts */\012PUSHW[ ]	/* 3 values pushed */\012133 25 118 \012SRP1[ ]	/* SetRefPoint1 */\012SRP2[ ]	/* SetRefPoint2 */\012IP[ ]	/* InterpolatePts */\012PUSHW[ ]	/* 1 value pushed */\01217 \012SRP0[ ]	/* SetRefPoint0 */\012PUSHW[ ]	/* 1 value pushed */\012143 \012MDRP[10000]	/* MoveDirectRelPt */\012PUSHW[ ]	/* 3 values pushed */\012161 153 51 \012SRP1[ ]	/* SetRefPoint1 */\012SRP2[ ]	/* SetRefPoint2 */\012IP[ ]	/* InterpolatePts */\012PUSHW[ ]	/* 1 value pushed */\01276 \012SRP0[ ]	/* SetRefPoint0 */\012PUSHW[ ]	/* 1 value pushed */\012166 \012MDRP[10000]	/* MoveDirectRelPt */\012PUSHW[ ]	/* 3 values pushed */\012171 153 51 \012SRP1[ ]	/* SetRefPoint1 */\012SRP2[ ]	/* SetRefPoint2 */\012IP[ ]	/* InterpolatePts */\012PUSHW[ ]	/* 1 value pushed */\012191 \012SRP0[ ]	/* SetRefPoint0 */\012PUSHW[ ]	/* 1 value pushed */\012189 \012MDRP[10000]	/* MoveDirectRelPt */\012PUSHW[ ]	/* 1 value pushed */\012189 \012MDAP[1]	/* MoveDirectAbsPt */\012PUSHW[ ]	/* 1 value pushed */\01225 \012SRP0[ ]	/* SetRefPoint0 */\012PUSHW[ ]	/* 1 value pushed */\012197 \012MDRP[10000]	/* MoveDirectRelPt */\012PUSHW[ ]	/* 1 value pushed */\012197 \012MDAP[1]	/* MoveDirectAbsPt */\012IUP[0]	/* InterpolateUntPts */\012IUP[1]	/* InterpolateUntPts */";
};
width = 592;
}
);
note = B;
unicode = 0042;
},
{
glyphname = C;
lastChange = "2021-05-11 10:36:16 +0000";
layers = (
{
anchors = (
{
name = bottom;
position = "{239, -97}";
},
{
name = top;
position = "{403, 533}";
}
);
layerId = "0B90A97B-D71D-49C5-8F31-ED3EF6E28084";
paths = (
{
closed = 1;
nodes = (
"281.667 -94 OFFCURVE",
"325 -70.667 OFFCURVE",
"359 -24 CURVE",
"439 1.333 OFFCURVE",
"499.667 44.667 OFFCURVE",
"541 106 CURVE SMOOTH",
"553.667 124.667 OFFCURVE",
"560 138.667 OFFCURVE",
"560 148 CURVE SMOOTH",
"560 150.667 OFFCURVE",
"559.333 152 OFFCURVE",
"558 152 CURVE SMOOTH",
"553.333 152 OFFCURVE",
"543 139.333 OFFCURVE",
"527 114 CURVE SMOOTH",
"494.333 60 OFFCURVE",
"443.667 23 OFFCURVE",
"375 3 CURVE",
"385.667 23.667 OFFCURVE",
"391 44.667 OFFCURVE",
"391 66 CURVE SMOOTH",
"391 102.667 OFFCURVE",
"377.333 128.667 OFFCURVE",
"350 144 CURVE SMOOTH",
"347.333 145.333 OFFCURVE",
"345.667 145 OFFCURVE",
"345 143 CURVE SMOOTH",
"343.667 139.667 OFFCURVE",
"344 137.667 OFFCURVE",
"346 137 CURVE SMOOTH",
"368 125 OFFCURVE",
"379 102.333 OFFCURVE",
"379 69 CURVE SMOOTH",
"379 45 OFFCURVE",
"373 21.667 OFFCURVE",
"361 -1 CURVE",
"335.5 -5 LINE SMOOTH",
"327 -6 OFFCURVE",
"318.333 -7.333 OFFCURVE",
"309 -8 CURVE SMOOTH",
"201 -14.667 OFFCURVE",
"118.333 40.667 OFFCURVE",
"85 130 CURVE",
"90.333 191.333 OFFCURVE",
"107.667 247.667 OFFCURVE",
"137 301 CURVE SMOOTH",
"170.333 361 OFFCURVE",
"213 407.667 OFFCURVE",
"265 441 CURVE SMOOTH",
"309.667 469.667 OFFCURVE",
"353.667 484 OFFCURVE",
"397 484 CURVE SMOOTH",
"453 484 OFFCURVE",
"488 458 OFFCURVE",
"488 414 CURVE",
"446 416.667 OFFCURVE",
"402.667 411.667 OFFCURVE",
"358 399 CURVE SMOOTH",
"314.667 387 OFFCURVE",
"279.667 370.333 OFFCURVE",
"253 349 CURVE SMOOTH",
"213 315 OFFCURVE",
"193 281.667 OFFCURVE",
"193 249 CURVE SMOOTH",
"193 201 OFFCURVE",
"238.667 167 OFFCURVE",
"304 167 CURVE SMOOTH",
"332 167 OFFCURVE",
"360 172.333 OFFCURVE",
"388 183 CURVE SMOOTH",
"432.667 200.333 OFFCURVE",
"472.333 228 OFFCURVE",
"507 266 CURVE SMOOTH",
"542.333 304.667 OFFCURVE",
"562.667 344 OFFCURVE",
"568 384 CURVE",
"574.667 380.667 OFFCURVE",
"579 379 OFFCURVE",
"581 378 CURVE SMOOTH",
"586 376 LINE",
"588.667 376 OFFCURVE",
"589.667 378 OFFCURVE",
"589 382 CURVE",
"586.333 388.667 OFFCURVE",
"577 393.333 OFFCURVE",
"569 396 CURVE",
"570.333 427.333 OFFCURVE",
"558.667 454.667 OFFCURVE",
"534 478 CURVE SMOOTH",
"513.333 498.667 OFFCURVE",
"487 513.333 OFFCURVE",
"455 522 CURVE SMOOTH",
"429 529.333 OFFCURVE",
"403 533 OFFCURVE",
"377 533 CURVE SMOOTH",
"322.333 533 OFFCURVE",
"267 519.333 OFFCURVE",
"211 492 CURVE SMOOTH",
"157.667 465.333 OFFCURVE",
"115.333 429.333 OFFCURVE",
"84 384 CURVE SMOOTH",
"43.333 325.333 OFFCURVE",
"23 264 OFFCURVE",
"23 200 CURVE SMOOTH",
"23 141.333 OFFCURVE",
"40.667 90.333 OFFCURVE",
"76 47 CURVE",
"84 3 OFFCURVE",
"103 -32 OFFCURVE",
"133 -58 CURVE SMOOTH",
"161 -82 OFFCURVE",
"193 -94 OFFCURVE",
"229 -94 CURVE SMOOTH"
);
},
{
closed = 1;
nodes = (
"164.667 -84 OFFCURVE",
"111 -43.333 OFFCURVE",
"91 30 CURVE",
"137.667 -15.333 OFFCURVE",
"195.667 -38 OFFCURVE",
"265 -38 CURVE SMOOTH",
"290.333 -38 OFFCURVE",
"315.667 -35 OFFCURVE",
"341 -29 CURVE",
"309 -65.667 OFFCURVE",
"270.667 -84 OFFCURVE",
"226 -84 CURVE SMOOTH"
);
},
{
closed = 1;
nodes = (
"73 176 OFFCURVE",
"71 192.667 OFFCURVE",
"71 210 CURVE SMOOTH",
"71 254.667 OFFCURVE",
"82.333 298.333 OFFCURVE",
"105 341 CURVE SMOOTH",
"135.667 401 OFFCURVE",
"178.333 446.333 OFFCURVE",
"233 477 CURVE SMOOTH",
"277.667 501 OFFCURVE",
"325.333 513 OFFCURVE",
"376 513 CURVE SMOOTH",
"407.333 513 OFFCURVE",
"433.667 508.667 OFFCURVE",
"455 500 CURVE SMOOTH",
"511 478.667 OFFCURVE",
"542.333 446.667 OFFCURVE",
"549 404 CURVE",
"533.667 408.667 OFFCURVE",
"516.667 411.667 OFFCURVE",
"498 413 CURVE",
"499.333 462.333 OFFCURVE",
"456 494 OFFCURVE",
"392 494 CURVE SMOOTH",
"346.667 494 OFFCURVE",
"301.667 480 OFFCURVE",
"257 452 CURVE SMOOTH",
"204.333 418.667 OFFCURVE",
"161.333 372 OFFCURVE",
"128 312 CURVE SMOOTH",
"102 265.333 OFFCURVE",
"85 214.667 OFFCURVE",
"77 160 CURVE"
);
},
{
closed = 1;
nodes = (
"258 182 OFFCURVE",
"222 210 OFFCURVE",
"222 250 CURVE SMOOTH",
"222 276.667 OFFCURVE",
"237 303 OFFCURVE",
"267 329 CURVE SMOOTH",
"289 348.333 OFFCURVE",
"321.333 364.667 OFFCURVE",
"364 378 CURVE SMOOTH",
"406 391.333 OFFCURVE",
"446.667 398 OFFCURVE",
"486 398 CURVE",
"482.667 381.333 OFFCURVE",
"475.667 364.667 OFFCURVE",
"465 348 CURVE SMOOTH",
"432 295 OFFCURVE",
"358 264 OFFCURVE",
"283 264 CURVE SMOOTH",
"276 264 OFFCURVE",
"272 263 OFFCURVE",
"272 260 CURVE SMOOTH",
"272 258 OFFCURVE",
"276.667 256.333 OFFCURVE",
"286 255 CURVE",
"368.667 252.333 OFFCURVE",
"431 282.667 OFFCURVE",
"473 346 CURVE SMOOTH",
"485.667 364.667 OFFCURVE",
"493.333 382 OFFCURVE",
"496 398 CURVE",
"517.333 396.667 OFFCURVE",
"535 395.333 OFFCURVE",
"551 390 CURVE",
"551.667 352.667 OFFCURVE",
"534 313.667 OFFCURVE",
"498 273 CURVE SMOOTH",
"463.333 235 OFFCURVE",
"424.333 208.667 OFFCURVE",
"381 194 CURVE SMOOTH",
"357.667 186 OFFCURVE",
"335.333 182 OFFCURVE",
"314 182 CURVE SMOOTH"
);
}
);
userData = {
assembly = "PUSHW[ ]	/* 1 value pushed */\01210 \012CALL[ ]	/* CallFunction */\012PUSHW[ ]	/* 4 values pushed */\01221 950 78 14 \012CALL[ ]	/* CallFunction */\012PUSHW[ ]	/* 4 values pushed */\012136 951 108 14 \012CALL[ ]	/* CallFunction */\012PUSHW[ ]	/* 3 values pushed */\01290 50 13 \012CALL[ ]	/* CallFunction */\012NPUSHW[ ]	/* 21 values pushed */\012102 21 118 21 134 21 150 21 166 21 182 21 198 21 214 21 230 21 246 21 10 \012DELTAP1[ ]	/* DeltaExceptionP1 */\012NPUSHW[ ]	/* 33 values pushed */\0126 21 22 21 38 21 54 21 70 21 86 21 102 21 118 21 134 21 150 21 166 21 182 21 198 21 214 21 230 21 246 21 16 \012DELTAP2[ ]	/* DeltaExceptionP2 */\012NPUSHW[ ]	/* 21 values pushed */\0126 21 22 21 38 21 54 21 70 21 86 21 102 21 118 21 134 21 150 21 10 \012DELTAP3[ ]	/* DeltaExceptionP3 */\012NPUSHW[ ]	/* 5 values pushed */\012165 21 181 21 2 \012DELTAP3[ ]	/* DeltaExceptionP3 */\012PUSHW[ ]	/* 1 value pushed */\01221 \012SRP0[ ]	/* SetRefPoint0 */\012PUSHW[ ]	/* 1 value pushed */\0120 \012MDRP[10000]	/* MoveDirectRelPt */\012PUSHW[ ]	/* 1 value pushed */\0120 \012MDAP[1]	/* MoveDirectAbsPt */\012NPUSHW[ ]	/* 5 values pushed */\01258 50 74 50 2 \012DELTAP2[ ]	/* DeltaExceptionP2 */\012NPUSHW[ ]	/* 21 values pushed */\012105 50 121 50 137 50 153 50 169 50 185 50 201 50 217 50 233 50 249 50 10 \012DELTAP1[ ]	/* DeltaExceptionP1 */\012NPUSHW[ ]	/* 7 values pushed */\0129 50 25 50 41 50 3 \012DELTAP2[ ]	/* DeltaExceptionP2 */\012PUSHW[ ]	/* 3 values pushed */\01211 50 90 \012SRP1[ ]	/* SetRefPoint1 */\012SRP2[ ]	/* SetRefPoint2 */\012IP[ ]	/* InterpolatePts */\012PUSHW[ ]	/* 3 values pushed */\01223 78 90 \012SRP1[ ]	/* SetRefPoint1 */\012SRP2[ ]	/* SetRefPoint2 */\012IP[ ]	/* InterpolatePts */\012PUSHW[ ]	/* 3 values pushed */\01228 78 90 \012SRP1[ ]	/* SetRefPoint1 */\012SRP2[ ]	/* SetRefPoint2 */\012IP[ ]	/* InterpolatePts */\012PUSHW[ ]	/* 1 value pushed */\01290 \012SRP0[ ]	/* SetRefPoint0 */\012PUSHW[ ]	/* 2 values pushed */\01232 952 \012MIRP[10100]	/* MoveIndirectRelPt */\012PUSHW[ ]	/* 3 values pushed */\01256 78 90 \012SRP1[ ]	/* SetRefPoint1 */\012SRP2[ ]	/* SetRefPoint2 */\012IP[ ]	/* InterpolatePts */\012PUSHW[ ]	/* 3 values pushed */\01260 78 90 \012SRP1[ ]	/* SetRefPoint1 */\012SRP2[ ]	/* SetRefPoint2 */\012IP[ ]	/* InterpolatePts */\012PUSHW[ ]	/* 1 value pushed */\01290 \012SRP0[ ]	/* SetRefPoint0 */\012PUSHW[ ]	/* 1 value pushed */\01299 \012MDRP[10000]	/* MoveDirectRelPt */\012PUSHW[ ]	/* 1 value pushed */\01299 \012MDAP[1]	/* MoveDirectAbsPt */\012PUSHW[ ]	/* 1 value pushed */\01232 \012SRP0[ ]	/* SetRefPoint0 */\012PUSHW[ ]	/* 1 value pushed */\012130 \012MDRP[10000]	/* MoveDirectRelPt */\012PUSHW[ ]	/* 1 value pushed */\012130 \012MDAP[1]	/* MoveDirectAbsPt */\012NPUSHW[ ]	/* 21 values pushed */\012102 136 118 136 134 136 150 136 166 136 182 136 198 136 214 136 230 136 246 136 10 \012DELTAP1[ ]	/* DeltaExceptionP1 */\012NPUSHW[ ]	/* 33 values pushed */\0126 136 22 136 38 136 54 136 70 136 86 136 102 136 118 136 134 136 150 136 166 136 182 136 198 136 214 136 230 136 246 136 16 \012DELTAP2[ ]	/* DeltaExceptionP2 */\012NPUSHW[ ]	/* 21 values pushed */\0126 136 22 136 38 136 54 136 70 136 86 136 102 136 118 136 134 136 150 136 10 \012DELTAP3[ ]	/* DeltaExceptionP3 */\012NPUSHW[ ]	/* 5 values pushed */\012165 136 181 136 2 \012DELTAP3[ ]	/* DeltaExceptionP3 */\012PUSHW[ ]	/* 1 value pushed */\01290 \012SRP0[ ]	/* SetRefPoint0 */\012PUSHW[ ]	/* 1 value pushed */\012146 \012MDRP[11100]	/* MoveDirectRelPt */\012SVTCA[0]	/* SetFreedomAndProjectionVectorToAxis */\012PUSHW[ ]	/* 3 values pushed */\01245 72 13 \012CALL[ ]	/* CallFunction */\012PUSHW[ ]	/* 4 values pushed */\01284 948 15 14 \012CALL[ ]	/* CallFunction */\012PUSHW[ ]	/* 3 values pushed */\0126 130 13 \012CALL[ ]	/* CallFunction */\012PUSHW[ ]	/* 3 values pushed */\012125 105 13 \012CALL[ ]	/* CallFunction */\012PUSHW[ ]	/* 3 values pushed */\01211 130 6 \012SRP1[ ]	/* SetRefPoint1 */\012SRP2[ ]	/* SetRefPoint2 */\012IP[ ]	/* InterpolatePts */\012PUSHW[ ]	/* 3 values pushed */\01228 72 45 \012SRP1[ ]	/* SetRefPoint1 */\012SRP2[ ]	/* SetRefPoint2 */\012IP[ ]	/* InterpolatePts */\012PUSHW[ ]	/* 1 value pushed */\01245 \012SRP0[ ]	/* SetRefPoint0 */\012PUSHW[ ]	/* 2 values pushed */\01230 949 \012MIRP[10100]	/* MoveIndirectRelPt */\012PUSHW[ ]	/* 1 value pushed */\01284 \012SRP0[ ]	/* SetRefPoint0 */\012PUSHW[ ]	/* 2 values pushed */\01235 949 \012MIRP[10100]	/* MoveIndirectRelPt */\012PUSHW[ ]	/* 1 value pushed */\01245 \012SRP0[ ]	/* SetRefPoint0 */\012PUSHW[ ]	/* 1 value pushed */\01248 \012MDRP[10000]	/* MoveDirectRelPt */\012PUSHW[ ]	/* 1 value pushed */\01248 \012MDAP[1]	/* MoveDirectAbsPt */\012PUSHW[ ]	/* 1 value pushed */\0126 \012SRP0[ ]	/* SetRefPoint0 */\012PUSHW[ ]	/* 1 value pushed */\012121 \012MDRP[11100]	/* MoveDirectRelPt */\012PUSHW[ ]	/* 3 values pushed */\01299 6 121 \012SRP1[ ]	/* SetRefPoint1 */\012SRP2[ ]	/* SetRefPoint2 */\012IP[ ]	/* InterpolatePts */\012PUSHW[ ]	/* 1 value pushed */\012130 \012SRP0[ ]	/* SetRefPoint0 */\012PUSHW[ ]	/* 1 value pushed */\012117 \012MDRP[10000]	/* MoveDirectRelPt */\012IUP[0]	/* InterpolateUntPts */\012IUP[1]	/* InterpolateUntPts */";
};
width = 553;
}
);
note = C;
unicode = 0043;
},
{
glyphname = D;
lastChange = "2021-05-11 10:36:32 +0000";
layers = (
{
anchors = (
{
name = bottom;
position = "{282, -165}";
},
{
name = center;
position = "{362, 305}";
},
{
name = top;
position = "{488, 561}";
}
);
layerId = "0B90A97B-D71D-49C5-8F31-ED3EF6E28084";
paths = (
{
closed = 1;
nodes = (
"340 -171 OFFCURVE",
"411.333 -120 OFFCURVE",
"458 -28 CURVE",
"527.333 -14.667 OFFCURVE",
"583.667 10.667 OFFCURVE",
"627 48 CURVE SMOOTH",
"707 117 OFFCURVE",
"747 191 OFFCURVE",
"747 270 CURVE SMOOTH",
"747 331 OFFCURVE",
"721 383 OFFCURVE",
"670 427 CURVE SMOOTH",
"610 478.333 OFFCURVE",
"526.667 508.333 OFFCURVE",
"420 517 CURVE",
"436.667 539 OFFCURVE",
"453.333 550 OFFCURVE",
"470 550 CURVE SMOOTH",
"480.667 550 OFFCURVE",
"492.667 545.333 OFFCURVE",
"506 536 CURVE SMOOTH",
"510 533.333 OFFCURVE",
"513.333 530 OFFCURVE",
"516 526 CURVE SMOOTH",
"518.667 522 OFFCURVE",
"521 520 OFFCURVE",
"523 520 CURVE SMOOTH",
"526.333 520 OFFCURVE",
"528 521.333 OFFCURVE",
"528 524 CURVE SMOOTH",
"528 530 OFFCURVE",
"520.333 538.667 OFFCURVE",
"505 550 CURVE SMOOTH",
"487.667 561.333 OFFCURVE",
"470.333 567 OFFCURVE",
"453 567 CURVE SMOOTH",
"429 567 OFFCURVE",
"405.667 551 OFFCURVE",
"383 519 CURVE",
"365.667 520.333 OFFCURVE",
"348.333 520.333 OFFCURVE",
"331 519 CURVE",
"343.667 547.667 OFFCURVE",
"349.333 569.333 OFFCURVE",
"348 584 CURVE",
"346.667 587.333 OFFCURVE",
"345.333 589.333 OFFCURVE",
"344 590 CURVE SMOOTH",
"342 590.667 OFFCURVE",
"341 590 OFFCURVE",
"341 588 CURVE SMOOTH",
"337.667 569.333 OFFCURVE",
"330.333 546.333 OFFCURVE",
"319 519 CURVE",
"235.667 513.667 OFFCURVE",
"168.667 498.667 OFFCURVE",
"118 474 CURVE SMOOTH",
"52.667 440.667 OFFCURVE",
"20 398.333 OFFCURVE",
"20 347 CURVE SMOOTH",
"20 297.667 OFFCURVE",
"61 260 OFFCURVE",
"133 260 CURVE SMOOTH",
"155.667 260 OFFCURVE",
"182 264 OFFCURVE",
"212 272 CURVE",
"185.333 201.333 OFFCURVE",
"167.667 145.333 OFFCURVE",
"159 104 CURVE SMOOTH",
"152 67 OFFCURVE",
"148 34 OFFCURVE",
"148 4 CURVE SMOOTH",
"148 -38 OFFCURVE",
"156 -74 OFFCURVE",
"170 -103 CURVE SMOOTH",
"192 -148.333 OFFCURVE",
"226 -171 OFFCURVE",
"272 -171 CURVE SMOOTH"
);
},
{
closed = 1;
nodes = (
"241.667 -154 OFFCURVE",
"215.667 -141 OFFCURVE",
"197 -115 CURVE SMOOTH",
"175 -87 OFFCURVE",
"164 -46.667 OFFCURVE",
"164 6 CURVE SMOOTH",
"164 34 OFFCURVE",
"167.667 66.333 OFFCURVE",
"175 103 CURVE SMOOTH",
"183.667 149 OFFCURVE",
"200.667 206.333 OFFCURVE",
"226 275 CURVE",
"249 282.5 LINE SMOOTH",
"257 285 OFFCURVE",
"265 287.667 OFFCURVE",
"273 291 CURVE",
"229 167 OFFCURVE",
"204 70 OFFCURVE",
"198 0 CURVE SMOOTH",
"196.667 -13.333 OFFCURVE",
"216.333 -31 OFFCURVE",
"227 -31 CURVE SMOOTH",
"228.333 -31 OFFCURVE",
"229.667 -30.333 OFFCURVE",
"231 -29 CURVE",
"253.667 8.333 OFFCURVE",
"270.667 35.667 OFFCURVE",
"284 53 CURVE",
"281.333 45.667 OFFCURVE",
"280 38 OFFCURVE",
"280 30 CURVE SMOOTH",
"280 -12.667 OFFCURVE",
"317.667 -34 OFFCURVE",
"393 -34 CURVE SMOOTH",
"407.667 -34 OFFCURVE",
"423.667 -33 OFFCURVE",
"441 -31 CURVE",
"398.333 -108.333 OFFCURVE",
"335 -154 OFFCURVE",
"275 -154 CURVE SMOOTH"
);
},
{
closed = 1;
nodes = (
"321 -6 OFFCURVE",
"291 9.333 OFFCURVE",
"291 40 CURVE SMOOTH",
"291 60 OFFCURVE",
"306 83 OFFCURVE",
"336 109 CURVE SMOOTH",
"337.333 110.333 OFFCURVE",
"338 111.333 OFFCURVE",
"338 112 CURVE SMOOTH",
"338 114 OFFCURVE",
"336.333 115 OFFCURVE",
"333 115 CURVE SMOOTH",
"327 115 OFFCURVE",
"319.667 111.667 OFFCURVE",
"311 105 CURVE SMOOTH",
"298.333 95 OFFCURVE",
"287 81.667 OFFCURVE",
"277 65 CURVE SMOOTH",
"251.667 23.667 OFFCURVE",
"238.333 2.333 OFFCURVE",
"237 1 CURVE",
"243.667 67.667 OFFCURVE",
"272.333 169.667 OFFCURVE",
"323 311 CURVE",
"362.333 328.333 OFFCURVE",
"397.333 347.667 OFFCURVE",
"428 369 CURVE",
"468.667 317.667 OFFCURVE",
"489 250.333 OFFCURVE",
"489 167 CURVE SMOOTH",
"489 110.333 OFFCURVE",
"478.333 56 OFFCURVE",
"457 4 CURVE",
"431 -2.667 OFFCURVE",
"405.667 -6 OFFCURVE",
"381 -6 CURVE SMOOTH"
);
},
{
closed = 1;
nodes = (
"65.333 281 OFFCURVE",
"39 298.667 OFFCURVE",
"39 334 CURVE SMOOTH",
"39 372.667 OFFCURVE",
"75 420.667 OFFCURVE",
"131 454 CURVE SMOOTH",
"177.667 481.333 OFFCURVE",
"238.667 498.667 OFFCURVE",
"314 506 CURVE",
"308.667 492.667 OFFCURVE",
"300 478 OFFCURVE",
"293 461 CURVE SMOOTH",
"291 456 LINE",
"288.333 456.667 OFFCURVE",
"285.667 457 OFFCURVE",
"283 457 CURVE SMOOTH",
"275 457 LINE SMOOTH",
"233 457 OFFCURVE",
"198.333 446.333 OFFCURVE",
"171 421 CURVE SMOOTH",
"146.333 399 OFFCURVE",
"134 375 OFFCURVE",
"134 349 CURVE SMOOTH",
"134 344.333 OFFCURVE",
"134.5 340.167 OFFCURVE",
"135.5 336.5 CURVE SMOOTH",
"136.5 332.833 OFFCURVE",
"138.333 331.333 OFFCURVE",
"141 332 CURVE SMOOTH",
"143.667 332.667 OFFCURVE",
"144.667 334.333 OFFCURVE",
"144 337 CURVE SMOOTH",
"143.333 339 OFFCURVE",
"143 342.667 OFFCURVE",
"143 348 CURVE SMOOTH",
"143 371.333 OFFCURVE",
"154.667 393.667 OFFCURVE",
"178 415 CURVE SMOOTH",
"206 440.333 OFFCURVE",
"238.333 451.667 OFFCURVE",
"275 449 CURVE SMOOTH",
"280.333 449 OFFCURVE",
"284.333 448.667 OFFCURVE",
"287 448 CURVE",
"264.333 400 OFFCURVE",
"243.333 350 OFFCURVE",
"222 298 CURVE",
"178 286.667 OFFCURVE",
"143.333 281 OFFCURVE",
"118 281 CURVE SMOOTH"
);
},
{
closed = 1;
nodes = (
"255 354.667 OFFCURVE",
"275.667 403 OFFCURVE",
"297 447 CURVE",
"310.333 445 OFFCURVE",
"323 441.667 OFFCURVE",
"335 437 CURVE",
"317.667 402.333 OFFCURVE",
"300.333 362.333 OFFCURVE",
"283 317 CURVE",
"235 302 LINE"
);
},
{
closed = 1;
nodes = (
"345 368 OFFCURVE",
"357.333 396.667 OFFCURVE",
"368 422 CURVE",
"387.333 410.667 OFFCURVE",
"404.667 396.333 OFFCURVE",
"420 379 CURVE",
"393.333 364.333 OFFCURVE",
"365 349.333 OFFCURVE",
"333 336 CURVE"
);
},
{
closed = 1;
nodes = (
"495 59.667 OFFCURVE",
"505 112.667 OFFCURVE",
"505 168 CURVE SMOOTH",
"505 252.667 OFFCURVE",
"483.333 322.333 OFFCURVE",
"440 377 CURVE",
"466 395.667 OFFCURVE",
"489.667 416 OFFCURVE",
"511 438 CURVE SMOOTH",
"513 440 OFFCURVE",
"515 443 OFFCURVE",
"515 448 CURVE SMOOTH",
"515 450 OFFCURVE",
"515 451 OFFCURVE",
"514 451 CURVE SMOOTH",
"512.667 451 OFFCURVE",
"511 450 OFFCURVE",
"509 448 CURVE SMOOTH",
"474.333 417.333 OFFCURVE",
"449.333 397.667 OFFCURVE",
"432 387 CURVE",
"414 407 OFFCURVE",
"394.333 422.333 OFFCURVE",
"373 433 CURVE",
"387 463.667 OFFCURVE",
"400.333 488 OFFCURVE",
"413 506 CURVE",
"501.667 498.667 OFFCURVE",
"572.333 473.333 OFFCURVE",
"625 430 CURVE SMOOTH",
"678.333 386 OFFCURVE",
"705 333.667 OFFCURVE",
"705 273 CURVE SMOOTH",
"705 206.333 OFFCURVE",
"672 142.667 OFFCURVE",
"606 82 CURVE SMOOTH",
"569.333 48 OFFCURVE",
"525.667 23.667 OFFCURVE",
"475 9 CURVE"
);
},
{
closed = 1;
nodes = (
"325.667 451.667 OFFCURVE",
"313 454.333 OFFCURVE",
"301 455 CURVE",
"314.333 483 OFFCURVE",
"322.333 500.333 OFFCURVE",
"325 507 CURVE",
"333.667 507.667 OFFCURVE",
"342 508 OFFCURVE",
"350 508 CURVE SMOOTH",
"375 508 LINE",
"364.333 490.667 OFFCURVE",
"352.333 471 OFFCURVE",
"339 447 CURVE"
);
}
);
userData = {
assembly = "PUSHW[ ]	/* 1 value pushed */\01210 \012CALL[ ]	/* CallFunction */\012PUSHW[ ]	/* 3 values pushed */\012192 48 13 \012CALL[ ]	/* CallFunction */\012PUSHW[ ]	/* 4 values pushed */\01297 952 112 14 \012CALL[ ]	/* CallFunction */\012NPUSHW[ ]	/* 5 values pushed */\01258 48 74 48 2 \012DELTAP2[ ]	/* DeltaExceptionP2 */\012NPUSHW[ ]	/* 21 values pushed */\012105 48 121 48 137 48 153 48 169 48 185 48 201 48 217 48 233 48 249 48 10 \012DELTAP1[ ]	/* DeltaExceptionP1 */\012NPUSHW[ ]	/* 7 values pushed */\0129 48 25 48 41 48 3 \012DELTAP2[ ]	/* DeltaExceptionP2 */\012PUSHW[ ]	/* 3 values pushed */\0125 48 192 \012SRP1[ ]	/* SetRefPoint1 */\012SRP2[ ]	/* SetRefPoint2 */\012IP[ ]	/* InterpolatePts */\012PUSHW[ ]	/* 3 values pushed */\01229 48 192 \012SRP1[ ]	/* SetRefPoint1 */\012SRP2[ ]	/* SetRefPoint2 */\012IP[ ]	/* InterpolatePts */\012PUSHW[ ]	/* 1 value pushed */\01229 \012MDAP[1]	/* MoveDirectAbsPt */\012NPUSHW[ ]	/* 5 values pushed */\01258 29 74 29 2 \012DELTAP2[ ]	/* DeltaExceptionP2 */\012NPUSHW[ ]	/* 21 values pushed */\012105 29 121 29 137 29 153 29 169 29 185 29 201 29 217 29 233 29 249 29 10 \012DELTAP1[ ]	/* DeltaExceptionP1 */\012NPUSHW[ ]	/* 7 values pushed */\0129 29 25 29 41 29 3 \012DELTAP2[ ]	/* DeltaExceptionP2 */\012PUSHW[ ]	/* 1 value pushed */\01210 \012MDRP[11100]	/* MoveDirectRelPt */\012PUSHW[ ]	/* 3 values pushed */\01227 48 192 \012SRP1[ ]	/* SetRefPoint1 */\012SRP2[ ]	/* SetRefPoint2 */\012IP[ ]	/* InterpolatePts */\012PUSHW[ ]	/* 1 value pushed */\01248 \012SRP0[ ]	/* SetRefPoint0 */\012PUSHW[ ]	/* 2 values pushed */\01237 952 \012MIRP[10100]	/* MoveIndirectRelPt */\012PUSHW[ ]	/* 3 values pushed */\01244 48 192 \012SRP1[ ]	/* SetRefPoint1 */\012SRP2[ ]	/* SetRefPoint2 */\012IP[ ]	/* InterpolatePts */\012PUSHW[ ]	/* 3 values pushed */\01250 48 192 \012SRP1[ ]	/* SetRefPoint1 */\012SRP2[ ]	/* SetRefPoint2 */\012IP[ ]	/* InterpolatePts */\012PUSHW[ ]	/* 3 values pushed */\01260 48 37 \012SRP1[ ]	/* SetRefPoint1 */\012SRP2[ ]	/* SetRefPoint2 */\012IP[ ]	/* InterpolatePts */\012PUSHW[ ]	/* 3 values pushed */\01265 48 37 \012SRP1[ ]	/* SetRefPoint1 */\012SRP2[ ]	/* SetRefPoint2 */\012IP[ ]	/* InterpolatePts */\012PUSHW[ ]	/* 3 values pushed */\01273 48 192 \012SRP1[ ]	/* SetRefPoint1 */\012SRP2[ ]	/* SetRefPoint2 */\012IP[ ]	/* InterpolatePts */\012PUSHW[ ]	/* 3 values pushed */\01278 48 192 \012SRP1[ ]	/* SetRefPoint1 */\012SRP2[ ]	/* SetRefPoint2 */\012IP[ ]	/* InterpolatePts */\012NPUSHW[ ]	/* 21 values pushed */\012102 97 118 97 134 97 150 97 166 97 182 97 198 97 214 97 230 97 246 97 10 \012DELTAP1[ ]	/* DeltaExceptionP1 */\012NPUSHW[ ]	/* 7 values pushed */\0126 97 22 97 38 97 3 \012DELTAP2[ ]	/* DeltaExceptionP2 */\012NPUSHW[ ]	/* 5 values pushed */\01253 97 69 97 2 \012DELTAP2[ ]	/* DeltaExceptionP2 */\012PUSHW[ ]	/* 3 values pushed */\012107 48 192 \012SRP1[ ]	/* SetRefPoint1 */\012SRP2[ ]	/* SetRefPoint2 */\012IP[ ]	/* InterpolatePts */\012PUSHW[ ]	/* 3 values pushed */\012125 48 37 \012SRP1[ ]	/* SetRefPoint1 */\012SRP2[ ]	/* SetRefPoint2 */\012IP[ ]	/* InterpolatePts */\012PUSHW[ ]	/* 3 values pushed */\012140 48 192 \012SRP1[ ]	/* SetRefPoint1 */\012SRP2[ ]	/* SetRefPoint2 */\012IP[ ]	/* InterpolatePts */\012PUSHW[ ]	/* 3 values pushed */\012142 48 192 \012SRP1[ ]	/* SetRefPoint1 */\012SRP2[ ]	/* SetRefPoint2 */\012IP[ ]	/* InterpolatePts */\012PUSHW[ ]	/* 3 values pushed */\012159 48 192 \012SRP1[ ]	/* SetRefPoint1 */\012SRP2[ ]	/* SetRefPoint2 */\012IP[ ]	/* InterpolatePts */\012PUSHW[ ]	/* 3 values pushed */\012167 48 192 \012SRP1[ ]	/* SetRefPoint1 */\012SRP2[ ]	/* SetRefPoint2 */\012IP[ ]	/* InterpolatePts */\012PUSHW[ ]	/* 1 value pushed */\012192 \012SRP0[ ]	/* SetRefPoint0 */\012PUSHW[ ]	/* 1 value pushed */\012171 \012MDRP[11100]	/* MoveDirectRelPt */\012SVTCA[0]	/* SetFreedomAndProjectionVectorToAxis */\012PUSHW[ ]	/* 3 values pushed */\01231 119 13 \012CALL[ ]	/* CallFunction */\012PUSHW[ ]	/* 3 values pushed */\012146 175 13 \012CALL[ ]	/* CallFunction */\012PUSHW[ ]	/* 4 values pushed */\012114 948 127 14 \012CALL[ ]	/* CallFunction */\012PUSHW[ ]	/* 1 value pushed */\01231 \012SRP0[ ]	/* SetRefPoint0 */\012PUSHW[ ]	/* 2 values pushed */\01246 949 \012MIRP[10100]	/* MoveIndirectRelPt */\012PUSHW[ ]	/* 1 value pushed */\01244 \012MDRP[10000]	/* MoveDirectRelPt */\012PUSHW[ ]	/* 1 value pushed */\01244 \012MDAP[1]	/* MoveDirectAbsPt */\012PUSHW[ ]	/* 1 value pushed */\01246 \012SRP0[ ]	/* SetRefPoint0 */\012PUSHW[ ]	/* 1 value pushed */\01255 \012MDRP[10000]	/* MoveDirectRelPt */\012PUSHW[ ]	/* 1 value pushed */\01255 \012MDAP[1]	/* MoveDirectAbsPt */\012PUSHW[ ]	/* 1 value pushed */\012175 \012SRP0[ ]	/* SetRefPoint0 */\012PUSHW[ ]	/* 1 value pushed */\01271 \012MDRP[10000]	/* MoveDirectRelPt */\012PUSHW[ ]	/* 1 value pushed */\01271 \012MDAP[1]	/* MoveDirectAbsPt */\012PUSHW[ ]	/* 1 value pushed */\012175 \012SRP0[ ]	/* SetRefPoint0 */\012PUSHW[ ]	/* 1 value pushed */\01278 \012MDRP[10000]	/* MoveDirectRelPt */\012PUSHW[ ]	/* 1 value pushed */\01278 \012MDAP[1]	/* MoveDirectAbsPt */\012PUSHW[ ]	/* 1 value pushed */\012175 \012SRP0[ ]	/* SetRefPoint0 */\012PUSHW[ ]	/* 1 value pushed */\012107 \012MDRP[10000]	/* MoveDirectRelPt */\012PUSHW[ ]	/* 3 values pushed */\012125 127 114 \012SRP1[ ]	/* SetRefPoint1 */\012SRP2[ ]	/* SetRefPoint2 */\012IP[ ]	/* InterpolatePts */\012PUSHW[ ]	/* 3 values pushed */\012142 175 146 \012SRP1[ ]	/* SetRefPoint1 */\012SRP2[ ]	/* SetRefPoint2 */\012IP[ ]	/* InterpolatePts */\012PUSHW[ ]	/* 3 values pushed */\012159 175 146 \012SRP1[ ]	/* SetRefPoint1 */\012SRP2[ ]	/* SetRefPoint2 */\012IP[ ]	/* InterpolatePts */\012IUP[0]	/* InterpolateUntPts */\012IUP[1]	/* InterpolateUntPts */";
};
width = 724;
}
);
note = D;
unicode = 0044;
},
{
glyphname = E;
lastChange = "2021-05-11 10:36:57 +0000";
layers = (
{
anchors = (
{
name = bottom;
position = "{279, -175}";
},
{
name = ogonek;
position = "{284, -167}";
},
{
name = top;
position = "{440, 531}";
},
{
name = topleft;
position = "{20, 609}";
}
);
layerId = "0B90A97B-D71D-49C5-8F31-ED3EF6E28084";
paths = (
{
closed = 1;
nodes = (
"325.333 -171 OFFCURVE",
"356.333 -156.667 OFFCURVE",
"381 -128 CURVE SMOOTH",
"409 -97.333 OFFCURVE",
"423 -56.667 OFFCURVE",
"423 -6 CURVE SMOOTH",
"423 -2.667 OFFCURVE",
"423 0 OFFCURVE",
"423 3 CURVE SMOOTH",
"422 12 LINE",
"446.667 26.667 OFFCURVE",
"468.667 43.667 OFFCURVE",
"488 63 CURVE SMOOTH",
"511.333 87.667 OFFCURVE",
"523 111 OFFCURVE",
"523 133 CURVE SMOOTH",
"523 164.333 OFFCURVE",
"504 180 OFFCURVE",
"466 180 CURVE SMOOTH",
"432.667 180 OFFCURVE",
"394.667 166 OFFCURVE",
"352 138 CURVE",
"310.667 177.333 OFFCURVE",
"266.667 197.667 OFFCURVE",
"220 199 CURVE SMOOTH",
"217.333 199 OFFCURVE",
"216 197.667 OFFCURVE",
"216 195 CURVE SMOOTH",
"216 192.333 OFFCURVE",
"217.333 191 OFFCURVE",
"220 191 CURVE SMOOTH",
"264 189.667 OFFCURVE",
"305 170 OFFCURVE",
"343 132 CURVE",
"312.333 110.667 OFFCURVE",
"279.667 80.667 OFFCURVE",
"245 42 CURVE SMOOTH",
"244.333 41.333 OFFCURVE",
"243.333 38.667 OFFCURVE",
"242 34 CURVE SMOOTH",
"240.667 30 OFFCURVE",
"240.667 28 OFFCURVE",
"242 28 CURVE SMOOTH",
"242.667 28 OFFCURVE",
"244.667 29.667 OFFCURVE",
"248 33 CURVE SMOOTH",
"278.667 69 OFFCURVE",
"313.667 98.667 OFFCURVE",
"353 122 CURVE",
"381 90 OFFCURVE",
"398.333 57.333 OFFCURVE",
"405 24 CURVE",
"355.667 -6 OFFCURVE",
"305.333 -21 OFFCURVE",
"254 -21 CURVE SMOOTH",
"203.333 -21 OFFCURVE",
"162.667 -6.667 OFFCURVE",
"132 22 CURVE",
"129.333 40.667 OFFCURVE",
"128 61.333 OFFCURVE",
"128 84 CURVE SMOOTH",
"128 148 OFFCURVE",
"144 212.667 OFFCURVE",
"176 278 CURVE",
"262.667 288 OFFCURVE",
"350 293 OFFCURVE",
"438 293 CURVE SMOOTH",
"449.333 293 OFFCURVE",
"455 295.333 OFFCURVE",
"455 300 CURVE SMOOTH",
"455 304 OFFCURVE",
"451 306 OFFCURVE",
"444 306 CURVE SMOOTH",
"268.5 305.5 LINE SMOOTH",
"226 305 OFFCURVE",
"200 304.667 OFFCURVE",
"190 304 CURVE",
"242.667 395.333 OFFCURVE",
"314.667 453.667 OFFCURVE",
"406 479 CURVE SMOOTH",
"408.667 479.667 OFFCURVE",
"409.333 481.333 OFFCURVE",
"408 484 CURVE SMOOTH",
"407.333 486.667 OFFCURVE",
"405.667 487.667 OFFCURVE",
"403 487 CURVE SMOOTH",
"300.333 458.333 OFFCURVE",
"222.333 397 OFFCURVE",
"169 303 CURVE",
"125 299 LINE",
"161 362.333 OFFCURVE",
"204.333 412.333 OFFCURVE",
"255 449 CURVE SMOOTH",
"312.333 490.333 OFFCURVE",
"374.333 511 OFFCURVE",
"441 511 CURVE SMOOTH",
"483.667 511 OFFCURVE",
"512 503.333 OFFCURVE",
"526 488 CURVE",
"498 460 OFFCURVE",
"486 435 OFFCURVE",
"486 413 CURVE SMOOTH",
"486 398 OFFCURVE",
"493 391 OFFCURVE",
"508 391 CURVE SMOOTH",
"532 391 OFFCURVE",
"548.667 403 OFFCURVE",
"558 427 CURVE SMOOTH",
"560.667 433 OFFCURVE",
"562 440.667 OFFCURVE",
"562 450 CURVE SMOOTH",
"562 467.333 OFFCURVE",
"556.667 482.667 OFFCURVE",
"546 496 CURVE",
"560 514 OFFCURVE",
"575 529.333 OFFCURVE",
"591 542 CURVE SMOOTH",
"593 544 OFFCURVE",
"594 546 OFFCURVE",
"594 548 CURVE SMOOTH",
"594 550 OFFCURVE",
"592 552 OFFCURVE",
"588 552 CURVE SMOOTH",
"585 552 OFFCURVE",
"583 551 OFFCURVE",
"581 549 CURVE SMOOTH",
"569.667 540.333 OFFCURVE",
"555.333 525.333 OFFCURVE",
"538 504 CURVE",
"516.667 524 OFFCURVE",
"482.667 534 OFFCURVE",
"436 534 CURVE SMOOTH",
"363.333 534 OFFCURVE",
"292.667 509.667 OFFCURVE",
"224 461 CURVE SMOOTH",
"157.333 414.333 OFFCURVE",
"107.667 357.333 OFFCURVE",
"75 290 CURVE",
"55 286 LINE SMOOTH",
"41 283 OFFCURVE",
"35 273 OFFCURVE",
"35 259 CURVE SMOOTH",
"35 255 OFFCURVE",
"37 253 OFFCURVE",
"40 253 CURVE SMOOTH",
"41 253 OFFCURVE",
"41 253 OFFCURVE",
"42 253 CURVE",
"48.667 255.667 OFFCURVE",
"53.333 256.667 OFFCURVE",
"60 258 CURVE",
"43.333 218 OFFCURVE",
"35 178.667 OFFCURVE",
"35 140 CURVE SMOOTH",
"35 65.333 OFFCURVE",
"65.333 12.667 OFFCURVE",
"126 -18 CURVE",
"139.333 -67.333 OFFCURVE",
"161.667 -105.667 OFFCURVE",
"193 -133 CURVE SMOOTH",
"222.333 -158.333 OFFCURVE",
"254 -171 OFFCURVE",
"288 -171 CURVE SMOOTH"
);
},
{
closed = 1;
nodes = (
"254.333 -161 OFFCURVE",
"226.667 -150 OFFCURVE",
"202 -128 CURVE SMOOTH",
"174.667 -102.667 OFFCURVE",
"154.667 -68.333 OFFCURVE",
"142 -25 CURVE",
"170 -36.333 OFFCURVE",
"200.333 -42 OFFCURVE",
"233 -42 CURVE SMOOTH",
"293.667 -42 OFFCURVE",
"351.667 -26.667 OFFCURVE",
"407 4 CURVE",
"407.667 2 OFFCURVE",
"408 -1.333 OFFCURVE",
"408 -6 CURVE SMOOTH",
"408 -97.104 OFFCURVE",
"357.025 -161 OFFCURVE",
"285 -161 CURVE SMOOTH"
);
},
{
closed = 1;
nodes = (
"91.667 70.667 OFFCURVE",
"80 107.333 OFFCURVE",
"80 150 CURVE SMOOTH",
"80 186 OFFCURVE",
"90 223 OFFCURVE",
"106 261 CURVE SMOOTH",
"109 268 LINE",
"116.333 269.333 OFFCURVE",
"124 270 OFFCURVE",
"131.5 271.5 CURVE SMOOTH",
"155 275 LINE",
"127 215 OFFCURVE",
"113 152.667 OFFCURVE",
"113 88 CURVE SMOOTH",
"113 70.667 OFFCURVE",
"113.667 54.667 OFFCURVE",
"115 40 CURVE"
);
},
{
closed = 1;
nodes = (
"409.333 65.333 OFFCURVE",
"391 97 OFFCURVE",
"363 127 CURVE",
"405.667 151 OFFCURVE",
"445.333 168 OFFCURVE",
"472 168 CURVE SMOOTH",
"493.333 168 OFFCURVE",
"504 159.667 OFFCURVE",
"504 143 CURVE SMOOTH",
"504 130.333 OFFCURVE",
"498.667 116.667 OFFCURVE",
"488 102 CURVE SMOOTH",
"470 76 OFFCURVE",
"446.667 52.667 OFFCURVE",
"418 32 CURVE"
);
},
{
closed = 1;
nodes = (
"508 401 OFFCURVE",
"506 404 OFFCURVE",
"506 411 CURVE SMOOTH",
"506 412 OFFCURVE",
"506 413 OFFCURVE",
"506 414 CURVE SMOOTH",
"508 431.333 OFFCURVE",
"517 452.667 OFFCURVE",
"533 478 CURVE",
"539 467 OFFCURVE",
"542 457 OFFCURVE",
"542 446 CURVE SMOOTH",
"542 436 OFFCURVE",
"539 427 OFFCURVE",
"535 417 CURVE SMOOTH",
"530.333 406.333 OFFCURVE",
"523 401 OFFCURVE",
"513 401 CURVE SMOOTH"
);
}
);
userData = {
assembly = "PUSHW[ ]	/* 1 value pushed */\01210 \012CALL[ ]	/* CallFunction */\012PUSHW[ ]	/* 4 values pushed */\01237 950 49 14 \012CALL[ ]	/* CallFunction */\012NPUSHW[ ]	/* 21 values pushed */\012102 37 118 37 134 37 150 37 166 37 182 37 198 37 214 37 230 37 246 37 10 \012DELTAP1[ ]	/* DeltaExceptionP1 */\012NPUSHW[ ]	/* 33 values pushed */\0126 37 22 37 38 37 54 37 70 37 86 37 102 37 118 37 134 37 150 37 166 37 182 37 198 37 214 37 230 37 246 37 16 \012DELTAP2[ ]	/* DeltaExceptionP2 */\012NPUSHW[ ]	/* 21 values pushed */\0126 37 22 37 38 37 54 37 70 37 86 37 102 37 118 37 134 37 150 37 10 \012DELTAP3[ ]	/* DeltaExceptionP3 */\012NPUSHW[ ]	/* 5 values pushed */\012165 37 181 37 2 \012DELTAP3[ ]	/* DeltaExceptionP3 */\012PUSHW[ ]	/* 1 value pushed */\01249 \012SRP0[ ]	/* SetRefPoint0 */\012PUSHW[ ]	/* 1 value pushed */\01256 \012MDRP[10000]	/* MoveDirectRelPt */\012SVTCA[0]	/* SetFreedomAndProjectionVectorToAxis */\012PUSHW[ ]	/* 3 values pushed */\012116 43 13 \012CALL[ ]	/* CallFunction */\012PUSHW[ ]	/* 4 values pushed */\01263 947 87 14 \012CALL[ ]	/* CallFunction */\012PUSHW[ ]	/* 3 values pushed */\012136 24 13 \012CALL[ ]	/* CallFunction */\012PUSHW[ ]	/* 3 values pushed */\012103 8 13 \012CALL[ ]	/* CallFunction */\012PUSHW[ ]	/* 3 values pushed */\0122 24 136 \012SRP1[ ]	/* SetRefPoint1 */\012SRP2[ ]	/* SetRefPoint2 */\012IP[ ]	/* InterpolatePts */\012PUSHW[ ]	/* 3 values pushed */\01211 43 116 \012SRP1[ ]	/* SetRefPoint1 */\012SRP2[ ]	/* SetRefPoint2 */\012IP[ ]	/* InterpolatePts */\012PUSHW[ ]	/* 3 values pushed */\01222 24 136 \012SRP1[ ]	/* SetRefPoint1 */\012SRP2[ ]	/* SetRefPoint2 */\012IP[ ]	/* InterpolatePts */\012PUSHW[ ]	/* 3 values pushed */\01226 24 136 \012SRP1[ ]	/* SetRefPoint1 */\012SRP2[ ]	/* SetRefPoint2 */\012IP[ ]	/* InterpolatePts */\012PUSHW[ ]	/* 3 values pushed */\01231 8 103 \012SRP1[ ]	/* SetRefPoint1 */\012SRP2[ ]	/* SetRefPoint2 */\012IP[ ]	/* InterpolatePts */\012PUSHW[ ]	/* 1 value pushed */\01263 \012SRP0[ ]	/* SetRefPoint0 */\012PUSHW[ ]	/* 1 value pushed */\012107 \012MDRP[11100]	/* MoveDirectRelPt */\012PUSHW[ ]	/* 1 value pushed */\01259 \012MDRP[10000]	/* MoveDirectRelPt */\012PUSHW[ ]	/* 1 value pushed */\01259 \012MDAP[1]	/* MoveDirectAbsPt */\012PUSHW[ ]	/* 1 value pushed */\01263 \012SRP0[ ]	/* SetRefPoint0 */\012PUSHW[ ]	/* 1 value pushed */\01281 \012MDRP[11100]	/* MoveDirectRelPt */\012PUSHW[ ]	/* 1 value pushed */\012107 \012SRP0[ ]	/* SetRefPoint0 */\012PUSHW[ ]	/* 1 value pushed */\01291 \012MDRP[10000]	/* MoveDirectRelPt */\012PUSHW[ ]	/* 1 value pushed */\01291 \012MDAP[1]	/* MoveDirectAbsPt */\012PUSHW[ ]	/* 1 value pushed */\012103 \012SRP0[ ]	/* SetRefPoint0 */\012PUSHW[ ]	/* 1 value pushed */\01292 \012MDRP[10000]	/* MoveDirectRelPt */\012PUSHW[ ]	/* 1 value pushed */\01292 \012MDAP[1]	/* MoveDirectAbsPt */\012PUSHW[ ]	/* 3 values pushed */\01298 63 81 \012SRP1[ ]	/* SetRefPoint1 */\012SRP2[ ]	/* SetRefPoint2 */\012IP[ ]	/* InterpolatePts */\012PUSHW[ ]	/* 1 value pushed */\012103 \012SRP0[ ]	/* SetRefPoint0 */\012PUSHW[ ]	/* 1 value pushed */\012100 \012MDRP[10000]	/* MoveDirectRelPt */\012PUSHW[ ]	/* 1 value pushed */\012100 \012MDAP[1]	/* MoveDirectAbsPt */\012PUSHW[ ]	/* 1 value pushed */\012103 \012SRP0[ ]	/* SetRefPoint0 */\012PUSHW[ ]	/* 1 value pushed */\012132 \012MDRP[11100]	/* MoveDirectRelPt */\012PUSHW[ ]	/* 3 values pushed */\012151 63 81 \012SRP1[ ]	/* SetRefPoint1 */\012SRP2[ ]	/* SetRefPoint2 */\012IP[ ]	/* InterpolatePts */\012IUP[0]	/* InterpolateUntPts */\012IUP[1]	/* InterpolateUntPts */";
};
width = 522;
}
);
note = E;
unicode = 0045;
},
{
glyphname = F;
lastChange = "2021-05-11 11:18:23 +0000";
layers = (
{
layerId = "0B90A97B-D71D-49C5-8F31-ED3EF6E28084";
paths = (
{
closed = 1;
nodes = (
"138 -147 OFFCURVE",
"140 -147 OFFCURVE",
"142 -146 CURVE",
"194.667 -129.333 OFFCURVE",
"254.667 -85.333 OFFCURVE",
"322 -14 CURVE SMOOTH",
"385.333 54.667 OFFCURVE",
"439.333 130 OFFCURVE",
"484 212 CURVE",
"507.333 212 OFFCURVE",
"527 209.667 OFFCURVE",
"543 205 CURVE SMOOTH",
"553 201.667 OFFCURVE",
"558 204.667 OFFCURVE",
"558 214 CURVE SMOOTH",
"558 216 OFFCURVE",
"556.667 217.333 OFFCURVE",
"554 218 CURVE SMOOTH",
"537.333 222.667 OFFCURVE",
"517 226 OFFCURVE",
"493 228 CURVE",
"535.667 310.667 OFFCURVE",
"557 378 OFFCURVE",
"557 430 CURVE SMOOTH",
"557 475.333 OFFCURVE",
"540.333 510.667 OFFCURVE",
"507 536 CURVE SMOOTH",
"477.667 558.667 OFFCURVE",
"437.333 570 OFFCURVE",
"386 570 CURVE SMOOTH",
"368.667 570 OFFCURVE",
"350.667 568.667 OFFCURVE",
"332 566 CURVE",
"304 576 OFFCURVE",
"273.333 581 OFFCURVE",
"240 581 CURVE SMOOTH",
"189.333 581 OFFCURVE",
"143.667 570.333 OFFCURVE",
"103 549 CURVE SMOOTH",
"63 527.667 OFFCURVE",
"43 502.333 OFFCURVE",
"43 473 CURVE SMOOTH",
"43 453.667 OFFCURVE",
"52.667 435 OFFCURVE",
"72 417 CURVE",
"68 412 LINE SMOOTH",
"39.333 372.667 OFFCURVE",
"25 334.667 OFFCURVE",
"25 298 CURVE SMOOTH",
"25 238 OFFCURVE",
"66.667 198 OFFCURVE",
"124 198 CURVE SMOOTH",
"192 198 OFFCURVE",
"250.333 243.333 OFFCURVE",
"299 334 CURVE",
"317.667 332.667 OFFCURVE",
"337.333 332 OFFCURVE",
"356 332 CURVE SMOOTH",
"358.667 332 OFFCURVE",
"360 333.333 OFFCURVE",
"360 336 CURVE SMOOTH",
"360 338.667 OFFCURVE",
"358.667 340 OFFCURVE",
"356 340 CURVE SMOOTH",
"338.667 340 OFFCURVE",
"321.667 340.667 OFFCURVE",
"303 342 CURVE",
"321 376.667 OFFCURVE",
"336 415.667 OFFCURVE",
"348 459 CURVE SMOOTH",
"351.333 468.333 OFFCURVE",
"349.667 473 OFFCURVE",
"343 473 CURVE SMOOTH",
"341 473 OFFCURVE",
"339.333 471.333 OFFCURVE",
"338 468 CURVE SMOOTH",
"323.333 421.333 OFFCURVE",
"306.333 378.667 OFFCURVE",
"285 344 CURVE",
"240.333 350 OFFCURVE",
"202 359.667 OFFCURVE",
"170 373 CURVE SMOOTH",
"143.333 384.333 OFFCURVE",
"122 395.667 OFFCURVE",
"106 407 CURVE",
"157.332 476.299 OFFCURVE",
"254.018 532.629 OFFCURVE",
"338 551 CURVE",
"400.667 520.333 OFFCURVE",
"432 465.333 OFFCURVE",
"432 386 CURVE SMOOTH",
"432 333.333 OFFCURVE",
"421.333 280 OFFCURVE",
"400 226 CURVE",
"334.667 220 OFFCURVE",
"273.333 206 OFFCURVE",
"216 184 CURVE SMOOTH",
"152.667 158.667 OFFCURVE",
"110 129 OFFCURVE",
"88 95 CURVE SMOOTH",
"86 93 OFFCURVE",
"85 88 OFFCURVE",
"85 82 CURVE SMOOTH",
"85 79 OFFCURVE",
"86 75 OFFCURVE",
"86 71 CURVE SMOOTH",
"87.333 59.667 OFFCURVE",
"89.667 54 OFFCURVE",
"93 54 CURVE SMOOTH",
"93.667 54 OFFCURVE",
"94 54.333 OFFCURVE",
"94 55 CURVE",
"117.333 88.333 OFFCURVE",
"158 119.333 OFFCURVE",
"216 148 CURVE SMOOTH",
"271.333 174.667 OFFCURVE",
"329.333 193.333 OFFCURVE",
"390 204 CURVE",
"364.667 150 OFFCURVE",
"327.667 96 OFFCURVE",
"279 42 CURVE SMOOTH",
"260.333 22 OFFCURVE",
"225 -14 OFFCURVE",
"169 -66 CURVE SMOOTH",
"167 -68 OFFCURVE",
"166.333 -70.333 OFFCURVE",
"167 -73 CURVE SMOOTH",
"167.667 -75.667 OFFCURVE",
"169 -76 OFFCURVE",
"171 -74 CURVE SMOOTH",
"257 5 LINE SMOOTH",
"278.333 25 OFFCURVE",
"292.667 39 OFFCURVE",
"300 47 CURVE SMOOTH",
"349.333 99.667 OFFCURVE",
"386.333 153 OFFCURVE",
"411 207 CURVE",
"416.333 208.333 OFFCURVE",
"422 209.167 OFFCURVE",
"428 209.5 CURVE SMOOTH",
"445 211 LINE",
"402.333 129 OFFCURVE",
"354 57 OFFCURVE",
"300 -5 CURVE SMOOTH",
"240.667 -72.333 OFFCURVE",
"186.333 -114 OFFCURVE",
"137 -130 CURVE SMOOTH",
"133 -131.333 OFFCURVE",
"131 -134 OFFCURVE",
"131 -138 CURVE SMOOTH",
"131 -144 OFFCURVE",
"133 -147 OFFCURVE",
"137 -147 CURVE SMOOTH"
);
},
{
closed = 1;
nodes = (
"85.667 221 OFFCURVE",
"58 248 OFFCURVE",
"58 292 CURVE SMOOTH",
"58 324.667 OFFCURVE",
"71.333 359.333 OFFCURVE",
"98 396 CURVE",
"114.667 384.667 OFFCURVE",
"135.667 373.667 OFFCURVE",
"161 363 CURVE SMOOTH",
"191 350.333 OFFCURVE",
"230.667 341.333 OFFCURVE",
"280 336 CURVE",
"233.333 259.333 OFFCURVE",
"182.333 221 OFFCURVE",
"127 221 CURVE SMOOTH"
);
},
{
closed = 1;
nodes = (
"67.667 444.333 OFFCURVE",
"61 459.333 OFFCURVE",
"61 474 CURVE SMOOTH",
"61 500.667 OFFCURVE",
"79 523.667 OFFCURVE",
"115 543 CURVE SMOOTH",
"151.667 562.333 OFFCURVE",
"192.667 572 OFFCURVE",
"238 572 CURVE SMOOTH",
"264 572 OFFCURVE",
"288 568.667 OFFCURVE",
"310 562 CURVE",
"212 540.667 OFFCURVE",
"135.667 496.333 OFFCURVE",
"81 429 CURVE"
);
},
{
closed = 1;
nodes = (
"439.333 278 OFFCURVE",
"449 330 OFFCURVE",
"449 384 CURVE SMOOTH",
"449 464 OFFCURVE",
"418.333 520.667 OFFCURVE",
"357 554 CURVE",
"369.667 556 OFFCURVE",
"382.333 557 OFFCURVE",
"395 557 CURVE SMOOTH",
"478.333 557 OFFCURVE",
"520 518.667 OFFCURVE",
"520 442 CURVE SMOOTH",
"520 388.667 OFFCURVE",
"498 317.667 OFFCURVE",
"454 229 CURVE",
"437 229 LINE SMOOTH",
"431 229 OFFCURVE",
"425.333 228.667 OFFCURVE",
"420 228 CURVE"
);
}
);
userData = {
assembly = "PUSHW[ ]	/* 1 value pushed */\01210 \012CALL[ ]	/* CallFunction */\012PUSHW[ ]	/* 4 values pushed */\0126 951 120 14 \012CALL[ ]	/* CallFunction */\012PUSHW[ ]	/* 4 values pushed */\012138 952 85 14 \012CALL[ ]	/* CallFunction */\012PUSHW[ ]	/* 1 value pushed */\012138 \012SRP0[ ]	/* SetRefPoint0 */\012PUSHW[ ]	/* 1 value pushed */\01236 \012MDRP[10000]	/* MoveDirectRelPt */\012PUSHW[ ]	/* 1 value pushed */\01236 \012MDAP[1]	/* MoveDirectAbsPt */\012PUSHW[ ]	/* 3 values pushed */\0120 120 36 \012SRP1[ ]	/* SetRefPoint1 */\012SRP2[ ]	/* SetRefPoint2 */\012IP[ ]	/* InterpolatePts */\012NPUSHW[ ]	/* 21 values pushed */\012102 6 118 6 134 6 150 6 166 6 182 6 198 6 214 6 230 6 246 6 10 \012DELTAP1[ ]	/* DeltaExceptionP1 */\012NPUSHW[ ]	/* 33 values pushed */\0126 6 22 6 38 6 54 6 70 6 86 6 102 6 118 6 134 6 150 6 166 6 182 6 198 6 214 6 230 6 246 6 16 \012DELTAP2[ ]	/* DeltaExceptionP2 */\012NPUSHW[ ]	/* 21 values pushed */\0126 6 22 6 38 6 54 6 70 6 86 6 102 6 118 6 134 6 150 6 10 \012DELTAP3[ ]	/* DeltaExceptionP3 */\012NPUSHW[ ]	/* 5 values pushed */\012165 6 181 6 2 \012DELTAP3[ ]	/* DeltaExceptionP3 */\012PUSHW[ ]	/* 3 values pushed */\01211 120 36 \012SRP1[ ]	/* SetRefPoint1 */\012SRP2[ ]	/* SetRefPoint2 */\012IP[ ]	/* InterpolatePts */\012PUSHW[ ]	/* 1 value pushed */\0126 \012SRP0[ ]	/* SetRefPoint0 */\012PUSHW[ ]	/* 1 value pushed */\01217 \012MDRP[10000]	/* MoveDirectRelPt */\012PUSHW[ ]	/* 1 value pushed */\01217 \012MDAP[1]	/* MoveDirectAbsPt */\012PUSHW[ ]	/* 3 values pushed */\01221 120 36 \012SRP1[ ]	/* SetRefPoint1 */\012SRP2[ ]	/* SetRefPoint2 */\012IP[ ]	/* InterpolatePts */\012PUSHW[ ]	/* 1 value pushed */\012138 \012SRP0[ ]	/* SetRefPoint0 */\012PUSHW[ ]	/* 2 values pushed */\01226 950 \012MIRP[10100]	/* MoveIndirectRelPt */\012PUSHW[ ]	/* 3 values pushed */\01230 120 36 \012SRP1[ ]	/* SetRefPoint1 */\012SRP2[ ]	/* SetRefPoint2 */\012IP[ ]	/* InterpolatePts */\012NPUSHW[ ]	/* 5 values pushed */\01258 85 74 85 2 \012DELTAP2[ ]	/* DeltaExceptionP2 */\012NPUSHW[ ]	/* 21 values pushed */\012105 85 121 85 137 85 153 85 169 85 185 85 201 85 217 85 233 85 249 85 10 \012DELTAP1[ ]	/* DeltaExceptionP1 */\012NPUSHW[ ]	/* 7 values pushed */\0129 85 25 85 41 85 3 \012DELTAP2[ ]	/* DeltaExceptionP2 */\012PUSHW[ ]	/* 3 values pushed */\01252 85 138 \012SRP1[ ]	/* SetRefPoint1 */\012SRP2[ ]	/* SetRefPoint2 */\012IP[ ]	/* InterpolatePts */\012PUSHW[ ]	/* 3 values pushed */\01264 120 36 \012SRP1[ ]	/* SetRefPoint1 */\012SRP2[ ]	/* SetRefPoint2 */\012IP[ ]	/* InterpolatePts */\012PUSHW[ ]	/* 3 values pushed */\01269 120 36 \012SRP1[ ]	/* SetRefPoint1 */\012SRP2[ ]	/* SetRefPoint2 */\012IP[ ]	/* InterpolatePts */\012PUSHW[ ]	/* 3 values pushed */\012105 120 36 \012SRP1[ ]	/* SetRefPoint1 */\012SRP2[ ]	/* SetRefPoint2 */\012IP[ ]	/* InterpolatePts */\012PUSHW[ ]	/* 3 values pushed */\012112 120 36 \012SRP1[ ]	/* SetRefPoint1 */\012SRP2[ ]	/* SetRefPoint2 */\012IP[ ]	/* InterpolatePts */\012PUSHW[ ]	/* 3 values pushed */\012140 85 138 \012SRP1[ ]	/* SetRefPoint1 */\012SRP2[ ]	/* SetRefPoint2 */\012IP[ ]	/* InterpolatePts */\012PUSHW[ ]	/* 1 value pushed */\012138 \012SRP0[ ]	/* SetRefPoint0 */\012PUSHW[ ]	/* 1 value pushed */\012143 \012MDRP[11100]	/* MoveDirectRelPt */\012SVTCA[0]	/* SetFreedomAndProjectionVectorToAxis */\012PUSHW[ ]	/* 1 value pushed */\012129 \012MDAP[1]	/* MoveDirectAbsPt */\012PUSHW[ ]	/* 3 values pushed */\012134 112 13 \012CALL[ ]	/* CallFunction */\012PUSHW[ ]	/* 4 values pushed */\0129 947 117 14 \012CALL[ ]	/* CallFunction */\012PUSHW[ ]	/* 1 value pushed */\012112 \012SRP0[ ]	/* SetRefPoint0 */\012PUSHW[ ]	/* 1 value pushed */\0120 \012MDRP[10000]	/* MoveDirectRelPt */\012PUSHW[ ]	/* 1 value pushed */\0120 \012MDAP[1]	/* MoveDirectAbsPt */\012PUSHW[ ]	/* 3 values pushed */\01211 112 134 \012SRP1[ ]	/* SetRefPoint1 */\012SRP2[ ]	/* SetRefPoint2 */\012IP[ ]	/* InterpolatePts */\012PUSHW[ ]	/* 1 value pushed */\012134 \012SRP0[ ]	/* SetRefPoint0 */\012PUSHW[ ]	/* 1 value pushed */\01213 \012MDRP[10000]	/* MoveDirectRelPt */\012PUSHW[ ]	/* 1 value pushed */\01213 \012MDAP[1]	/* MoveDirectAbsPt */\012PUSHW[ ]	/* 3 values pushed */\01230 112 134 \012SRP1[ ]	/* SetRefPoint1 */\012SRP2[ ]	/* SetRefPoint2 */\012IP[ ]	/* InterpolatePts */\012PUSHW[ ]	/* 3 values pushed */\01252 117 9 \012SRP1[ ]	/* SetRefPoint1 */\012SRP2[ ]	/* SetRefPoint2 */\012IP[ ]	/* InterpolatePts */\012PUSHW[ ]	/* 1 value pushed */\012117 \012SRP0[ ]	/* SetRefPoint0 */\012PUSHW[ ]	/* 1 value pushed */\01269 \012MDRP[10000]	/* MoveDirectRelPt */\012PUSHW[ ]	/* 1 value pushed */\01269 \012MDAP[1]	/* MoveDirectAbsPt */\012PUSHW[ ]	/* 1 value pushed */\0129 \012SRP0[ ]	/* SetRefPoint0 */\012PUSHW[ ]	/* 1 value pushed */\01283 \012MDRP[10000]	/* MoveDirectRelPt */\012PUSHW[ ]	/* 1 value pushed */\01283 \012MDAP[1]	/* MoveDirectAbsPt */\012PUSHW[ ]	/* 3 values pushed */\012105 112 134 \012SRP1[ ]	/* SetRefPoint1 */\012SRP2[ ]	/* SetRefPoint2 */\012IP[ ]	/* InterpolatePts */\012PUSHW[ ]	/* 1 value pushed */\012112 \012SRP0[ ]	/* SetRefPoint0 */\012PUSHW[ ]	/* 1 value pushed */\012115 \012MDRP[10000]	/* MoveDirectRelPt */\012PUSHW[ ]	/* 1 value pushed */\012115 \012MDAP[1]	/* MoveDirectAbsPt */\012PUSHW[ ]	/* 1 value pushed */\0129 \012SRP0[ ]	/* SetRefPoint0 */\012PUSHW[ ]	/* 1 value pushed */\012140 \012MDRP[10000]	/* MoveDirectRelPt */\012PUSHW[ ]	/* 1 value pushed */\012140 \012MDAP[1]	/* MoveDirectAbsPt */\012IUP[0]	/* InterpolateUntPts */\012IUP[1]	/* InterpolateUntPts */";
};
width = 534;
}
);
note = F;
unicode = 0046;
},
{
glyphname = G;
lastChange = "2021-05-11 10:37:22 +0000";
layers = (
{
anchors = (
{
name = bottom;
position = "{216, 0}";
},
{
name = top;
position = "{486, 562}";
}
);
layerId = "0B90A97B-D71D-49C5-8F31-ED3EF6E28084";
paths = (
{
closed = 1;
nodes = (
"249 -324 OFFCURVE",
"288.667 -307.333 OFFCURVE",
"334 -274 CURVE SMOOTH",
"384 -237.333 OFFCURVE",
"425 -188.667 OFFCURVE",
"457 -128 CURVE SMOOTH",
"479.667 -86 OFFCURVE",
"500.667 -36.667 OFFCURVE",
"520 20 CURVE",
"534 22 OFFCURVE",
"547.667 23 OFFCURVE",
"561 23 CURVE SMOOTH",
"569 23 OFFCURVE",
"573 25.333 OFFCURVE",
"573 30 CURVE SMOOTH",
"573 34 OFFCURVE",
"568 36 OFFCURVE",
"558 36 CURVE SMOOTH",
"547.333 36 OFFCURVE",
"535.667 35.333 OFFCURVE",
"525 34 CURVE",
"558.333 127.333 OFFCURVE",
"579.333 216 OFFCURVE",
"590 304 CURVE SMOOTH",
"591 311 OFFCURVE",
"581 316 OFFCURVE",
"571 316 CURVE SMOOTH",
"569 316 OFFCURVE",
"568 316 OFFCURVE",
"567 316 CURVE",
"563.667 322.667 OFFCURVE",
"558.333 319.333 OFFCURVE",
"551 306 CURVE SMOOTH",
"503 212.667 OFFCURVE",
"444 138.667 OFFCURVE",
"374 84 CURVE",
"353.333 124.667 OFFCURVE",
"321.667 145 OFFCURVE",
"279 145 CURVE SMOOTH",
"268.333 145 OFFCURVE",
"258 143.667 OFFCURVE",
"248 141 CURVE SMOOTH",
"240 139.667 OFFCURVE",
"231 133.667 OFFCURVE",
"221 123 CURVE SMOOTH",
"210 110 OFFCURVE",
"204 98 OFFCURVE",
"204 87 CURVE SMOOTH",
"204 83 OFFCURVE",
"205 81 OFFCURVE",
"208 82 CURVE SMOOTH",
"211 82 OFFCURVE",
"212 84 OFFCURVE",
"212 88 CURVE SMOOTH",
"212 97 OFFCURVE",
"217 107 OFFCURVE",
"227 117 CURVE SMOOTH",
"237 127 OFFCURVE",
"244.333 132.333 OFFCURVE",
"249 133 CURVE SMOOTH",
"257.667 135 OFFCURVE",
"266.667 136 OFFCURVE",
"276 136 CURVE SMOOTH",
"316 136 OFFCURVE",
"345 116 OFFCURVE",
"363 76 CURVE",
"307 34 OFFCURVE",
"256 13 OFFCURVE",
"208 13 CURVE SMOOTH",
"154 13 OFFCURVE",
"118 37 OFFCURVE",
"102 86 CURVE",
"118 139.333 OFFCURVE",
"141.667 193 OFFCURVE",
"173 247 CURVE",
"195.667 242.333 OFFCURVE",
"222.333 240 OFFCURVE",
"253 240 CURVE SMOOTH",
"300.333 240 OFFCURVE",
"352 250.667 OFFCURVE",
"408 272 CURVE SMOOTH",
"460.667 292 OFFCURVE",
"504.667 317.333 OFFCURVE",
"540 348 CURVE SMOOTH",
"592 392.667 OFFCURVE",
"618 433.333 OFFCURVE",
"618 470 CURVE SMOOTH",
"618 518 OFFCURVE",
"569 548 OFFCURVE",
"497 548 CURVE SMOOTH",
"463 548 OFFCURVE",
"427 541.333 OFFCURVE",
"389 528 CURVE SMOOTH",
"331 506.667 OFFCURVE",
"276 475.667 OFFCURVE",
"224 435 CURVE SMOOTH",
"173.333 393.667 OFFCURVE",
"130.667 350.333 OFFCURVE",
"100 301 CURVE",
"64 323.667 OFFCURVE",
"46 354.667 OFFCURVE",
"46 394 CURVE SMOOTH",
"46 433.333 OFFCURVE",
"61.333 468.667 OFFCURVE",
"92 500 CURVE SMOOTH",
"122.667 532.667 OFFCURVE",
"159 549 OFFCURVE",
"201 549 CURVE SMOOTH",
"205.667 549 OFFCURVE",
"208 550.667 OFFCURVE",
"208 554 CURVE SMOOTH",
"208 559.333 OFFCURVE",
"203.667 562 OFFCURVE",
"195 562 CURVE SMOOTH",
"147.667 560.667 OFFCURVE",
"107.667 542.667 OFFCURVE",
"75 508 CURVE SMOOTH",
"41.667 472.667 OFFCURVE",
"25 433.333 OFFCURVE",
"25 390 CURVE SMOOTH",
"25 344 OFFCURVE",
"45.667 307.333 OFFCURVE",
"87 280 CURVE",
"60.333 233.333 OFFCURVE",
"47 188.667 OFFCURVE",
"47 146 CURVE SMOOTH",
"47 96.667 OFFCURVE",
"57.333 58.667 OFFCURVE",
"78 32 CURVE",
"75.333 9.333 OFFCURVE",
"73 -12.333 OFFCURVE",
"73 -31 CURVE SMOOTH",
"73 -82.333 OFFCURVE",
"85.667 -123.667 OFFCURVE",
"111 -155 CURVE SMOOTH",
"133.667 -183.667 OFFCURVE",
"163 -200 OFFCURVE",
"199 -204 CURVE",
"179.667 -236.667 OFFCURVE",
"170 -263 OFFCURVE",
"170 -283 CURVE SMOOTH",
"170 -310.333 OFFCURVE",
"185 -324 OFFCURVE",
"215 -324 CURVE SMOOTH"
);
},
{
closed = 1;
nodes = (
"169.333 -194 OFFCURVE",
"141 -179.333 OFFCURVE",
"119 -152 CURVE SMOOTH",
"95 -123.333 OFFCURVE",
"83 -83 OFFCURVE",
"83 -31 CURVE SMOOTH",
"83 -13.667 OFFCURVE",
"84.333 3.333 OFFCURVE",
"87 22 CURVE",
"110 -1 OFFCURVE",
"143 -13 OFFCURVE",
"183 -13 CURVE SMOOTH",
"239 -13 OFFCURVE",
"300 13 OFFCURVE",
"367 65 CURVE",
"374 45 OFFCURVE",
"377 24 OFFCURVE",
"377 1 CURVE SMOOTH",
"377 -6 OFFCURVE",
"377 -13 OFFCURVE",
"376 -20 CURVE",
"308 -62.667 OFFCURVE",
"250.667 -120 OFFCURVE",
"204 -196 CURVE"
);
},
{
closed = 1;
nodes = (
"268.667 -132.333 OFFCURVE",
"315.333 -81.333 OFFCURVE",
"372 -42 CURVE",
"372 -46 LINE",
"363.333 -87.333 OFFCURVE",
"345 -122 OFFCURVE",
"317 -150 CURVE SMOOTH",
"291.667 -175.333 OFFCURVE",
"263.333 -190.333 OFFCURVE",
"232 -195 CURVE"
);
},
{
closed = 1;
nodes = (
"207 -314 OFFCURVE",
"198 -304.333 OFFCURVE",
"198 -285 CURVE SMOOTH",
"198 -266.333 OFFCURVE",
"207.667 -239.333 OFFCURVE",
"227 -204 CURVE",
"264.333 -200.667 OFFCURVE",
"297.667 -185 OFFCURVE",
"327 -157 CURVE SMOOTH",
"359 -126.333 OFFCURVE",
"378 -86 OFFCURVE",
"388 -36 CURVE SMOOTH",
"389 -31 LINE",
"418.333 -12.333 OFFCURVE",
"446.333 0.667 OFFCURVE",
"477 10 CURVE",
"458.333 -48 OFFCURVE",
"439.333 -96.333 OFFCURVE",
"420 -135 CURVE SMOOTH",
"394.667 -186.333 OFFCURVE",
"361.333 -229.667 OFFCURVE",
"320 -265 CURVE SMOOTH",
"282.667 -297.667 OFFCURVE",
"251 -314 OFFCURVE",
"225 -314 CURVE SMOOTH"
);
},
{
closed = 1;
nodes = (
"93.333 119.667 OFFCURVE",
"92 136.333 OFFCURVE",
"92 155 CURVE SMOOTH",
"92 188.333 OFFCURVE",
"100.667 224.333 OFFCURVE",
"118 263 CURVE",
"131.333 257.667 OFFCURVE",
"146.333 252.667 OFFCURVE",
"161 250 CURVE",
"133.667 202.667 OFFCURVE",
"112 154.333 OFFCURVE",
"96 105 CURVE"
);
},
{
closed = 1;
nodes = (
"393 20.667 OFFCURVE",
"389 48.667 OFFCURVE",
"379 74 CURVE",
"442.333 125.333 OFFCURVE",
"497.667 189.667 OFFCURVE",
"545 267 CURVE",
"527.667 183 OFFCURVE",
"507 104.333 OFFCURVE",
"483 27 CURVE",
"450.333 18.333 OFFCURVE",
"419.667 6 OFFCURVE",
"391 -10 CURVE"
);
},
{
closed = 1;
nodes = (
"226.333 268 OFFCURVE",
"206.667 269.333 OFFCURVE",
"188 272 CURVE",
"230.667 338.667 OFFCURVE",
"279.333 391.667 OFFCURVE",
"334 431 CURVE SMOOTH",
"394.667 475 OFFCURVE",
"457 497 OFFCURVE",
"521 497 CURVE SMOOTH",
"523.667 497 OFFCURVE",
"525 498.333 OFFCURVE",
"525 501 CURVE SMOOTH",
"525 503.667 OFFCURVE",
"523.667 505 OFFCURVE",
"521 505 CURVE SMOOTH",
"453.667 505 OFFCURVE",
"388.333 482.333 OFFCURVE",
"325 437 CURVE SMOOTH",
"268.333 396.333 OFFCURVE",
"218.667 342 OFFCURVE",
"176 274 CURVE",
"159.333 276.667 OFFCURVE",
"144 280.667 OFFCURVE",
"130 286 CURVE",
"157.333 334.667 OFFCURVE",
"194.333 379.333 OFFCURVE",
"241 420 CURVE SMOOTH",
"290.333 462 OFFCURVE",
"341.333 493.333 OFFCURVE",
"394 514 CURVE SMOOTH",
"428.667 527.333 OFFCURVE",
"461.333 534 OFFCURVE",
"492 534 CURVE SMOOTH",
"553.333 534 OFFCURVE",
"594 508 OFFCURVE",
"594 468 CURVE SMOOTH",
"594 432.667 OFFCURVE",
"565.667 394.667 OFFCURVE",
"509 354 CURVE SMOOTH",
"427.667 296.667 OFFCURVE",
"341 268 OFFCURVE",
"249 268 CURVE SMOOTH"
);
}
);
userData = {
assembly = "PUSHW[ ]	/* 1 value pushed */\01210 \012CALL[ ]	/* CallFunction */\012PUSHW[ ]	/* 4 values pushed */\012137 951 125 14 \012CALL[ ]	/* CallFunction */\012PUSHW[ ]	/* 4 values pushed */\012149 951 21 14 \012CALL[ ]	/* CallFunction */\012PUSHW[ ]	/* 4 values pushed */\01257 951 110 14 \012CALL[ ]	/* CallFunction */\012PUSHW[ ]	/* 3 values pushed */\0120 125 149 \012SRP1[ ]	/* SetRefPoint1 */\012SRP2[ ]	/* SetRefPoint2 */\012IP[ ]	/* InterpolatePts */\012PUSHW[ ]	/* 3 values pushed */\0122 125 149 \012SRP1[ ]	/* SetRefPoint1 */\012SRP2[ ]	/* SetRefPoint2 */\012IP[ ]	/* InterpolatePts */\012NPUSHW[ ]	/* 21 values pushed */\012102 57 118 57 134 57 150 57 166 57 182 57 198 57 214 57 230 57 246 57 10 \012DELTAP1[ ]	/* DeltaExceptionP1 */\012NPUSHW[ ]	/* 33 values pushed */\0126 57 22 57 38 57 54 57 70 57 86 57 102 57 118 57 134 57 150 57 166 57 182 57 198 57 214 57 230 57 246 57 16 \012DELTAP2[ ]	/* DeltaExceptionP2 */\012NPUSHW[ ]	/* 21 values pushed */\0126 57 22 57 38 57 54 57 70 57 86 57 102 57 118 57 134 57 150 57 10 \012DELTAP3[ ]	/* DeltaExceptionP3 */\012NPUSHW[ ]	/* 5 values pushed */\012165 57 181 57 2 \012DELTAP3[ ]	/* DeltaExceptionP3 */\012PUSHW[ ]	/* 3 values pushed */\01214 110 57 \012SRP1[ ]	/* SetRefPoint1 */\012SRP2[ ]	/* SetRefPoint2 */\012IP[ ]	/* InterpolatePts */\012NPUSHW[ ]	/* 5 values pushed */\012170 21 186 21 2 \012DELTAP3[ ]	/* DeltaExceptionP3 */\012NPUSHW[ ]	/* 21 values pushed */\012105 21 121 21 137 21 153 21 169 21 185 21 201 21 217 21 233 21 249 21 10 \012DELTAP1[ ]	/* DeltaExceptionP1 */\012NPUSHW[ ]	/* 33 values pushed */\0129 21 25 21 41 21 57 21 73 21 89 21 105 21 121 21 137 21 153 21 169 21 185 21 201 21 217 21 233 21 249 21 16 \012DELTAP2[ ]	/* DeltaExceptionP2 */\012NPUSHW[ ]	/* 21 values pushed */\0129 21 25 21 41 21 57 21 73 21 89 21 105 21 121 21 137 21 153 21 10 \012DELTAP3[ ]	/* DeltaExceptionP3 */\012PUSHW[ ]	/* 3 values pushed */\01240 125 149 \012SRP1[ ]	/* SetRefPoint1 */\012SRP2[ ]	/* SetRefPoint2 */\012IP[ ]	/* InterpolatePts */\012PUSHW[ ]	/* 3 values pushed */\01242 125 149 \012SRP1[ ]	/* SetRefPoint1 */\012SRP2[ ]	/* SetRefPoint2 */\012IP[ ]	/* InterpolatePts */\012PUSHW[ ]	/* 3 values pushed */\01247 125 149 \012SRP1[ ]	/* SetRefPoint1 */\012SRP2[ ]	/* SetRefPoint2 */\012IP[ ]	/* InterpolatePts */\012PUSHW[ ]	/* 3 values pushed */\01265 125 149 \012SRP1[ ]	/* SetRefPoint1 */\012SRP2[ ]	/* SetRefPoint2 */\012IP[ ]	/* InterpolatePts */\012PUSHW[ ]	/* 3 values pushed */\01270 125 149 \012SRP1[ ]	/* SetRefPoint1 */\012SRP2[ ]	/* SetRefPoint2 */\012IP[ ]	/* InterpolatePts */\012PUSHW[ ]	/* 3 values pushed */\01279 125 149 \012SRP1[ ]	/* SetRefPoint1 */\012SRP2[ ]	/* SetRefPoint2 */\012IP[ ]	/* InterpolatePts */\012PUSHW[ ]	/* 3 values pushed */\01283 125 149 \012SRP1[ ]	/* SetRefPoint1 */\012SRP2[ ]	/* SetRefPoint2 */\012IP[ ]	/* InterpolatePts */\012NPUSHW[ ]	/* 21 values pushed */\012102 137 118 137 134 137 150 137 166 137 182 137 198 137 214 137 230 137 246 137 10 \012DELTAP1[ ]	/* DeltaExceptionP1 */\012NPUSHW[ ]	/* 33 values pushed */\0126 137 22 137 38 137 54 137 70 137 86 137 102 137 118 137 134 137 150 137 166 137 182 137 198 137 214 137 230 137 246 137 16 \012DELTAP2[ ]	/* DeltaExceptionP2 */\012NPUSHW[ ]	/* 21 values pushed */\0126 137 22 137 38 137 54 137 70 137 86 137 102 137 118 137 134 137 150 137 10 \012DELTAP3[ ]	/* DeltaExceptionP3 */\012NPUSHW[ ]	/* 5 values pushed */\012165 137 181 137 2 \012DELTAP3[ ]	/* DeltaExceptionP3 */\012PUSHW[ ]	/* 1 value pushed */\012137 \012SRP0[ ]	/* SetRefPoint0 */\012PUSHW[ ]	/* 2 values pushed */\01286 950 \012MIRP[10100]	/* MoveIndirectRelPt */\012PUSHW[ ]	/* 1 value pushed */\01221 \012SRP0[ ]	/* SetRefPoint0 */\012PUSHW[ ]	/* 1 value pushed */\01290 \012MDRP[10000]	/* MoveDirectRelPt */\012PUSHW[ ]	/* 1 value pushed */\01290 \012MDAP[1]	/* MoveDirectAbsPt */\012PUSHW[ ]	/* 3 values pushed */\01293 125 149 \012SRP1[ ]	/* SetRefPoint1 */\012SRP2[ ]	/* SetRefPoint2 */\012IP[ ]	/* InterpolatePts */\012PUSHW[ ]	/* 1 value pushed */\01257 \012SRP0[ ]	/* SetRefPoint0 */\012PUSHW[ ]	/* 1 value pushed */\012175 \012MDRP[10000]	/* MoveDirectRelPt */\012PUSHW[ ]	/* 1 value pushed */\012175 \012MDAP[1]	/* MoveDirectAbsPt */\012PUSHW[ ]	/* 3 values pushed */\012112 57 175 \012SRP1[ ]	/* SetRefPoint1 */\012SRP2[ ]	/* SetRefPoint2 */\012IP[ ]	/* InterpolatePts */\012PUSHW[ ]	/* 1 value pushed */\01286 \012SRP0[ ]	/* SetRefPoint0 */\012PUSHW[ ]	/* 1 value pushed */\012119 \012MDRP[10000]	/* MoveDirectRelPt */\012PUSHW[ ]	/* 1 value pushed */\012119 \012MDAP[1]	/* MoveDirectAbsPt */\012PUSHW[ ]	/* 1 value pushed */\012137 \012SRP0[ ]	/* SetRefPoint0 */\012PUSHW[ ]	/* 1 value pushed */\012121 \012MDRP[10000]	/* MoveDirectRelPt */\012PUSHW[ ]	/* 1 value pushed */\012121 \012MDAP[1]	/* MoveDirectAbsPt */\012PUSHW[ ]	/* 1 value pushed */\012149 \012SRP0[ ]	/* SetRefPoint0 */\012PUSHW[ ]	/* 1 value pushed */\012191 \012MDRP[11100]	/* MoveDirectRelPt */\012SVTCA[0]	/* SetFreedomAndProjectionVectorToAxis */\012PUSHW[ ]	/* 1 value pushed */\012129 \012MDAP[1]	/* MoveDirectAbsPt */\012PUSHW[ ]	/* 1 value pushed */\012108 \012MDAP[1]	/* MoveDirectAbsPt */\012PUSHW[ ]	/* 1 value pushed */\01259 \012MDAP[1]	/* MoveDirectAbsPt */\012PUSHW[ ]	/* 4 values pushed */\012146 949 10 14 \012CALL[ ]	/* CallFunction */\012PUSHW[ ]	/* 4 values pushed */\012161 949 81 14 \012CALL[ ]	/* CallFunction */\012PUSHW[ ]	/* 4 values pushed */\01217 949 155 14 \012CALL[ ]	/* CallFunction */\012PUSHW[ ]	/* 3 values pushed */\0120 108 129 \012SRP1[ ]	/* SetRefPoint1 */\012SRP2[ ]	/* SetRefPoint2 */\012IP[ ]	/* InterpolatePts */\012PUSHW[ ]	/* 3 values pushed */\0122 155 17 \012SRP1[ ]	/* SetRefPoint1 */\012SRP2[ ]	/* SetRefPoint2 */\012IP[ ]	/* InterpolatePts */\012PUSHW[ ]	/* 1 value pushed */\01217 \012SRP0[ ]	/* SetRefPoint0 */\012PUSHW[ ]	/* 1 value pushed */\01232 \012MDRP[10000]	/* MoveDirectRelPt */\012PUSHW[ ]	/* 1 value pushed */\01232 \012MDAP[1]	/* MoveDirectAbsPt */\012PUSHW[ ]	/* 3 values pushed */\01214 17 32 \012SRP1[ ]	/* SetRefPoint1 */\012SRP2[ ]	/* SetRefPoint2 */\012IP[ ]	/* InterpolatePts */\012PUSHW[ ]	/* 3 values pushed */\01240 108 129 \012SRP1[ ]	/* SetRefPoint1 */\012SRP2[ ]	/* SetRefPoint2 */\012IP[ ]	/* InterpolatePts */\012PUSHW[ ]	/* 3 values pushed */\01242 108 129 \012SRP1[ ]	/* SetRefPoint1 */\012SRP2[ ]	/* SetRefPoint2 */\012IP[ ]	/* InterpolatePts */\012PUSHW[ ]	/* 3 values pushed */\01247 81 161 \012SRP1[ ]	/* SetRefPoint1 */\012SRP2[ ]	/* SetRefPoint2 */\012IP[ ]	/* InterpolatePts */\012PUSHW[ ]	/* 3 values pushed */\01265 81 161 \012SRP1[ ]	/* SetRefPoint1 */\012SRP2[ ]	/* SetRefPoint2 */\012IP[ ]	/* InterpolatePts */\012PUSHW[ ]	/* 3 values pushed */\01270 155 17 \012SRP1[ ]	/* SetRefPoint1 */\012SRP2[ ]	/* SetRefPoint2 */\012IP[ ]	/* InterpolatePts */\012PUSHW[ ]	/* 3 values pushed */\01279 108 129 \012SRP1[ ]	/* SetRefPoint1 */\012SRP2[ ]	/* SetRefPoint2 */\012IP[ ]	/* InterpolatePts */\012PUSHW[ ]	/* 3 values pushed */\01283 108 129 \012SRP1[ ]	/* SetRefPoint1 */\012SRP2[ ]	/* SetRefPoint2 */\012IP[ ]	/* InterpolatePts */\012PUSHW[ ]	/* 3 values pushed */\01293 108 129 \012SRP1[ ]	/* SetRefPoint1 */\012SRP2[ ]	/* SetRefPoint2 */\012IP[ ]	/* InterpolatePts */\012PUSHW[ ]	/* 1 value pushed */\012161 \012SRP0[ ]	/* SetRefPoint0 */\012PUSHW[ ]	/* 1 value pushed */\012102 \012MDRP[10000]	/* MoveDirectRelPt */\012PUSHW[ ]	/* 1 value pushed */\012102 \012MDAP[1]	/* MoveDirectAbsPt */\012PUSHW[ ]	/* 3 values pushed */\012112 108 129 \012SRP1[ ]	/* SetRefPoint1 */\012SRP2[ ]	/* SetRefPoint2 */\012IP[ ]	/* InterpolatePts */\012PUSHW[ ]	/* 1 value pushed */\012146 \012SRP0[ ]	/* SetRefPoint0 */\012PUSHW[ ]	/* 1 value pushed */\012133 \012MDRP[10000]	/* MoveDirectRelPt */\012PUSHW[ ]	/* 1 value pushed */\012133 \012MDAP[1]	/* MoveDirectAbsPt */\012PUSHW[ ]	/* 1 value pushed */\012155 \012SRP0[ ]	/* SetRefPoint0 */\012PUSHW[ ]	/* 1 value pushed */\012157 \012MDRP[10000]	/* MoveDirectRelPt */\012PUSHW[ ]	/* 1 value pushed */\012157 \012MDAP[1]	/* MoveDirectAbsPt */\012PUSHW[ ]	/* 1 value pushed */\01217 \012SRP0[ ]	/* SetRefPoint0 */\012PUSHW[ ]	/* 1 value pushed */\012165 \012MDRP[11100]	/* MoveDirectRelPt */\012PUSHW[ ]	/* 3 values pushed */\012175 108 129 \012SRP1[ ]	/* SetRefPoint1 */\012SRP2[ ]	/* SetRefPoint2 */\012IP[ ]	/* InterpolatePts */\012IUP[0]	/* InterpolateUntPts */\012IUP[1]	/* InterpolateUntPts */";
};
width = 572;
}
);
note = G;
unicode = 0047;
},
